<?xml version="1.0" encoding="UTF-8"?>
<!DOCTYPE svg PUBLIC "-//W3C//DTD SVG 1.1//EN" "http://www.w3.org/Graphics/SVG/1.1/DTD/svg11.dtd">
<!-- Creator: CorelDRAW -->
<svg xmlns="http://www.w3.org/2000/svg" xml:space="preserve" width="16.9332mm" height="16.9332mm" version="1.1" style="shape-rendering:geometricPrecision; text-rendering:geometricPrecision; image-rendering:optimizeQuality; fill-rule:evenodd; clip-rule:evenodd"
viewBox="0 0 1693.32 1693.32"
 xmlns:xlink="http://www.w3.org/1999/xlink"
 xmlns:xodm="http://www.corel.com/coreldraw/odm/2003"
 xmlns:dc="http://purl.org/dc/elements/1.1/"
 xmlns:cc="http://creativecommons.org/ns#"
 xmlns:rdf="http://www.w3.org/1999/02/22-rdf-syntax-ns#"
 xmlns:svg="http://www.w3.org/2000/svg">
 <defs>
  <style type="text/css">
   <![CDATA[
    .fil0 {fill:none}
    .fil1 {fill:#262120;fill-rule:nonzero}
   ]]>
  </style>
 </defs>
 <g id="Camada_x0020_1">
  <metadata id="CorelCorpID_0Corel-Layer"/>
 </g>
 <g id="Camada_x0020_1_8">
  <metadata id="CorelCorpID_1Corel-Layer"/>
  <rect class="fil0" x="-0.02" y="-0" width="1693.33" height="1693.33"/>
 </g>
 <g id="Camada_x0020_1_2">
  <metadata id="CorelCorpID_2Corel-Layer"/>
 </g>
 <g id="Camada_x0020_1_2_9"   opacity="0.1">
  <metadata id="CorelCorpID_3Corel-Layer"/>
  <g id="_1928017911776">
   <path class="fil1" d="M637.76 236.53c-49.11,-16.11 -98.93,-16.85 -147.9,-0.17 -90.22,30.75 -130.56,102.14 -148,189.45 -9.95,49.85 -0.07,99.97 6.94,149.52 17.18,121.27 39.62,241.77 47.32,364.35 4.96,79.05 5.73,157.5 -11.29,235.24 -21.59,98.62 -62.05,187.02 -139.63,255.1 -6.54,5.75 -13.08,11.84 -18.18,18.82 -5.96,8.16 -3.1,15.36 6.41,18.53 3.69,1.23 7.81,1.39 11.76,1.64 29.9,1.9 52.33,-12.51 69.82,-34.6 31.78,-40.12 57.82,-83.97 77.86,-131.05 54.57,-128.18 68.71,-262.33 56.94,-399.96 -7.34,-85.82 -24.52,-169.98 -44.29,-253.68 -14.7,-62.25 -22.14,-125.36 -20.21,-189.4 0.19,-6.38 -3.11,-14.81 6.27,-17.89 3.41,42.87 4.51,85.99 10.77,128.36 8.48,57.36 21.92,113.99 31.35,171.24 10.06,61.17 20.18,122.47 26.2,184.12 7.3,74.82 -0.56,149.47 -13.3,223.37 -16.56,96.07 -49.24,185.93 -106.63,265.76 -3.07,4.27 -5.21,9.21 -8.21,14.59 19.84,11.74 34.75,3.17 48.49,-8.37 20.48,-17.2 34.95,-39.23 46.63,-62.95 72.55,-147.21 97.09,-303.07 83.07,-465.77 -1.95,-22.68 -4,-45.35 -6.01,-68.02 1.51,1.4 3.63,2.71 3.84,4.26 3.59,27.52 8.51,55 9.91,82.65 3.41,67.62 2.97,135.2 -8.43,202.31 -11.74,69.14 -26.63,137.43 -53.9,202.38 -8.2,19.52 -17.58,38.53 -28.13,61.51 21.89,-7.89 37.14,-18.87 48.7,-33.77 21.06,-27.19 38.69,-56.5 47.03,-90.47 16.9,-68.87 29.18,-138.42 34.87,-209.25 4.87,-60.6 4.04,-120.73 -5.98,-180.64 -4.53,-27.03 -10.17,-53.87 -15.34,-80.78 2.26,2.18 5.47,4.18 5.89,6.65 8.1,47.69 19.05,95.19 22.85,143.25 7.66,96.65 -3.92,192.26 -24.73,286.77 -2.11,9.54 -5.36,18.97 -3.55,31.07 19.28,-8.27 32.94,-20.09 44.82,-33.99 39.51,-46.25 64.94,-99.84 80.55,-158.17 30.47,-113.83 20.52,-227.32 -4.36,-340.47 -1.4,-6.37 -5.62,-13.43 -10.68,-17.47 -45.54,-36.21 -75.76,-83.52 -98.27,-136.03 -14.33,-33.47 -19.48,-68.56 -11.95,-105.06 11.5,-55.74 63.32,-101.17 128.49,-51.62 30.86,23.48 51.99,53.82 62.58,90.73 3.57,12.46 4.22,27.08 1.57,39.74 -4.99,23.82 -22.77,30.17 -43.2,17.17 -15.78,-10.04 -28.01,-23.64 -35.61,-40.86 -1.84,-4.17 -1.74,-9.18 -3.3,-18.42 19.97,21.72 34.29,42.28 58.34,49.96 12.54,-10.56 10.83,-23.25 8.43,-34.51 -9.96,-46.82 -34.99,-83.4 -77.89,-105.95 -23.17,-12.18 -44.82,-7.89 -63.36,10.68 -15.81,15.83 -24.4,35.3 -26.22,57.46 -2.57,31.4 1.25,61.85 13.67,91.16 16,37.79 37.73,72.02 65.24,102.18 11.05,12.11 25.43,21.44 39.04,30.95 17.57,12.28 35.92,9.59 54.19,0.66 35.88,-17.51 57.32,-47.57 70.5,-83.69 17.1,-46.88 22.24,-96.2 22.74,-145.6 0.56,-55.63 -14.99,-106.98 -51.13,-150.51 -32.89,-39.61 -74.73,-66.55 -123.4,-82.51zm-175.72 400.18c-0.88,-4.44 -0.12,-9.19 2.37,-14.14 8.41,38.46 16.81,76.92 25.21,115.38 4.4,20.13 9.26,40.19 12.98,60.45 1.42,7.74 0.8,15.85 0.84,23.85 -7.57,-31.57 -15.46,-63.04 -22.57,-94.71 -6.76,-30.16 -12.77,-60.5 -18.83,-90.83zm74.12 144.61c-2.79,-11 -5.58,-22.01 -8.36,-33.02 7.62,10.02 13.01,20.52 8.36,33.02z"/>
   <path class="fil1" d="M1460.59 1441.45c-6.01,-7.31 -13.75,-13.21 -20.78,-19.66 -38.12,-34.9 -67.01,-76.56 -89.15,-122.98 -36.91,-77.42 -54.78,-159.82 -55.68,-244.88 -0.68,-64.34 2.19,-129.17 9.62,-193.06 11.95,-102.66 29.04,-204.71 43.83,-307.04 11,-76.02 12.14,-149.95 -28.72,-220.18 -31.72,-54.49 -76.03,-89.06 -136.51,-103.1 -68.15,-15.82 -131.75,-1.12 -189.73,35.58 -49.8,31.52 -86.81,74.39 -101.93,133.28 -20.17,78.63 -8.86,155.08 18.87,229.31 11.23,30.07 32.57,54.46 62.84,69.32 19.1,9.38 38.1,12.83 56.35,-0.12 14.82,-10.52 29.94,-21.38 42.12,-34.67 24.87,-27.15 45.33,-57.96 58.71,-92.27 8.57,-21.95 14.53,-45.53 17.52,-68.9 3.85,-30.06 -3.05,-58.78 -23.88,-82.43 -17.99,-20.41 -41.35,-26.73 -64.61,-14.81 -45.59,23.35 -71.61,61.94 -80.89,111.83 -2.04,10.95 -1.37,22.34 10.75,29.26 23.64,-8.54 37.37,-28.62 54.38,-46.16 -0.7,26.52 -28.15,58.69 -51.32,61.55 -13.9,1.71 -25.93,-6.48 -28.35,-22.65 -1.85,-12.32 -2.25,-25.94 1.09,-37.76 11.64,-41.18 35.07,-74.78 71.24,-98.42 45.83,-29.94 91.71,-15.8 113.4,34.36 11.81,27.33 12.94,55.88 7.49,84.43 -12.73,66.64 -48.5,121.18 -96.64,166.62 -17.05,16.08 -25.96,31.98 -30.04,53.72 -18.06,96.21 -25.36,192.51 -5.43,289.34 14.2,68.95 41.52,131.99 87.47,185.94 11.93,14 24.93,27.77 45.98,32.22 -0.28,-5.08 -0.09,-8.24 -0.65,-11.25 -6.83,-35.94 -15.14,-71.66 -20.43,-107.82 -13.99,-95.8 -17.1,-191.7 2.81,-287.23 0.59,-2.82 3.1,-5.24 5.02,-7.79 -3.1,25.52 -7.19,50.96 -9.05,76.55 -7.49,103.1 3.85,204.57 25.94,305.32 9.33,42.58 22.98,82.49 48.75,117.96 13.69,18.83 30.29,33.28 55.63,42.65 -2.74,-6.72 -4.08,-10.18 -5.55,-13.6 -11.67,-26.95 -24.96,-53.32 -34.75,-80.93 -26.93,-75.92 -41.14,-154.51 -49.07,-234.67 -5.83,-58.95 -5.96,-117.86 3.05,-175.81 12.28,-79.02 30.29,-157.16 46.13,-235.61 0.52,-2.51 3.43,-4.53 5.64,-6.7 -5.69,30.01 -10.56,60.16 -17.47,89.84 -24.21,104.06 -42.56,208.38 -32.42,316.2 7.92,84.35 22.08,167.12 51.64,246.6 11.06,29.72 24.35,58.99 39.99,86.54 11.21,19.73 26.7,37.6 42.82,53.8 11.75,11.82 27.69,18.93 46.55,5.54 -5.24,-7.79 -10.56,-14.64 -14.74,-22.12 -18.65,-33.29 -39.49,-65.63 -54.92,-100.37 -44.35,-99.82 -58.62,-206.33 -61.47,-314.29 -2.29,-87.13 12.83,-172.81 29.64,-258.02 16.18,-81.93 35.91,-163.29 37.29,-247.49 0.24,-14.81 2.97,-29.58 4.56,-44.36 3.1,2.88 4.65,5.77 4.5,8.58 -2.48,46.84 -1.73,94.2 -8.7,140.38 -9.24,61.26 -25.92,121.35 -36.94,182.4 -17.71,98.11 -28.21,196.72 -18.16,296.84 8.16,81.42 25.39,160.19 58.08,235.31 20.12,46.22 45.63,89.38 76.91,128.88 17.54,22.16 40.06,36.79 69.83,34.16 6.99,-0.62 13.58,-5.82 20.36,-8.91 -2.86,-6.11 -4.63,-13.17 -8.82,-18.25zm-314.69 -609.34c-0.31,-6.35 -1.4,-12.86 -0.06,-18.83 5.99,-26.73 12.91,-53.27 19.5,-79.86 1.6,0.37 3.19,0.74 4.79,1.12 -8.08,32.5 -16.17,65.03 -24.23,97.57zm86.74 -205.49c-0.61,-6.69 -1.2,-13.38 -1.81,-20.07 1.6,0.05 3.21,0.08 4.81,0.12 -1.01,6.63 -2.02,13.27 -3,19.95z"/>
  </g>
 </g>
</svg>
