<?xml version="1.0" encoding="utf-8"?>
<!-- Generator: Adobe Illustrator 27.5.0, SVG Export Plug-In . SVG Version: 6.00 Build 0)  -->
<svg version="1.1" xmlns="http://www.w3.org/2000/svg" xmlns:xlink="http://www.w3.org/1999/xlink" 
	 viewBox="0 0 1200 1200" style="enable-background:new 0 0 2200 1466;" xml:space="preserve">

<g id="Objects"  opacity="0.1">
	<g>
		<path style="fill:#0A53D3;" d="M729.685,954.822c-31.503,105.211-119.452,185.83-265.321,185.83
			c-151.974,0-236.728-120.825-265.292-227.129c-23.836-88.713-4.654-189.602,48.999-261.266
			c-7.813,33.085-7.645,69.2,5.116,100.411c12.761,31.211,39.251,56.601,70.314,61.577c31.063,4.976,65.264-13.389,76.771-45.174
			c13.45-37.176-4.801-77.804-15.4-116.056c-34.12-123.073,22.18-268.331,127.009-327.667
			c-26.805,34.728-26.321,87.397-8.612,128.456c17.701,41.051,49.644,72.597,82.437,100.594
			c32.8,27.989,67.631,53.985,94.553,88.609C745.928,727.47,757.612,861.556,729.685,954.822z"/>
		<g>
			<path style="fill:#2BA4FF;" d="M634.056,959.277c5.425,89.125-41.059,174.648-164.491,174.648
				c-82.732,0-130.264-44.003-151.95-85.46c-21.687-41.445-25.255-91.981-9.603-136.062c12.857,25.452,48.778,32.431,74.598,20.309
				c25.819-12.122,42.455-38.178,52.307-64.942c9.853-26.764,14.313-55.259,23.733-82.181c9.42-26.921,25.098-53.37,50.313-66.713
				c-9.38,17.121-12.857,45.876,10.393,71.838C548.222,822.948,626.828,840.532,634.056,959.277z"/>
		</g>
		<path style="fill:#C4F5FD;" d="M453.38,1126.241c-47.611-8.724-61.278-63.281-51.085-92.827
			c10.207-29.532,30.516-53.515,48.555-78.363c18.026-24.862,34.819-53.37,35.593-84.608c16.36,15.087,21.791,42.783,12.726,64.824
			c-5.156,12.555-14.563,26.764-8.187,38.204c5.366,9.63,19.351,8.961,27.643,1.64c8.292-7.321,12.28-18.827,15.901-29.742
			C572.797,978.168,583.198,1150.013,453.38,1126.241z"/>
	</g>
	
</g>
</svg>

