<?xml version="1.0" encoding="UTF-8"?>
<!DOCTYPE svg PUBLIC "-//W3C//DTD SVG 1.1//EN" "http://www.w3.org/Graphics/SVG/1.1/DTD/svg11.dtd">
<!-- Creator: CorelDRAW -->
<svg xmlns="http://www.w3.org/2000/svg" xml:space="preserve" width="16.9332mm" height="16.9332mm" version="1.1" style="shape-rendering:geometricPrecision; text-rendering:geometricPrecision; image-rendering:optimizeQuality; fill-rule:evenodd; clip-rule:evenodd"
viewBox="0 0 1693.32 1693.32"
 xmlns:xlink="http://www.w3.org/1999/xlink"
 xmlns:xodm="http://www.corel.com/coreldraw/odm/2003"
 xmlns:dc="http://purl.org/dc/elements/1.1/"
 xmlns:cc="http://creativecommons.org/ns#"
 xmlns:rdf="http://www.w3.org/1999/02/22-rdf-syntax-ns#"
 xmlns:svg="http://www.w3.org/2000/svg">
 <defs>
  <style type="text/css">
   <![CDATA[
    .fil0 {fill:none}
    .fil1 {fill:#19110C;fill-rule:nonzero}
   ]]>
  </style>
 </defs>
 <g id="Camada_x0020_1">
  <metadata id="CorelCorpID_0Corel-Layer"/>
 </g>
 <g id="Camada_x0020_1_4">
  <metadata id="CorelCorpID_1Corel-Layer"/>
  <rect class="fil0" x="-0.02" y="-0" width="1693.33" height="1693.33"/>
 </g>
 <g id="Camada_x0020_1_2">
  <metadata id="CorelCorpID_2Corel-Layer"/>
 </g>
 <g id="Camada_x0020_1_2_5"   opacity="0.1">
  <metadata id="CorelCorpID_3Corel-Layer"/>
  <g id="rosa.svg">
   <g id="OBJECTS">
    <g>
     <path class="fil1" d="M812.13 244.08c0.34,0.67 0.63,1.25 0.91,1.78 0.42,0.26 0.86,0.48 1.28,0.74 1.26,0.76 2.48,1.57 3.71,2.37 3.79,-0.11 8.63,-0.31 14.3,-0.22 6.86,0.05 14.94,0.1 23.44,0.15 8.56,0 17.59,0.2 26.5,-0.21 1.05,-0.02 2.09,-0.12 3.13,-0.18 -2.01,-0.92 -4.24,-2.16 -6.55,-3.87 -3.87,-2.77 -8,-6.44 -12.59,-9.93 -4.59,-3.51 -9.83,-6.56 -15.78,-7.36 -5.9,-0.93 -12.25,-0.68 -18.07,-0.92 -5.82,-0.08 -11.25,-0.1 -15.85,0.47 -4.6,0.52 -8.4,1.3 -11,2.12 -0.6,0.18 -1.13,0.34 -1.6,0.49 0.48,0.73 0.95,1.43 1.39,2.11 3.19,5.03 5.09,9.52 6.78,12.46z"/>
     <path class="fil1" d="M693.93 297.02c2.96,3.34 5.97,6.6 9.04,9.64 0,-0.57 0,-1.17 0.03,-1.79 0.22,-7.05 2.16,-14.14 4,-20.89 0.91,-3.36 2.05,-6.94 2.77,-10.06 0.65,-3.17 0.89,-6.42 0.8,-9.58 -0.15,-4.42 -0.88,-8.76 -2.05,-12.5 -12.3,7.31 -18.57,19 -28.26,28.83 0.13,0.16 0.24,0.32 0.37,0.47 4.17,5.14 8.6,10.62 13.3,15.88z"/>
     <path class="fil1" d="M855.44 255.07c-8.46,-0.89 -16.5,-1.74 -23.32,-2.46 -3.99,-0.39 -7.53,-0.87 -10.62,-1.31 4.56,3.14 8.98,6.47 13.34,9.78 6.56,5.08 13.13,10.16 19.59,15.15 3.22,2.52 6.41,5.02 9.56,7.49 3.1,2.44 6.1,4.62 9.31,6.19 1.94,0.88 3.87,1.76 5.76,2.61 1.93,0.93 3.79,1.9 5.57,2.89 3.54,1.96 6.76,3.97 9.55,5.83l-1.51 2.47c4.75,-3.4 9.47,-6.73 14.07,-9.93 10.47,-7.3 20.35,-13.94 29.08,-19.81 -0.71,0.05 -1.44,0.06 -2.22,-0.01 -2.99,-0.2 -6.35,-1.35 -9.42,-3.46 -6.45,-4.18 -9.95,-12.96 -16.33,-14.77 -6.58,-2.27 -15.82,0.24 -25.26,0.52 -9.36,0.38 -18.6,-0.27 -27.15,-1.18z"/>
     <path class="fil1" d="M709.01 246.16c3.17,4.81 5.25,10.91 6.02,17.89 0.36,3.47 0.34,7.13 -0.32,10.82 -0.75,3.7 -1.74,6.9 -2.61,10.39 -1.94,6.88 -3.93,13.54 -4.2,19.84 -0.01,0.37 -0.02,0.74 -0.04,1.1 5.27,1.8 8.76,5.25 11.67,7.91 0.46,0.46 0.88,0.87 1.33,1.32 5.72,2.81 11.52,5.81 17.39,9.06 4.69,2.62 9.57,5.23 14.27,8.65 0.17,0.12 0.32,0.27 0.49,0.39 -0.44,-1.32 -0.89,-2.68 -1.3,-4.13 -1.97,-6.91 -3.65,-15.2 -4.11,-24.21 -0.24,-4.24 -0.22,-8.61 -0.25,-13.02 -0.06,0.93 -0.09,1.45 -0.09,1.45 0,0 -0.25,-4.15 -0.69,-11.41 -0.13,-2.65 -0.28,-5.74 -0.44,-9.19 -0.55,-3.14 -1.34,-6.22 -2.46,-9.13 -1.62,-4.24 -4.08,-8.02 -6.87,-11.36 -5.68,-6.63 -12.42,-11.58 -18.16,-15.78 -5.77,-4.08 -10.72,-7.83 -12.89,-11.57 -1.09,-1.83 -1.54,-3.46 -1.69,-4.57 -0.16,-1.12 -0.12,-1.71 -0.12,-1.71 0,0 0.01,0.6 0.28,1.68 0.26,1.07 0.85,2.61 2.05,4.26 2.32,3.47 7.38,6.59 13.34,10.53 5.87,4.03 12.99,8.67 19.04,15.57 2.87,3.32 5.43,7.19 7.21,11.49 0.04,-0.57 0.09,-1.13 0.19,-1.73 0.06,-0.34 0.19,-0.66 0.28,-0.99 -0.16,-0.89 -0.41,-2.26 -0.75,-4.17 -0.5,-3.37 -1.35,-8.18 -2,-14.02 -0.26,-2.92 -0.48,-6.09 -0.67,-9.44 -0.07,-1.7 -0.14,-3.43 -0.21,-5.2 -0.03,-1.82 0.04,-4 1,-6.34 0.88,-2.33 2.76,-4.35 4.82,-5.57 2.11,-1.16 4.29,-1.77 6.38,-2.15 4.31,-0.73 8.06,-0.74 12.06,-0.93 7.89,-0.13 16.56,0.65 23.74,4.65 6.09,3.3 10.01,8.23 13.01,12.62 0.47,-0.24 0.99,-0.5 1.6,-0.79 2.52,-1.1 6.25,-2.59 10.95,-3.43 0.09,-0.01 0.19,-0.02 0.29,-0.04 -0.41,-0.29 -0.77,-0.61 -1.06,-0.91 -2.45,-2.9 -4.51,-5.53 -6.94,-8.2 -2.46,-2.79 -5.06,-5.45 -7.7,-7.98 -5.69,-1.57 -9.76,-6.65 -16.38,-9.63 -12.31,-5.54 -31.15,-8.09 -44.54,-7.75 -3,0.07 -5.75,0.28 -8.41,0.66 -4.35,0.61 -8.46,1.65 -13.02,3.28 -10.6,3.77 -22.58,7.58 -24.81,18.85 -2.59,13.1 4.35,20.64 10.98,29.12 1.42,0.92 3.08,1.99 4.34,3.82z"/>
     <path class="fil1" d="M817.52 222.1c1,1.12 1.74,1.37 3.47,0.94 1.67,-0.37 3.46,-0.73 5.17,-0.9 6.11,-0.64 11.74,0.2 16.61,1.27 2.7,0.08 5.45,0.26 8.26,0.68 6.56,1.02 12.46,4.64 16.92,8.49 4.59,3.83 8.29,7.85 11.9,10.77 2.61,2.19 5.06,3.9 7.17,5.07 2.84,-0.2 5.7,-0.45 8.72,-0.67 4.64,-0.25 9.73,-0.28 14.52,1.75 2.36,0.98 4.58,2.5 6.22,4.26 1.65,1.75 2.83,3.6 3.89,5.3 2.08,3.46 3.85,6.27 6.21,8.4 2.29,2.15 4.87,3.62 7.38,4.28 1.61,0.42 3.17,0.51 4.58,0.4 0.02,0 0.03,-0.02 0.05,-0.03 9.35,-6.28 17.27,-11.35 22.77,-14.94 5.53,-3.55 8.7,-5.58 8.7,-5.58 0,0 -3.08,2.15 -8.47,5.92 -4.82,3.4 -11.58,8.18 -19.54,13.8 1.17,-0.45 2.16,-0.98 2.77,-1.45 0.84,-0.65 1.22,-1.09 1.22,-1.09 0,0 -0.32,0.48 -1.09,1.25 -0.76,0.76 -2.02,1.78 -3.9,2.66 -0.57,0.25 -1.22,0.47 -1.89,0.67 -9.16,6.48 -19.72,14.16 -31.02,22.38 -11.37,8.35 -23.45,17.23 -35.54,26.12 -11.95,8.92 -23.44,18.77 -30.62,30.67 -7.2,11.86 -10.02,24.91 -12.23,35.87 -2.13,10.97 -3.94,20.29 -5.19,26.72 -0.21,1.03 -0.4,1.95 -0.58,2.83 0.54,-0.61 1.04,-1.24 1.59,-1.84 4.91,-5.38 10.69,-10.31 17.16,-14.44 6.48,-4.14 13.59,-7.37 20.79,-9.98 14.48,-5.09 29.19,-8.04 42.31,-12.29 13.14,-4.25 25.14,-9.35 35.22,-14.18 1.25,-0.6 2.47,-1.18 3.67,-1.76 0.33,-4.52 1.99,-9.12 2.61,-13.46 2.31,-16.35 0.54,-30.75 7.65,-46.11 6.33,-13.69 12.79,-28.21 21.64,-40.6 -1.41,1.07 -2.99,2.29 -4.71,3.62 -3.48,2.59 -7.43,5.79 -11.33,9.47 -3.92,3.66 -7.62,7.99 -11.13,12.57 -3.55,4.54 -7.03,9.23 -10.61,13.38 -3.52,4.19 -7.14,7.83 -10.33,10.85 -3.19,3.01 -6.17,5.17 -8.23,6.66 -2.11,1.45 -3.36,2.19 -3.36,2.19 0,0 1.13,-0.92 2.96,-2.68 1.9,-1.68 4.41,-4.28 7.36,-7.44 2.95,-3.16 6.11,-7.09 9.46,-11.34 3.35,-4.36 6.86,-8.9 10.39,-13.48 3.64,-4.55 7.6,-9 11.89,-12.51 4.2,-3.59 8.51,-6.34 12.25,-8.61 2.44,-1.52 4.57,-2.86 6.36,-4 0.39,-0.54 0.76,-1.09 1.17,-1.62 3.35,-4.35 11.23,-9.9 5.43,-15.21 -4.41,-4.03 -20.86,-0.61 -26.87,-0.61 -11.05,0 -23.05,-1.15 -34.07,-0.05 -5.13,0.52 -10.65,1.65 -15.03,3.28 -0.35,-10.65 -1.9,-23.1 -7.61,-32.43 -8.2,-13.4 -25.2,-12.23 -38.86,-12.64 -18.81,-0.57 -33.27,-1.63 -51.98,4.66 -1.49,0.5 -2.86,0.78 -4.13,0.89 1.77,1.81 3.52,3.65 5.22,5.55 2.34,2.66 4.67,5.73 6.66,8.32z"/>
     <path class="fil1" d="M751.32 252.18c2.63,-2.21 5.62,-3.77 8.42,-5.48 2.95,-1.69 5,-3.48 7.79,-6.13 1.4,-1.25 3.13,-2.62 5.28,-3.48 0.28,-0.12 0.57,-0.16 0.85,-0.25 -0.45,-0.24 -0.9,-0.47 -1.37,-0.73 -1.47,-0.74 -3.02,-1.55 -4.64,-2.26 -1.6,-0.71 -3.1,-1.38 -4.79,-2.13 -1.35,-0.61 -3.05,-1.38 -4.26,-1.93 -1.26,-0.56 -2.33,-1 -3.08,-1.29 -0.74,-0.31 -1.17,-0.48 -1.17,-0.48 0,0 0.46,0.05 1.26,0.14 0.76,0.1 2.25,0.29 3.32,0.43 1.38,0.18 3,0.37 4.71,0.77 1.71,0.36 3.49,0.98 5.24,1.66 1.72,0.78 3.44,1.61 4.89,2.67 1.08,0.75 1.97,1.59 2.77,2.39 0.89,-0.14 1.76,-0.27 2.62,-0.31 4.1,-0.15 8.13,0.15 12.19,1.05 6.69,1.35 13.07,4.16 19.09,7.54 -2.17,-2.58 -5.17,-6.09 -8.52,-10.24 -3.61,-4.4 -8.35,-9.01 -14.2,-11.66 -5.89,-2.68 -13.16,-3.27 -20.67,-3.16 -3.74,0.04 -7.78,-0.01 -11.03,0.41 -1.66,0.21 -3.18,0.6 -4.41,1.16 -1.26,0.48 -2.2,1.12 -2.89,2.09 -1.21,1.89 -1.02,5.95 -1.35,9.14 -0.22,3.31 -0.37,6.44 -0.44,9.33 -0.31,5.79 -0.5,10.64 -0.44,14.04 -0.02,1.55 -0.01,2.75 0,3.65 0.86,-2.66 2.61,-5.16 4.83,-6.94z"/>
     <path class="fil1" d="M764.34 346.86c2.62,5.97 2.62,12.04 3.85,17.1 1.21,5.09 3.59,9.98 6.48,14.74 2.83,4.8 6.11,9.53 9.04,14.63 2.96,5.06 5.38,10.75 6.83,16.38 1.53,5.65 2.51,11.17 3.6,16.57 1.06,5.43 2.1,10.78 3.13,16.05 1.54,8.59 3.67,16.99 4.18,25.5 1.04,-5.16 2.45,-11.17 4.69,-17.72 3.41,-9.91 8.64,-21.43 17.31,-31.59 0.16,-1.06 0.33,-2.22 0.51,-3.52 1.02,-6.5 2.34,-15.79 4.19,-26.92 1.97,-11.03 4.3,-24.4 11.65,-36.87 3.73,-6.42 8.66,-12.2 14.19,-17.53 0.13,-0.13 0.23,-0.26 0.37,-0.39 0.34,-0.33 0.74,-0.67 1.12,-1 4.28,-3.99 8.85,-7.73 13.51,-11.29 0.46,-0.46 0.9,-0.89 1.37,-1.38 1.96,-2.06 4.12,-4.13 6.38,-6.29 2.03,-1.93 4.15,-3.92 6.51,-6.04 1.18,-1.06 2.42,-2.14 3.79,-3.25 0.32,-0.26 0.69,-0.53 1.03,-0.79 -1.87,-1.01 -3.83,-2.02 -5.93,-3.03 -3.59,-1.75 -7.11,-3.17 -11.37,-4.91 -3.88,-1.7 -7.38,-4.11 -10.63,-6.54 -3.21,-2.4 -6.45,-4.84 -9.72,-7.28 -6.53,-4.92 -13.17,-9.91 -19.8,-14.9 -6.58,-5.06 -13.09,-10.03 -19.84,-14.23 -6.73,-4.21 -13.81,-7.35 -20.86,-9.19 -3.52,-0.9 -7.16,-1.3 -10.55,-1.37 -3.46,0.01 -5.77,0.74 -8.38,2.9 -1.31,1.02 -2.67,2.25 -4.26,3.35 -1.57,1.1 -3.16,1.96 -4.68,2.75 -3.04,1.59 -5.92,2.9 -8.15,4.6 -2.27,1.67 -3.78,3.69 -4.42,6.06 -0.65,2.39 -0.62,5.11 -0.79,7.65 -0.05,0.84 -0.09,1.63 -0.13,2.43 0.36,1.83 0.66,3.67 0.85,5.52 0.97,9.65 0.29,19.2 0.57,28.03 0.26,8.83 1.49,17.03 3.15,23.93 0.5,2.09 1.03,4.02 1.57,5.86 3.85,3.15 7.47,7 9.64,11.98zm4.1 -87.76c0.8,0.56 1.94,1.45 3.27,2.73 2.61,2.59 5.83,6.9 8.6,12.57 2.86,5.62 5.54,12.44 9.92,18.66 2.2,3.07 4.84,5.99 8.1,8.01 3.22,2.11 7.04,3.04 11.08,3.29 8.14,0.38 16.62,0.35 24.39,0.64 7.74,0.29 15.12,0.56 21.36,0.79 6.25,0.22 11.46,0.61 15.1,0.79 3.65,0.23 5.73,0.36 5.73,0.36 0,0 -2.08,0.07 -5.73,0.2 -3.65,0.08 -8.87,0.33 -15.12,0.38 -6.25,0.06 -13.63,0.12 -21.37,0.2 -7.86,-0.03 -16.07,0.06 -24.59,-0.26 -4.26,-0.27 -8.81,-1.38 -12.47,-3.85 -3.7,-2.38 -6.51,-5.66 -8.74,-9 -4.49,-6.74 -6.68,-13.84 -9.25,-19.46 -2.48,-5.69 -5.06,-10.18 -7.47,-12.9 -1.16,-1.38 -2.19,-2.38 -2.92,-3.03 -0.74,-0.63 -1.14,-0.97 -1.14,-0.97 0,0 0.43,0.3 1.25,0.85z"/>
     <path class="fil1" d="M733.93 575.15c2.1,-3.21 4.25,-6.09 5.98,-8.63 1.66,-2.28 3.33,-4.59 4.36,-6.01 0.25,-0.35 0.47,-0.66 0.67,-0.93 -4.23,-1.28 -8.35,-2.64 -12.34,-3.94 -2.75,-0.9 -5.38,-1.85 -7.94,-2.81 -1.85,0.14 -3.69,0.31 -5.5,0.61 -24.62,4 -47.28,16.98 -72.8,9.23 -17.3,-5.25 -37.02,-20.92 -50.87,-31.95 -7.28,-5.79 -17.74,-8.25 -23.29,-16 -3.22,8.48 2.76,15.86 6.57,22.89 8.69,16.04 18.55,30.82 30.23,44.94 4.1,4.97 8.04,10.88 14.07,12.78 10.2,3.22 26.54,-0.15 37.24,-0.04 13.13,0.14 25.65,2.8 38.82,0.74 9.43,-1.48 18.31,-4.89 27,-8.69 0.43,-0.7 0.85,-1.4 1.29,-2.1 2.19,-3.45 4.38,-6.91 6.51,-10.09zm-36.91 0.49c-8.25,1.97 -17.07,5.85 -26.61,6.84 -4.71,0.57 -9.42,0.78 -14.02,0.87 -4.6,0.08 -9.14,0.12 -13.57,-0.17 -8.84,-0.41 -17.15,-2.81 -23.26,-6.46 -6.16,-3.56 -10.46,-7.6 -13.52,-10.28 -2.98,-2.81 -4.67,-4.41 -4.67,-4.41 0,0 1.83,1.43 5.06,3.94 3.2,2.49 7.87,6.02 13.97,9.21 6.07,3.3 13.95,5.04 22.56,5.28 4.3,0.15 8.78,0.04 13.36,-0.1 4.56,-0.13 9.16,-0.37 13.71,-0.95 9.12,-0.86 17.63,-4.56 26.41,-6.41 8.9,-1.96 17.18,-0.36 23.93,-1.32 6.79,-0.85 12.22,-3.16 15.66,-5.28 3.48,-2.1 5.17,-3.75 5.17,-3.75 0,0 -1.6,1.71 -4.93,4.12 -3.33,2.32 -8.55,5.43 -15.65,6.6 -7.09,1.26 -15.37,0.2 -23.6,2.27z"/>
     <path class="fil1" d="M1099.1 619.23c0.96,2.43 1.36,4.63 1.71,6.13 2.13,1.05 4.08,2.26 5.72,3.45 2.34,1.65 3.71,3.77 4.51,5.15 0.1,0.22 0.18,0.4 0.27,0.59 6.08,-3.04 11.35,-5.59 15.47,-7.68 0.34,-0.16 0.65,-0.31 0.98,-0.47 -8.89,-3.74 -18.3,-11.25 -25.95,-15.32 -3.26,-1.74 -6.46,-3.46 -9.65,-5.07 1.26,1.61 2.35,3.26 3.24,4.89 1.69,2.94 2.71,5.82 3.7,8.33z"/>
     <path class="fil1" d="M1062.51 622.11c0.46,0.42 0.93,0.85 1.4,1.29 1.15,-0.61 2.52,-1.13 4.02,-1.4 2.65,-0.54 5.81,-1.26 9.23,-1.35 3.43,-0.2 7.09,0.12 10.71,0.64 3.6,0.68 7.16,1.56 10.33,2.89 0.23,0.1 0.45,0.21 0.68,0.3 -0.76,-1.02 -1.74,-2.19 -2.81,-3.51 -1.65,-1.92 -3.72,-4.32 -5.69,-6.62 -2.03,-2.35 -4.11,-4.76 -6.47,-6.57 -2.22,-1.96 -4.84,-3.24 -7.49,-4.44 -2.68,-1.07 -5.38,-2.2 -7.83,-2.84 -2.43,-0.64 -4.51,-1.63 -5.99,-2.04 -0.69,-0.27 -1.23,-0.48 -1.62,-0.64 -4.64,-0.06 -9.35,-0.61 -13.81,0.28 0.48,3.18 1.4,6.45 2.89,9.58 2.55,5.31 7.1,9.78 12.45,14.43z"/>
     <path class="fil1" d="M1110.15 634.71c-1.14,-0.98 -3.14,-1.79 -5.41,-2.67 -2.29,-0.91 -5.19,-1.34 -8.32,-1.98 -3.12,-0.56 -6.38,-1.34 -9.7,-1.77 -3.29,-0.62 -6.62,-0.98 -9.76,-1.37 -3.14,-0.32 -6.12,-0.82 -8.7,-0.92 -0.6,-0.03 -1.17,-0.07 -1.71,-0.11 3.91,3.83 7.67,8.21 9.4,13.53 0.63,1.74 1.07,3.56 1.15,5.38 0.17,1.79 0.15,3.58 -0.17,5.27 -0.22,1.4 -0.66,2.68 -1.15,3.88 1.47,-1.01 2.97,-1.96 4.48,-2.82 6.58,-3.72 12.78,-7.22 18.52,-10.15 4.15,-2.2 8.06,-4.2 11.7,-6.02 -0.11,-0.08 -0.2,-0.16 -0.33,-0.25z"/>
     <path class="fil1" d="M1239.82 789c-4.09,-1.79 -7.96,-1.54 -11.92,-0.23 -0.54,0.54 -1.08,1.08 -1.72,1.63 -3.51,3.02 -8.24,5.68 -13.36,8.1 -5.09,2.42 -10.58,5.03 -16.44,6.93 -5.87,1.9 -12.14,2.69 -17.88,2.52 -5.77,-0.1 -11.04,-1.08 -15.49,-1.99 -4.45,-0.91 -8.06,-2.05 -10.6,-2.76 -2.53,-0.78 -3.97,-1.22 -3.97,-1.22 0,0 1.5,0.22 4.11,0.61 2.57,0.37 6.51,0.95 10.78,1.57 4.44,0.63 9.65,1.08 15.18,1.03 5.54,-0.06 11.36,-0.8 16.96,-2.64 5.63,-1.72 11.09,-4.21 16.29,-6.39 3.93,-1.65 7.59,-3.31 10.69,-5.15 -0.19,0 -0.38,0.06 -0.57,0.02 -2.36,-0.49 -4.39,-4.54 -6.11,-6.16 -2.45,-2.32 -4.97,-4.62 -7.51,-6.85 -5.48,-4.81 -11.3,-9.25 -17.44,-13.18 -11.75,-7.5 -25.78,-14.13 -40.06,-13.29 -7.9,0.47 -17.09,4.99 -23.02,10.92 3.11,-19.6 3.98,-39.84 5.66,-60.39 2,-24.35 5.65,-49.81 0.48,-73.71 -0.89,-0.16 -1.81,-0.46 -2.72,-0.73 0.35,4.14 0.08,8.71 -0.48,13.5 -1.33,10.49 -1.89,22.8 -2.37,36 -0.42,13.2 -0.74,27.3 -0.91,41.44 -0.29,14.16 -0.73,28.22 -0.03,41.3 0.33,6.51 1.16,12.81 1.52,19.03 0.39,6.19 -0.05,12.24 -1.22,17.52 -0.74,3.47 -1.7,6.62 -2.74,9.52 8.87,0.75 17.5,2.51 25.41,4.97 8.37,2.55 15.83,5.92 22.42,9.13 1.21,0.08 2.41,0.17 3.57,0.31 11.31,1.34 21.39,1.28 32.49,-0.84 0.62,-0.27 1.25,-0.54 1.85,-0.8 1.8,-0.72 3.84,-1.71 6.04,-2.69 2.19,-1.03 4.57,-1.93 6.39,-3.37 1.84,-1.37 3.27,-3.45 4.81,-5.38 1.48,-1.97 3.31,-3.7 5.04,-4.78 1.72,-1.13 3.39,-1.57 4.49,-1.87 1.14,-0.26 1.79,-0.33 1.79,-0.33 0,0 -0.63,0.2 -1.63,0.74 -1.02,0.5 -2.34,1.43 -3.74,2.67 -1.45,1.21 -2.63,2.98 -3.93,5.01 -1.3,2.01 -2.76,4.38 -5.05,6.23 -0.79,0.6 -1.61,1.1 -2.44,1.54 2.65,-0.73 5.28,-1.54 7.82,-2.58 6.08,-2.49 15.18,-7.98 16.04,-15.19 0.58,-4.84 -2.16,-7.82 -6.48,-9.72z"/>
     <path class="fil1" d="M900.29 817.32c2.91,-0.11 5.96,-0.29 9.1,-0.05 6.28,0.72 11.96,2.02 17.95,2.1 5.92,0.17 11.99,-0.59 18.13,-0.57 1.44,0.01 2.86,0.08 4.28,0.18 -0.08,-0.2 -0.16,-0.38 -0.24,-0.58 -2.17,-5.46 -4.94,-11.75 -7.5,-18.64 -2.64,-6.86 -5.2,-14.26 -7.76,-21.67 -2.41,-7.45 -4.86,-14.89 -6.87,-21.96 -1.51,-5.07 -2.51,-9.86 -3.91,-13.96 -10.32,-7.9 -22.65,-13.58 -34.3,-18.09 -21.61,-8.35 -37.48,-9.37 -60.03,-7.33 -9.79,0.89 -24.07,-3.33 -23.04,9.31 7.79,6.63 17.47,4.14 25.89,8.48 -0.65,-0.97 -1.34,-1.92 -2.14,-2.78 -1.23,-1.45 -2.71,-2.71 -4.15,-3.85 -1.46,-1.11 -2.88,-2.15 -4.18,-2.92 -1.03,-0.65 -2.39,-1.51 -3.11,-1.96 -0.76,-0.48 -1.2,-0.75 -1.2,-0.75 0,0 0.5,0.13 1.37,0.35 0.86,0.27 2.12,0.56 3.55,1.15 1.43,0.59 3.13,1.27 4.82,2.29 1.7,1 3.4,2.31 4.89,3.88 1.45,1.59 2.67,3.38 3.53,5.17 0.51,0.99 0.86,1.98 1.17,2.93 5.4,5.62 10.46,15.5 12.53,20.16 7.21,16.24 11.56,31.16 23.6,44.92 4.83,5.52 10.43,10.19 16.48,14.25 0.85,0.02 1.66,0.09 2.51,0.09 2.83,0.01 5.71,-0.05 8.63,-0.15zm-43.51 -66.53c-1.06,-0.62 -2.62,-1.53 -4.21,-2.99 -1.58,-1.45 -3.36,-3.27 -4.9,-5.47 -1.59,-2.17 -2.99,-4.64 -4.44,-7.02 -1.41,-2.41 -2.79,-4.77 -4.19,-6.89 -1.42,-2.1 -2.8,-4.02 -4.23,-5.46 -1.42,-1.43 -2.69,-2.6 -3.71,-3.27 -0.97,-0.74 -1.6,-1.08 -1.6,-1.08 0,0 0.7,0.11 1.9,0.49 1.17,0.43 2.91,1.11 4.65,2.44 1.73,1.33 3.63,3.08 5.26,5.25 1.68,2.14 3.1,4.64 4.42,7.12 1.28,2.51 2.57,4.95 3.84,7.19 1.29,2.21 2.55,4.27 3.89,5.83 1.34,1.56 2.56,2.81 3.5,3.58 0.93,0.8 1.53,1.18 1.53,1.18 0,0 -0.63,-0.32 -1.71,-0.9z"/>
     <path class="fil1" d="M1148.69 816.82c-9.99,-2.49 -20.84,-4.3 -31.7,-4.25 -10.86,-0.07 -21.71,1.53 -31.57,4.27 -9.88,2.67 -18.86,6.31 -26.08,10.34 -7.21,4.04 -13.11,7.82 -16.89,10.92 -2.02,1.4 -3.42,2.73 -4.47,3.53 -1.02,0.84 -1.56,1.29 -1.56,1.29 0,0 0.45,-0.54 1.31,-1.54 0.89,-0.97 2.06,-2.55 3.81,-4.29 3.44,-3.55 8.62,-8.49 15.77,-13.24 7.13,-4.72 15.99,-9.68 26.31,-12.97 10.25,-3.47 21.81,-5.27 33.4,-5.33 1.86,0.02 3.7,0.16 5.55,0.28 0.77,-3.08 1.47,-6.39 1.99,-9.94 0.72,-5.16 0.78,-10.7 0.03,-16.61 -0.72,-5.9 -1.95,-12.28 -2.53,-19 -1.32,-13.41 -1.04,-27.67 -0.96,-41.8 0.25,-14.15 0.53,-28.35 1.52,-41.65 0.89,-13.29 2.61,-25.67 4.1,-36.21 0.71,-4.82 1.32,-9.16 1.38,-13.07 -0.24,0.15 -0.45,0.29 -0.69,0.44 -6.46,3.95 -15.53,9.86 -26.7,16.44 -11.12,6.75 -24.23,13.89 -34.73,25.82 -10.71,11.56 -20.15,26.19 -29,40.69 -4.29,7.27 -7.87,14.75 -9.66,22.65 -1.91,7.88 -2.34,16.05 -2.42,24.01 0.04,15.93 1.27,31.33 -0.63,44.49 -0.87,6.56 -2.36,12.45 -4.31,17.5 -2.01,5.04 -4.51,9.01 -6.65,12.16 -4.5,6.16 -7.45,9.32 -7.45,9.32 0,0 0.61,-0.89 1.75,-2.56 1.11,-1.7 2.76,-4.17 4.55,-7.48 1.85,-3.26 3.87,-7.36 5.3,-12.29 1.39,-4.94 2.36,-10.75 2.88,-17.07 1.22,-12.69 -1.16,-27.55 -1.65,-43.99 -0.22,-8.21 0.03,-16.91 2,-25.62 1.85,-8.78 5.79,-17.11 10.3,-24.66 4.64,-7.55 9.51,-14.63 14.52,-21.64 5.04,-6.97 10.28,-13.72 16.1,-19.65 2.74,-2.83 5.61,-5.49 8.57,-7.93 0.21,-0.37 0.43,-0.71 0.64,-1.09 2.48,-4.43 3.12,-10.31 -0.11,-15.37 -1.44,-2.55 -3.37,-5 -5.53,-7.35 -2.17,-2.3 -4.81,-4.51 -7.5,-6.79 -2.64,-2.35 -5.41,-4.79 -7.89,-7.63 -2.48,-2.82 -4.55,-6.2 -5.85,-9.61 -1.37,-3.44 -1.99,-6.92 -2.1,-10.22 -0.19,0.11 -0.38,0.18 -0.57,0.3 -7.52,4.85 -14.42,10.73 -21.78,15.92 -5.3,3.74 -9.98,8.12 -14.52,12.67 -4.91,4.94 -7.37,10.06 -13.31,13.88 -7.45,4.79 -14.17,11.74 -20.38,18.02 -15.97,16.17 -27.3,31.37 -35.07,53.03 -3.02,8.41 -6.1,16.87 -8.21,25.43 2.3,4.47 4.14,9.58 6.03,14.69 2.58,6.86 5.02,14.28 7.5,21.68 2.33,7.45 4.65,14.9 6.59,21.97 2.03,7.04 3.54,13.74 5.03,19.43 0.17,0.69 0.33,1.35 0.49,1.97 1.92,0.27 3.69,0.62 5.23,1.03 1.49,0.28 2.96,0.6 4.4,0.96 11.34,2.74 21.06,7.64 29.08,12.07 8.02,4.5 14.29,8.87 18.71,11.85 3.38,2.36 5.62,3.93 6.48,4.53 0.98,0.06 1.95,0.11 2.87,0.16 4.42,0.26 8.09,0.63 10.67,0.83 2.57,0.21 4.04,0.34 4.04,0.34 0,0 -1.47,0.07 -4.05,0.18 -2.58,0.1 -6.27,0.32 -10.69,0.4 -4.42,0.06 -9.57,0.22 -15.09,0.21 -5.53,0.11 -11.47,-0.35 -16.98,0.59 -5.59,0.75 -10.24,3.93 -14.26,7.58 -4,3.64 -7.75,7.41 -11.6,9.85 -3.78,2.54 -7.57,3.58 -10.19,3.75 -1.32,0.07 -2.34,-0.04 -3.03,-0.14 -0.68,-0.12 -1.05,-0.19 -1.05,-0.19 0,0 0.37,0.01 1.06,0.03 0.69,0 1.7,-0.07 2.94,-0.33 2.5,-0.43 5.82,-1.98 9.23,-4.6 3.5,-2.54 6.69,-6.51 10.72,-10.43 2.01,-1.95 4.25,-3.92 6.91,-5.49 2.63,-1.59 5.7,-2.65 8.74,-3.16 6.15,-0.95 12.07,-0.39 17.56,-0.23 4.34,0.17 8.43,0.42 12.13,0.64 -0.95,-0.56 -3.28,-1.95 -6.73,-4 -4.58,-2.72 -11.18,-6.55 -19.27,-10.7 -8.1,-4.11 -17.89,-8.37 -28.88,-10.78 -5.48,-1.2 -11.24,-1.89 -17.1,-1.88 -5.86,0.05 -11.94,0.86 -18.22,0.74 -6.24,-0.1 -12.53,-1.52 -18.15,-2.2 -5.66,-0.36 -11.76,0.22 -17.49,-0.05 -4.75,-0.1 -9.34,-0.57 -13.74,-1.31 -6.25,0.25 -12.49,0.57 -18.67,1.16 -16.75,1.59 -34.73,6 -45.13,19.22 13.62,4.15 27.9,8.72 37.56,19.17 2.38,2.57 4.43,5.45 7.03,7.8 2.8,2.52 6.14,4.34 9.46,6.13 9,4.88 18.17,9.83 28.2,11.94 19.61,4.12 39.82,-3.05 59.85,-2.41 1.23,0.04 2.47,0.1 3.7,0.19 -5.54,10.98 -11.49,21.72 -18.16,32 -20.95,32.27 -49.3,59.94 -77.84,85.72 -1.55,1.4 -3.12,2.77 -4.68,4.16l-0.77 -0.5 -3.21 -2.17c-2.09,-1.47 -4.16,-2.95 -6.09,-4.51 0.14,2.47 0.14,5.02 0.11,7.58l-0.11 3.87 -0.09 1.96 0.01 0.95 0.01 0.47c0.03,0.14 -0.13,0.38 0.55,0.19l1.74 -0.89c-27.42,23.87 -56.02,46.1 -85.1,67.99 -6.44,4.85 -12.86,9.86 -18.89,15.27 1.53,-8.99 2.95,-18 4.22,-27.03 1.74,-12.34 3.26,-24.71 4.7,-37.08 1.12,-1 2.25,-1.98 3.39,-2.91 2.52,-2.07 5.08,-3.98 7.69,-5.74 -3.15,-0.05 -6.34,-0.25 -9.58,-0.61 -0.14,-0.02 -0.29,-0.04 -0.44,-0.06 4.88,-43.98 8.23,-88.17 11.53,-132.3 0.56,-0.43 1.1,-0.9 1.67,-1.3 2.8,-1.99 5.77,-3.71 8.85,-5.11l-9.91 -1.76c0.74,-9.95 1.49,-19.89 2.26,-29.83 5.63,-72.95 12.59,-145.98 16.03,-219.07l0.75 -0.66c2.07,-1.89 4,-3.77 5.83,-5.62 -2.09,-0.01 -4.17,-0.23 -6.23,-0.58 0.23,-4.72 0.49,-9.43 0.76,-14.16 8.83,-3.57 17.33,-7.29 25.94,-13.01 6.17,-4.11 9.08,-7.39 10.59,-11.41 15.18,-2.91 31.16,-1.89 46.72,-1.56 25.34,0.52 44.49,0.93 67.44,-11.24 9.18,-4.86 17,-9.03 27.04,-12.3 15.05,-4.9 22.17,-10.65 34.1,-20.3 8.03,-6.48 17.53,-11.62 26.55,-16.76 7.03,-4 19.4,-4.39 25.02,-8.92 -0.21,-0.92 -0.81,-2.47 -1.17,-3.35 -15.35,-0.72 -30.03,1.23 -45.06,4.42 -16.09,3.42 -27.74,17.74 -44.14,22.92 -11.81,3.72 -26.65,3.75 -39.13,4.69 -17.8,1.34 -34.6,7.86 -52.59,8.7 15.04,-9.72 28.32,-24.04 36.21,-38.78 9.81,-18.28 12.81,-38.5 21.52,-56.82 2.9,-6.1 7.05,-11.51 11.38,-17.15 8.47,-11.01 16.12,-21.06 22.98,-33.07 5.23,-9.15 12.77,-18.68 16.24,-28.49 11.19,-31.66 -20.44,-10.33 -33.64,-10.62 -0.02,-0.08 -0.01,-0.17 -0.03,-0.25 -0.68,0.39 -1.29,0.77 -1.99,1.16 -9.84,5.52 -21.57,11.76 -35,16.63 -13.42,4.99 -28.18,8.1 -41.91,13.11 -6.9,2.44 -13.51,5.4 -19.52,9.11 -6.03,3.72 -11.48,8.15 -16.24,12.94 -9.53,9.63 -16.03,20.85 -20.22,31.09 -4.1,10.04 -6.9,18.81 -8.66,25.08 -0.94,9.08 -3.82,17.11 -6.32,24.37 -5.99,16.14 -11.4,29.43 -14.98,38.8 -3.77,9.29 -5.93,14.59 -5.93,14.59 0,0 1.66,-5.49 4.56,-15.1 3.08,-9.53 7.2,-23.24 12.64,-39.49 2.55,-8.15 5.26,-17.06 5.37,-26.43 0.05,-9.33 -2.84,-19.37 -4.96,-29.91 -1.13,-5.25 -2.28,-10.58 -3.44,-15.98 -1.18,-5.41 -2.21,-10.89 -3.68,-16.12 -1.43,-5.28 -3.52,-10.11 -6.33,-14.89 -2.78,-4.78 -6.05,-9.46 -9.07,-14.51 -3,-5.03 -5.7,-10.57 -7.1,-16.61 -1.31,-6.02 -1.36,-11.62 -3.34,-16.07 -1.89,-4.52 -5.57,-8.27 -9.72,-11.43 -4.18,-3.16 -8.9,-5.83 -13.5,-8.55 -2.95,-1.71 -5.84,-3.3 -8.75,-4.92 -1.3,-0.47 -2.65,-0.98 -4.08,-1.58 -4.64,-1.95 -9.95,-4.7 -14.95,-8.6 -8.46,-4.28 -16.6,-8.12 -24.23,-11.41 -7.83,-3.41 -15.18,-6.28 -21.5,-9.42 -6.32,-3.08 -11.6,-6.36 -15.46,-9.65 -3.86,-3.3 -6.27,-6.52 -7.64,-8.83 -0.75,-1.12 -1.14,-2.08 -1.47,-2.7 -0.31,-0.62 -0.47,-0.94 -0.47,-0.94 0,0 0.18,0.32 0.53,0.91 0.36,0.59 0.81,1.52 1.62,2.59 1.5,2.2 4.08,5.22 8.08,8.16 3.93,3.03 9.27,5.9 15.7,8.47 6.41,2.58 13.93,4.97 21.95,8.18 3.97,1.56 8.1,3.24 12.35,5.04 -1.81,-1.88 -3.6,-3.78 -5.35,-5.72 -4.74,-5.31 -9.39,-10.71 -13.35,-16.08 -0.05,-0.07 -0.1,-0.14 -0.15,-0.21 -0.06,0.06 -0.11,0.12 -0.17,0.17 -7.5,-10.82 -24.6,-30.77 -40.23,-25.17 -15.69,5.63 -11.85,24.88 -8.03,37.21 8.26,26.7 27.59,50.49 22.49,79.82 -4.73,27.19 -14.25,62 -3.71,88.81 7.47,19.02 19.51,43.63 36.45,55.61 12.31,8.71 23.2,19.16 34.44,29.16 4.33,1.56 8.99,3.08 13.92,4.6 8.13,2.42 16.75,5.32 25.47,7.28 8.71,2.11 17.64,2.52 26.12,2.46 8.46,-0.06 16.44,-0.26 23.28,0.12 6.85,0.33 12.49,1.47 16.32,2.53 1.93,0.52 3.4,1.08 4.39,1.45 1,0.36 1.53,0.56 1.53,0.56 0,0 -0.54,-0.15 -1.57,-0.44 -1.02,-0.29 -2.52,-0.71 -4.47,-1.05 -3.87,-0.82 -9.5,-1.35 -16.25,-1.4 -6.77,-0.11 -14.65,0.58 -23.19,0.84 -8.51,0.33 -17.84,0.06 -26.84,-1.99 -4.47,-1 -8.85,-2.22 -13.12,-3.51 -0.16,0.31 -0.34,0.66 -0.55,1.07 -0.82,1.55 -2.13,4.08 -3.44,6.58 -1.51,2.68 -3.13,5.88 -5.06,9.19 -1.91,3.33 -4.02,6.83 -6.14,10.33 -2.17,3.47 -4.32,6.94 -6.45,10.14 -0.39,0.6 -0.76,1.14 -1.15,1.71 -4.45,8.84 -9.21,17.52 -13.27,26.63 -3.43,7.7 -5.66,15.44 -8.38,23.37 -3.6,10.52 -10.63,18.94 -15.6,28.86 -11.9,23.74 -36.96,36.81 -39.77,65.45 12.96,-10.06 27.77,-18.82 41,-29.29 18.06,-14.31 24.43,-28.35 33.21,-49.34 8.64,-20.65 25.11,-33.4 44.43,-42.92 -2.99,28.19 -6.02,56.37 -8.69,84.6 -0.18,1.95 -0.35,3.91 -0.53,5.87 -0.64,0.19 -1.28,0.41 -1.92,0.59 -2.66,0.8 -5.32,1.56 -7.95,2.12 2.36,1.28 4.7,2.76 7.02,4.28 0.7,0.45 1.39,0.93 2.08,1.38 -2.94,31.8 -5.73,63.62 -8.55,95.43 -4.31,48.59 -7.89,97.31 -12.31,145.93 -2.2,0.44 -4.42,0.76 -6.62,0.78 2.03,1.24 4.08,2.62 6.18,4.05 -2.05,22.22 -4.26,44.43 -6.84,66.59 -0.15,1.28 -0.35,2.56 -0.5,3.85 -0.29,-3.32 -0.54,-6.65 -0.75,-9.98 -0.81,-12.86 -1.14,-25.76 -2.11,-38.61 -0.95,-12.61 -4.05,-24.73 -7.26,-36.92 -3.1,-11.77 -8.15,-22.37 -14.51,-32.14 0.45,0.04 0.85,0.07 1.32,0.11 -0.44,-1.55 -0.85,-2.98 -1.23,-4.29 -0.34,-1.43 -0.67,-1.83 -0.9,-2.75 -0.4,-1.62 -0.41,-3.42 0.09,-5.18 0.99,-3.54 3.57,-6.11 6.69,-7.57 -1.76,-3 -2.35,-6.59 -1.71,-10.17 0.68,-3.57 2.32,-6.85 4.99,-9.03 -2.47,-2.41 -3.97,-5.73 -3.95,-9.38 0.03,-3.65 1.57,-6.95 4.05,-9.36 -2.63,-2.24 -4.38,-5.43 -4.76,-9.06 -0.38,-3.63 0.63,-7.1 2.67,-9.94 -2.98,-1.82 -5.28,-4.62 -6.29,-8.13 -1.01,-3.51 -0.55,-7.11 1.02,-10.22 -3.22,-1.32 -5.91,-3.75 -7.45,-7.06 -1.52,-3.32 -1.61,-6.94 -0.55,-10.25 -3.37,-0.83 -6.41,-2.81 -8.48,-5.81 -2.04,-3.03 -2.77,-6.57 -2.39,-10.05 -1.74,-0.1 -3.45,-0.49 -5.09,-1.13 -1.59,-0.69 -3.12,-1.59 -4.51,-2.78 -2.73,-2.43 -4.08,-5.91 -4.56,-9.25 -3.54,0.72 -6.91,-0.13 -10.15,-1.84 -3.15,-1.84 -5.19,-4.94 -6.28,-8.15 -3.29,1.36 -6.81,1.23 -10.28,0.08 -3.41,-1.29 -5.97,-3.96 -7.51,-6.98 -3.02,1.84 -6.53,2.31 -10.12,1.63 -3.56,-0.8 -6.45,-3.11 -8.33,-5.94 -2.74,2.2 -6.19,3.1 -9.83,2.77 -3.63,-0.4 -6.73,-2.42 -8.84,-5.08 -2.52,2.43 -5.88,3.69 -9.54,3.6 -3.64,-0.1 -6.89,-1.9 -9.16,-4.42 -2.33,2.57 -5.61,4.11 -9.27,4.17 -3.65,0.09 -6.98,-1.49 -9.36,-3.94 -2.2,2.66 -5.42,4.37 -9.06,4.56 -3.65,0.2 -7.03,-1.24 -9.46,-3.65 -2.12,2.7 -5.3,4.52 -8.94,4.75 -3.65,0.24 -7.03,-1.19 -9.43,-3.62 -2.13,2.69 -5.32,4.47 -8.97,4.68 -3.65,0.21 -7.03,-1.2 -9.49,-3.59 -2.11,2.7 -5.26,4.55 -8.9,4.87 -3.64,0.31 -7.06,-0.92 -9.66,-3.21 -2,2.84 -5.04,4.82 -8.65,5.41 -3.6,0.58 -7.11,-0.41 -9.93,-2.41 -1.76,2.97 -4.58,5.29 -8.09,6.27 -1.75,0.53 -3.55,0.56 -5.26,0.41 -1.35,-0.31 -4.31,-0.41 -7.6,-0.65 1.08,3.12 1.94,5.91 2.59,7.15 0.64,1.63 0.86,3.37 0.84,5.2 0.04,3.65 -1.76,6.94 -4.09,9.39 2.73,2.24 4.34,5.41 4.86,9.03 0.22,1.82 0,3.59 -0.51,5.26 -0.44,1.66 -1.22,3.23 -2.27,4.61 2.87,1.88 5.15,4.73 6.05,8.27 0.81,3.56 0.38,7.1 -1.42,10.17 3.17,1.43 5.81,3.96 7.13,7.36 1.46,3.34 1.19,7.05 -0.01,10.24 3.36,0.99 6.18,3.21 8.04,6.36 1.73,3.21 2.16,6.78 1.26,10.16 3.35,0.63 6.63,2.34 8.73,5.33 2.18,2.93 2.95,6.49 2.45,9.94 3.53,0.11 6.78,1.62 9.3,4.27 2.5,2.67 3.61,6.16 3.55,9.58 3.43,-0.18 6.91,0.88 9.68,3.27 2.69,2.47 4.29,5.67 4.49,9.18 3.38,-0.52 7.04,0.08 9.95,2.28 3.02,2.05 4.79,5.28 5.38,8.67 3.39,-0.96 6.94,-0.48 10.14,1.28 3.16,1.84 5.26,4.83 6.17,8.13 3.23,-1.17 6.87,-1.16 10.2,0.35 3.28,1.6 5.72,4.22 6.89,7.53 3.1,-1.45 6.78,-1.88 10.19,-0.58 3.47,1.12 6.07,3.75 7.58,6.83 2.98,-1.86 6.52,-2.37 10.09,-1.58 3.55,0.9 6.4,3.17 8.21,6.09 2.77,-2.02 6.28,-3.07 9.89,-2.55 3.62,0.57 6.66,2.53 8.64,5.36 2.58,-2.27 6.03,-3.48 9.66,-3.18 3.64,0.32 6.81,2.08 9.11,4.7 2.42,-2.49 5.68,-4.11 9.32,-4.32 3.65,-0.22 7.07,0.9 9.91,3.02 1.93,-2.98 4.73,-5.24 8.2,-6.37 3.46,-1.15 7.07,-0.96 10.39,0.24 1.06,-3.37 3.08,-6.37 6.13,-8.38 3.03,-2.03 6.66,-2.63 9.94,-1.75 0.4,-3.35 2.27,-6.54 5.49,-8.3 0.31,-0.17 0.65,-0.24 0.97,-0.38 5.4,7.97 9.86,16.61 12.97,26.21 1.79,5.53 3.33,11.2 3.95,16.98 0.68,6.31 0.65,12.6 1.11,18.9 0.9,12.31 1.32,24.61 1.67,36.94 0,0.03 0,0.06 0,0.09 -10.4,-5.42 -22.68,-7.56 -34.17,-8.62 -8.57,-0.78 -17.24,-1.43 -25.87,-1.4 -2.33,-2.37 -3.58,-5.47 -3.88,-8.64 -1.72,0.29 -3.44,0.25 -5.11,-0.1 -1.72,-0.28 -3.36,-0.9 -4.86,-1.91 -3.02,-1.95 -5.08,-4.86 -6.04,-8.25 -3.33,1.35 -6.81,1.31 -10.25,0.24 -3.35,-1.33 -6.13,-3.39 -7.95,-6.55 -1.42,1.03 -3.01,1.9 -4.66,2.38 -1.65,0.45 -3.37,0.67 -5.18,0.67 -3.59,-0.28 -6.84,-1.55 -9.51,-3.94 -1.08,1.29 -2.33,2.64 -3.76,3.6 -1.42,1.04 -3.06,1.54 -4.78,2.11 -1.74,0.48 -3.49,0.55 -5.23,0.28 -1.71,-0.19 -3.36,-0.62 -4.93,-1.4 -0.63,1.64 -1.58,3.04 -2.71,4.36 -1.11,1.35 -2.46,2.47 -4.08,3.27 -3.23,1.59 -6.7,2.05 -10.14,1.06 -0.55,3.38 -2.3,6.52 -5.26,8.59 -2.93,2.09 -6.46,2.75 -9.86,2.14 -0.23,3.44 -1.72,6.71 -4.45,9.07 -2.7,2.37 -6.13,3.42 -9.6,3.23 0.17,3.47 -0.89,6.9 -3.26,9.61 -2.33,2.74 -5.54,4.31 -9.02,4.74 0.74,3.43 0.31,6.97 -1.44,10.11 -1.73,3.15 -4.5,5.42 -7.78,6.67 1.51,3.12 1.91,6.68 0.82,10.12 -1.07,3.43 -3.5,6.11 -6.55,7.66 1.88,2.86 2.68,6.38 1.83,9.89 -0.83,3.5 -3.14,6.29 -6.16,7.86 1.98,2.76 2.78,6.3 1.85,9.78 -0.45,1.74 -1.26,3.11 -2.66,5.29 -1.6,2.38 -3.54,5.28 -5.83,8.67l0.02 0.05c3.76,-1.76 6.98,-3.26 9.65,-4.5 2.42,-1.09 3.91,-1.73 5.78,-1.98 3.75,-0.27 7.24,1.07 9.6,3.49 2.17,-2.59 5.52,-4.29 9.27,-4.33 3.76,0.06 7.11,1.72 9.33,4.33 2.39,-2.48 5.82,-3.97 9.57,-3.84 3.75,0.13 7.06,1.87 9.33,4.49 2.44,-2.52 5.83,-4.05 9.58,-4.01 3.75,-0.09 7.14,1.52 9.66,3.95 2.28,-2.77 5.52,-4.5 9.23,-4.95 3.69,-0.65 7.3,0.7 10.24,2.45 0.91,-1.55 2.08,-2.93 3.46,-4.04 0.69,-0.55 1.43,-1.03 2.23,-1.43 0.78,-0.47 1.59,-0.93 2.47,-1.26 1.74,-0.69 3.55,-0.97 5.37,-0.92 1.82,0.07 3.51,0.12 5.24,0.67 0.95,-3.45 3.04,-6.27 5.79,-8.75 0.13,-0.09 0.26,-0.18 0.38,-0.27 1.41,-1.06 2.97,-1.8 4.62,-2.29 1.6,-0.66 3.34,-1 5.12,-1.03 -0.16,-3.6 1.01,-6.95 2.97,-10.14 0.01,-0.03 0.03,-0.04 0.05,-0.07 2.1,-3.03 5.48,-4.96 8.78,-5.72 -1,-3.33 -0.69,-7.05 1.14,-10.32 1.83,-3.27 4.81,-5.48 8.17,-6.47 -1.21,-3.3 -1.18,-7.01 0.27,-10.46 1.5,-3.35 3.98,-6.28 6.95,-8.12 -1.97,-2.84 -3,-6.45 -1.67,-10.01 0.58,-1.44 1.24,-2.4 2.19,-3.26 5.33,0.12 10.67,0.43 16.03,0.75 14.61,0.88 28.78,2.99 40.25,12.1 0.46,8.97 1.18,17.93 2.58,26.82 1.42,8.99 3.29,17.73 4.5,26.56 -3.23,18.82 -6.95,37.53 -10.95,56.18l-3.79 -0.42c-4.18,-0.52 -8.32,-1.13 -12.43,-1.83 3.31,2.52 6.58,5.13 9.81,7.84l4.35 3.74c-0.99,4.48 -1.95,8.97 -2.97,13.44 -0.02,0.06 -0.04,0.11 -0.06,0.16 -1.23,3.03 -1.83,5.7 -1.88,8.24 -5.55,24.01 -11.43,47.97 -17.35,71.96 -5.72,23.13 -11.34,46.27 -16.99,69.41 -0.57,0.04 -1.16,0.06 -1.71,0.12 -2.71,0.25 -5.27,0.58 -7.7,0.97 1.9,1.57 3.59,3.38 5.02,5.37 0.71,1 1.35,2.06 1.93,3.12 0.03,0.04 0.06,0.09 0.09,0.14 -10.91,44.75 -21.76,89.52 -32.57,134.3 -2.19,9.07 -4.38,18.14 -6.57,27.2 -1.76,7.26 4.18,14.77 11.2,16.01 7.82,1.37 14.17,-3.94 16.01,-11.21 11.74,-46.32 23.5,-92.63 35.19,-138.96 1.17,-0.72 2.33,-1.46 3.47,-2.17 3.19,-1.96 6.25,-4.06 9.31,-5.88 -3.47,-0.06 -7,-0.61 -10.45,-1.24 3.95,-15.65 7.89,-31.3 11.79,-46.96 15.49,-32.96 38.98,-63.09 73.32,-76.42 -0.13,1.59 -0.46,3.15 -0.97,4.62 1.69,0.56 3.25,1.43 4.6,2.56 1.45,1.06 2.7,2.4 3.65,4.02 1.93,3.21 2.63,6.82 2.03,10.36 3.63,0.3 6.81,2.01 9.46,4.66 2.5,2.8 3.89,6.18 3.96,9.75 3.47,-0.22 7.15,0.6 10.07,2.94 3.03,2.2 4.83,5.51 5.53,8.91 1.71,-0.43 3.48,-0.52 5.23,-0.29 1.78,0.17 3.53,0.69 5.17,1.61 3.29,1.78 5.61,4.68 6.77,8.02 3.28,-1.41 6.94,-1.48 10.49,-0.27 3.5,1.36 6.28,3.71 7.91,6.92 3.04,-1.91 6.65,-2.57 10.33,-1.89 3.68,0.74 6.68,2.98 8.55,5.88 2.78,-2.1 6.36,-3.08 10.08,-2.53 3.7,0.61 6.82,2.62 8.84,5.46 2.67,-2.2 6.2,-3.44 9.93,-3.06 3.73,0.42 6.97,2.19 9.15,4.96 2.54,-2.36 5.99,-3.87 9.74,-3.66 3.75,0.08 7.09,1.77 9.46,4.34 2.38,-2.61 5.72,-4.19 9.46,-4.34 3.75,-0.18 7.2,1.33 9.76,3.65 2.18,-2.76 5.4,-4.55 9.12,-5.03 3.73,-0.38 7.27,0.74 10.01,2.9 1.98,-2.85 5.03,-5 8.71,-5.71 3.7,-0.64 7.3,0.1 10.2,2.1 1.76,-2.97 4.61,-5.44 8.24,-6.38 3.63,-0.95 7.3,-0.38 10.24,1.47 1.55,-3.09 4.36,-5.56 7.99,-6.55 3.62,-0.99 7.3,-0.29 10.18,1.6 1.6,-3.04 4.48,-5.44 8.14,-6.3 3.66,-0.85 7.31,0.01 10.07,2.07 1.74,-2.97 4.76,-5.21 8.46,-5.81 3.71,-0.62 7.29,0.5 9.88,2.78 1.95,-2.84 5.14,-4.81 8.88,-5.13 0.94,-0.07 1.86,-0.04 2.75,0.08 0.85,0.12 1.74,0.34 2.94,0.64 2.57,0.7 5.66,1.54 9.28,2.52 -2.08,-3.14 -3.85,-5.82 -5.32,-8.05 -0.67,-1.05 -1.17,-1.77 -1.59,-2.54 -0.42,-0.8 -0.8,-1.64 -1.07,-2.54 -1.08,-3.59 -0.64,-7.28 0.95,-10.4 -3.22,-1.39 -5.91,-3.95 -7.38,-7.4 -1.49,-3.44 -1.44,-7.17 -0.26,-10.47 -3.35,-1.01 -6.37,-3.2 -8.26,-6.43 -1.91,-3.23 -2.4,-6.91 -1.65,-10.34 -3.47,-0.58 -6.77,-2.32 -9.15,-5.2 -2.38,-2.89 -3.41,-6.49 -3.03,-9.94 -3.46,-0.06 -6.91,-1.52 -9.32,-4.4 -2.41,-2.87 -3.21,-6.59 -2.36,-9.86 -3.45,-0.46 -6.71,-2.3 -9,-5.26 -2.29,-2.96 -3.25,-6.53 -3.06,-10.07 -3.56,-0.06 -7.05,-1.28 -9.91,-3.69 -2.83,-2.46 -4.76,-5.5 -5.46,-9.04 -3.39,0.68 -7.19,0.66 -10.5,-1.09 -3.37,-1.64 -5.91,-4.27 -7.26,-7.65 -3.19,1.65 -6.87,2.08 -10.46,0.99 -3.64,-0.89 -6.48,-3.41 -8.31,-6.35 -2.9,2.08 -6.48,2.89 -10.19,2.36 -3.71,-0.49 -6.83,-2.68 -8.95,-5.38 -2.65,2.37 -6.12,3.52 -9.87,3.38 -3.75,-0.17 -7.05,-2.01 -9.39,-4.53 -2.42,2.58 -5.79,4.02 -9.53,4.2 -3.75,0.12 -7.19,-1.41 -9.73,-3.75 -2.21,2.74 -5.44,4.49 -9.16,4.95 -3.74,0.37 -7.28,-0.79 -10.01,-2.93 -1.99,2.85 -5.04,4.98 -8.71,5.73 -3.7,0.64 -7.29,0.01 -10.29,-1.95 -1.7,3.05 -4.48,5.54 -8.03,6.73 -3.56,1.18 -7.25,0.91 -10.45,-0.55 -1.26,3.28 -3.68,6.1 -7.05,7.73 -3.38,1.63 -7.09,1.8 -10.43,0.74 -0.86,3.4 -2.93,6.48 -6.11,8.49 -3.16,2 -6.84,2.58 -10.27,1.88 -0.48,3.47 -2.17,6.79 -5.2,9.02 -3.02,2.23 -6.69,2.93 -10.1,2.29 -0.35,3.47 -2.07,6.77 -5,9.11 -2.94,2.34 -6.53,3.28 -10.02,2.97 -0.12,3.5 -1.47,6.98 -4.06,9.68 -2.56,2.74 -5.92,4.25 -9.45,4.91 0.14,0.81 0.21,1.62 0.24,2.43 -19.85,6.49 -37.72,17.97 -52.86,32.4 -2.8,2.66 -5.47,5.46 -8.04,8.33 4.65,-18.46 9.26,-36.95 13.71,-55.47 1.45,-1.1 2.92,-2.18 4.39,-3.22 3.28,-2.32 6.61,-4.46 9.98,-6.45 -3.91,0.11 -7.87,0.06 -11.88,-0.15 -0.05,0 -0.1,-0.01 -0.15,-0.01 0.41,-1.75 0.84,-3.51 1.26,-5.26 1.07,-2.64 2.13,-5.3 3.28,-7.91 3.62,-8.2 7.6,-16.25 12.06,-24.02 0.99,-1.73 2,-3.45 3.04,-5.14 0.4,-0.65 0.8,-1.29 1.21,-1.93 0.21,-0.32 0.56,-0.86 0.66,-1.01 2.54,-3.67 5.14,-7.29 8,-10.72 5.78,-6.92 10.99,-11.42 17.93,-17.05 5.3,-4.32 10.66,-8.54 16.04,-12.75 0.83,0.17 1.65,0.35 2.45,0.54 4.39,1.05 8.57,2.48 11.85,5.75 -1.46,-4.19 -4.53,-8.02 -7.52,-11.6 8.63,-6.73 17.25,-13.47 25.69,-20.45 16.12,-13.34 31.95,-27.02 47.43,-41.08 15.78,-14.34 31.48,-28.98 46.22,-44.47 0.19,-0.15 0.38,-0.28 0.56,-0.45 11.98,-11.63 28.35,-13.46 44.24,-14.4 4.96,-0.29 9.89,-0.55 14.8,-0.66 0.92,0.84 1.57,1.79 2.13,3.2 1.34,3.56 0.31,7.17 -1.66,10.01 2.97,1.84 5.45,4.77 6.95,8.12 1.44,3.45 1.48,7.16 0.26,10.46 3.37,0.98 6.35,3.2 8.18,6.47 1.83,3.27 2.14,6.99 1.14,10.32 3.3,0.76 6.68,2.68 8.78,5.72 0.02,0.03 0.03,0.05 0.05,0.06 1.96,3.21 3.13,6.55 2.97,10.15 1.77,0.03 3.51,0.37 5.12,1.04 1.65,0.48 3.21,1.22 4.61,2.28 0.13,0.1 0.26,0.18 0.38,0.28 2.76,2.47 4.85,5.29 5.8,8.74 1.72,-0.55 3.41,-0.6 5.24,-0.66 1.82,-0.06 3.62,0.22 5.37,0.91 0.88,0.34 1.69,0.79 2.47,1.26 0.8,0.4 1.54,0.89 2.23,1.44 1.38,1.1 2.55,2.48 3.46,4.03 2.93,-1.75 6.54,-3.1 10.24,-2.45 3.72,0.46 6.95,2.18 9.23,4.96 2.51,-2.43 5.9,-4.04 9.65,-3.96 3.76,-0.03 7.15,1.5 9.58,4.02 2.27,-2.63 5.59,-4.37 9.34,-4.5 3.75,-0.13 7.17,1.36 9.57,3.84 2.23,-2.61 5.57,-4.27 9.33,-4.33 3.75,0.04 7.1,1.74 9.27,4.33 2.36,-2.42 5.85,-3.76 9.6,-3.49 1.87,0.25 3.36,0.89 5.79,1.97 2.66,1.25 5.89,2.75 9.64,4.5l0.02 -0.04c-2.28,-3.39 -4.23,-6.29 -5.83,-8.67 -1.4,-2.17 -2.2,-3.55 -2.66,-5.29 -0.93,-3.49 -0.13,-7.02 1.85,-9.78 -3.01,-1.57 -5.32,-4.36 -6.16,-7.87 -0.84,-3.5 -0.05,-7.02 1.83,-9.88 -3.05,-1.56 -5.48,-4.23 -6.55,-7.67 -1.09,-3.43 -0.7,-6.99 0.82,-10.11 -3.28,-1.25 -6.05,-3.52 -7.77,-6.67 -1.76,-3.14 -2.19,-6.68 -1.45,-10.11 -3.47,-0.43 -6.69,-2 -9.02,-4.74 -2.36,-2.71 -3.43,-6.14 -3.26,-9.61 -3.47,0.19 -6.9,-0.85 -9.6,-3.23 -2.73,-2.35 -4.22,-5.62 -4.45,-9.07 -3.39,0.61 -6.93,-0.05 -9.86,-2.14 -2.96,-2.07 -4.71,-5.21 -5.26,-8.59 -3.44,0.98 -6.91,0.53 -10.14,-1.07 -1.61,-0.79 -2.97,-1.91 -4.08,-3.26 -1.12,-1.32 -2.07,-2.72 -2.71,-4.37 -1.57,0.79 -3.22,1.22 -4.93,1.41 -1.74,0.27 -3.49,0.2 -5.23,-0.29 -1.72,-0.56 -3.36,-1.07 -4.78,-2.1 -1.43,-0.97 -2.68,-2.31 -3.76,-3.61 -2.67,2.39 -5.91,3.66 -9.51,3.94 -1.81,0 -3.53,-0.21 -5.18,-0.67 -1.65,-0.48 -3.24,-1.35 -4.67,-2.38 -1.82,3.16 -4.59,5.22 -7.94,6.55 -3.45,1.07 -6.92,1.11 -10.25,-0.24 -0.97,3.39 -3.02,6.3 -6.04,8.25 -1.5,1 -3.14,1.62 -4.86,1.91 -1.68,0.35 -3.4,0.39 -5.11,0.1 -0.29,3.12 -1.52,6.18 -3.79,8.53 -8.83,-0.03 -17.71,0.7 -26.37,1.52 -5.63,0.54 -11.34,1.37 -16.91,2.66 5.58,-6.8 10.97,-13.76 16,-21 3,-4.33 5.9,-8.75 8.72,-13.23 0.2,-0.01 0.4,-0.01 0.59,-0.03 4.55,-0.4 8.85,-1.34 12.91,-2.17 -3.5,-0.67 -6.81,-2.11 -9.85,-3.85 6.16,-10.27 11.81,-20.86 16.6,-31.79 1.05,-2.4 2.02,-4.84 3.03,-7.26 5.3,-2 10.16,-5.11 15.12,-7.92 9.74,-5.53 20.25,-9.65 31.11,-12.4 2.33,12.13 10.01,23.3 20.68,29.26 15.15,8.45 36.59,11.43 53.6,8.22 15.72,-2.98 31.2,-10.11 47.51,-7.02 3.35,0.64 2.87,-0.65 4.67,3.15 1.98,4.19 2.09,7.66 7.24,8.81 4.27,0.95 10.99,-0.69 15.21,-1.75 7.33,-1.85 13.83,-5.86 20.97,-8.22 3.44,-1.14 6.97,-1.13 10.33,-2.04 3.77,-1.02 7.59,-3.42 11.11,-5.1 12.95,-6.18 4.87,-9.65 -2.77,-17.39 -14.27,-14.49 -29.55,-32.65 -47.58,-43.49 -7.61,-3.05 -16.61,-5.9 -26.26,-8.42zm-204.4 -103.79c0.39,-0.95 0.87,-2.34 1.61,-3.93 0.74,-1.59 1.59,-3.47 2.61,-5.4 1.02,-1.95 2.21,-3.97 3.42,-5.97 1.27,-1.97 2.56,-3.93 3.86,-5.69 1.29,-1.78 2.61,-3.35 3.71,-4.72 1.1,-1.37 2.15,-2.41 2.83,-3.18 0.72,-0.73 1.13,-1.15 1.13,-1.15 0,0 -0.28,0.51 -0.77,1.42 -0.49,0.84 -1.4,2.42 -2.12,3.67 -0.88,1.47 -2.05,3.43 -3.06,5.11 -1.22,1.98 -2.38,3.85 -3.57,5.79 -1.23,1.93 -2.42,3.79 -3.67,5.74 -1.07,1.65 -2.32,3.55 -3.26,4.99 -0.81,1.2 -1.83,2.69 -2.38,3.5 -0.58,0.85 -0.92,1.33 -0.92,1.33 0,0 0.22,-0.55 0.58,-1.51zm-69.72 149.2c-1.29,-1.01 -3.17,-2.55 -4.74,-4.99 -1.57,-2.41 -3.06,-5.59 -3.43,-9.3 -0.22,-1.87 -0.04,-3.71 -0.3,-5.28 -0.21,-1.55 -1.01,-2.85 -2.28,-3.86 -2.44,-2.11 -6.01,-3.33 -9.19,-4.43 -3.22,-1.03 -6.33,-1.83 -9.05,-2.21 -2.71,-0.39 -5.03,-0.69 -6.65,-0.74 -1.64,-0.11 -2.57,-0.07 -2.57,-0.07 0,0 0.92,-0.17 2.54,-0.47 1.62,-0.2 3.98,-0.62 6.84,-0.5 2.84,0.11 6.2,0.37 9.68,1.31 3.41,0.99 7.21,2.03 10.42,4.91 1.5,1.46 2.71,3.57 2.91,5.7 0.24,2.08 -0.06,3.86 0.03,5.47 0.13,3.28 1.01,6.36 2.27,8.75 1.25,2.41 2.66,4.25 3.81,5.4 1.12,1.16 1.88,1.72 1.88,1.72 0,0 -0.83,-0.45 -2.17,-1.41zm-225.3 44.62c8.45,-2.22 16.64,-6.27 21.73,-13l3.14 2.48c-6.21,7.52 -15.31,11.39 -24.16,13.38 -8.98,1.93 -17.93,2.56 -26.84,3.75l-53.51 6.68 53.26 -8.44c8.85,-1.53 17.86,-2.59 26.38,-4.85zm9.85 -23.22c-9.39,-8.51 -19.77,-19.01 -31.22,-29.76 -0.11,-0.1 -0.22,-0.19 -0.32,-0.29 -6.77,5.29 -14.33,9.35 -22.15,12.55 -8.58,3.55 -17.45,6.17 -26.32,8.58 -8.87,2.41 -17.77,4.64 -26.49,7.48 -8.67,2.69 -17.23,7.04 -26.57,6.78 9.34,0.02 17.67,-4.53 26.32,-7.49 8.66,-3.12 17.51,-5.66 26.26,-8.4 8.75,-2.73 17.44,-5.65 25.7,-9.47 7.31,-3.4 14.21,-7.6 20.35,-12.63 -10.67,-9.72 -22.57,-19.1 -35.55,-27.02 -5.29,-3.31 -10.73,-6.35 -16.19,-9.26 -4.82,4.68 -10.59,8.13 -16.48,10.88 -6.59,3 -13.34,5.37 -20.16,7.54 -13.65,4.29 -27.69,7.23 -41.86,8.81 14.1,-2.06 27.97,-5.6 41.29,-10.49 6.65,-2.47 13.25,-5.17 19.46,-8.42 5.25,-2.76 10.1,-6.16 14.18,-10.23 -7.99,-4.11 -16.03,-7.84 -23.92,-11.14 -9.73,-4.02 -19.13,-7.43 -27.96,-10.35 -13.22,12.5 -30.24,20.44 -47.81,23.06 16.88,-3.38 32.3,-12.24 44,-24.33 -2.99,-0.95 -5.91,-1.86 -8.72,-2.69 -12.08,-3.52 -22.24,-6.23 -29.4,-7.96 -7.16,-1.74 -11.25,-2.74 -11.25,-2.74 0,0 4.16,0.68 11.43,1.87 7.23,1.41 17.62,3.28 29.88,6.47 4.47,1.19 9.28,2.54 14.22,4.01 0.71,-3.42 1.44,-6.85 1.82,-10.34 0.5,-4.1 0.72,-8.24 0.66,-12.39 0.41,4.13 0.65,8.28 0.72,12.46 0.02,3.69 0.05,7.43 -0.29,11.13 7.71,2.35 15.79,5.06 24.1,8.34 5.79,2.28 11.67,4.89 17.55,7.67 1.09,-2.9 2.15,-5.84 2.97,-8.85 0.99,-3.58 1.81,-7.22 2.39,-10.92 0.61,-3.69 0.86,-7.43 1.13,-11.2 0.28,-3.76 0.65,-7.57 1.74,-11.18 -0.9,3.67 -1,7.45 -0.97,11.21 0.06,3.76 0.08,7.57 -0.2,11.37 -0.49,7.1 -1.79,14.19 -3.94,21.05 8.04,3.93 16.05,8.28 23.8,13.1 3.17,1.96 6.26,4.04 9.31,6.17 7.87,-19.53 13.74,-39.93 17.45,-60.78 -2.64,21.34 -7.52,42.43 -14.45,62.91 9.69,7 18.73,14.67 26.73,22.54 3.27,3.17 6.38,6.32 9.41,9.43 12.07,-22.14 21.02,-46.2 25.53,-71.24 -3.78,25.54 -11.23,50.71 -22.81,74.05 6.45,6.67 12.48,13.03 18.16,18.48 5.55,5.42 10.71,10.09 15.26,13.89 5.61,-7.23 9.61,-15.76 13.19,-24.4l10.28 -27.53 -8.75 28.11c-3.07,8.95 -6.51,17.97 -11.93,26.11 1.75,1.4 3.4,2.65 4.91,3.73 2.96,2.17 5.34,3.82 7.02,4.84 1.67,1.07 2.55,1.64 2.55,1.64 0,0 -0.91,-0.52 -2.63,-1.48 -1.75,-0.93 -4.24,-2.41 -7.36,-4.39 -6.2,-4.01 -14.74,-10.31 -24.07,-18.89zm-86.91 129.77c3.58,1.72 7.02,3.74 10.32,5.94 1.53,1.08 3.28,1.9 5.04,3.37 0.89,0.72 1.72,1.84 2.22,2.7 0.31,0.52 0.59,0.95 0.85,1.33 1.08,-0.4 2.17,-0.84 3.24,-1.21 9.09,-3.29 17.81,-5.51 25.25,-7.43 2.15,-0.55 4.17,-1.03 6.1,-1.47 -3.17,-6.24 -7.67,-11.91 -13.31,-16.33 -5.98,-4.75 -13.18,-8.18 -20.86,-9.5 7.73,0.95 15.27,3.73 21.9,8.06 6.46,4.26 12.1,10.01 15.96,16.94 3.22,-0.7 6.04,-1.28 8.32,-1.79 4.39,-0.9 6.9,-1.42 6.9,-1.42 0,0 -2.45,0.75 -6.73,2.06 -0.02,0.01 -0.03,0.01 -0.05,0.01 2.54,12.2 1.88,24.77 -1.13,36.49 2.1,-11.91 0.97,-24.16 -2.5,-35.39 -3.85,1.18 -8.59,2.72 -14.02,4.4 -3.85,1.19 -8.03,2.59 -12.4,4.15 4.19,8.98 5.63,18.84 5.62,28.42 -0.04,10.15 -1.64,20.11 -3.18,30.02 1.04,-9.98 2.02,-20.02 1.4,-29.96 -0.57,-9.55 -2.75,-19.08 -7.36,-27.2 -2.83,1.04 -5.7,2.11 -8.66,3.27 -6.69,2.62 -13.6,5.67 -20.34,9.19 0.11,0.18 0.21,0.37 0.33,0.54 0.33,0.54 0.64,1.08 0.93,1.64 0.6,1.1 1.13,2.24 1.59,3.4 0.94,2.32 1.61,4.76 2.05,7.18 0.84,4.86 1.06,9.64 1.08,14.43l0.48 28.67c-0.69,-9.53 -1.51,-19.04 -2.33,-28.52 -0.33,-4.74 -0.86,-9.51 -1.96,-13.99 -0.56,-2.25 -1.31,-4.4 -2.3,-6.45 -0.49,-1.02 -1.04,-2.02 -1.64,-2.98 -0.3,-0.48 -0.61,-0.95 -0.93,-1.41 -0.15,-0.27 -0.37,-0.48 -0.52,-0.74 -1.08,0.6 -2.18,1.17 -3.24,1.79 -6.12,3.5 -11.91,7.5 -17.36,11.65 1.52,3.1 2.4,6.4 2.9,9.65 0.58,3.69 0.74,7.38 0.8,11.03 0.05,7.29 0.03,14.55 0.2,21.82 -0.58,-7.24 -1.31,-14.49 -2.06,-21.71 -0.68,-6.49 -1.75,-13.15 -4.78,-18.51 -1.32,1.05 -2.65,2.09 -3.93,3.15 -7.13,5.94 -13.57,11.81 -18.97,17.06l0.37 -0.22c1.53,3.16 2.52,6.51 3.17,9.86 0.63,3.36 0.86,6.76 0.7,10.1 -0.3,-3.33 -1.07,-6.6 -2.25,-9.66 -1.07,-2.84 -2.56,-5.46 -4.23,-7.9 -4.6,4.49 -8.6,8.39 -11.4,11.13 -3.22,3.12 -5.06,4.9 -5.06,4.9 0,0 1.61,-1.99 4.44,-5.46 2.91,-3.41 6.93,-8.4 12.16,-14.04 1.7,-1.83 3.53,-3.77 5.43,-5.76 -4.03,-3.52 -9.96,-5.49 -15.78,-4.43 5.7,-2 12.56,-1.58 18.26,1.86 3.29,-3.36 6.85,-6.83 10.76,-10.25 4.54,-4.03 9.56,-7.94 14.85,-11.61 -0.2,-0.23 -0.39,-0.47 -0.64,-0.65l-1.46 -1.36c-1.01,-0.88 -2.06,-1.72 -3.15,-2.51 -2.18,-1.58 -4.54,-2.92 -7.01,-4.07 -4.95,-2.28 -10.43,-3.57 -15.98,-3.63 5.54,-0.36 11.19,0.36 16.59,2.07 2.7,0.85 5.32,2 7.83,3.38 1.25,0.7 2.47,1.45 3.67,2.26 1.03,0.8 2.21,1.47 3.02,2.53 2.23,-1.47 4.51,-2.89 6.84,-4.24 6.74,-3.83 13.74,-7.15 20.65,-9.91 -0.64,-1.2 -1.01,-2.2 -1.75,-2.83 -1.14,-1.17 -2.86,-2.24 -4.43,-3.54 -3,-2.44 -6.08,-4.77 -9.39,-6.75 -6.58,-3.92 -14.22,-6.68 -22.09,-6.1 7.81,-0.94 15.81,1.07 22.96,4.48zm298.2 173.91c2.9,-0.05 5.84,-0.02 8.8,0.04 1.56,-5.21 4.48,-9.72 7.69,-13.71 3.42,-4.2 7.07,-8.14 10.94,-11.86 3.87,-3.73 7.95,-7.21 12.21,-10.44 2.13,-1.62 4.31,-3.17 6.53,-4.66 2.2,-1.46 4.59,-2.95 7.29,-3.15 -2.69,0.34 -4.94,1.94 -7.03,3.52 -2.12,1.61 -4.19,3.27 -6.21,5 -4.04,3.45 -7.86,7.15 -11.43,11.05 -3.57,3.9 -6.92,8.02 -9.95,12.31 -2.65,3.77 -4.82,7.83 -5.97,12.06 4.64,0.18 9.33,0.48 14.05,0.9 8.99,0.9 18.06,2.28 27.06,4.02 3.64,-5.07 8.15,-9.38 13,-13.05 5.26,-3.99 10.89,-7.35 16.54,-10.58 5.65,-3.2 11.31,-6.51 17.4,-8.93 6.04,-2.43 12.63,-3.91 19.12,-3.11 -6.52,-0.58 -12.93,1.28 -18.75,3.98 -5.85,2.72 -11.26,6.27 -16.73,9.76 -5.45,3.5 -10.82,7.11 -15.69,11.23 -4.09,3.45 -7.77,7.33 -10.73,11.64 7.85,1.74 15.64,3.69 23.24,5.92 7.03,2.15 13.84,4.48 20.49,6.93 5.76,-7.03 13.35,-12.38 21.66,-15.58 8.81,-3.37 18.09,-4.26 27.21,-5.29 -9.05,1.54 -18.22,3.26 -26.44,7.11 -7.4,3.45 -13.77,8.78 -18.62,15.14 0.37,0.14 0.76,0.27 1.12,0.41 16.27,6.27 30.92,13.34 43.29,19.66 0.48,0.24 0.92,0.48 1.39,0.72l-0.46 -0.48c1.82,-1.78 4.03,-3.1 6.18,-4.39 2.17,-1.27 4.46,-2.31 6.79,-3.19 4.66,-1.76 9.54,-2.72 14.39,-3.03 -4.81,0.77 -9.41,2.48 -13.58,4.8 -2.08,1.15 -4.04,2.5 -5.9,3.95 -1.58,1.19 -2.98,2.58 -4.4,3.92 10.33,5.49 18.75,10.53 24.87,14.15 6.92,4.19 10.88,6.58 10.88,6.58 0,0 -4.03,-2.26 -11.21,-6 -6.33,-3.38 -15.19,-7.82 -25.82,-12.95 -0.63,4.21 -0.74,8.55 -0.14,12.85 0.66,5.04 2.21,10.03 4.64,14.61 -2.88,-4.31 -5.06,-9.14 -6.42,-14.26 -1.23,-4.76 -1.74,-9.78 -1.37,-14.79 -0.29,-0.14 -0.57,-0.27 -0.86,-0.41 -12.5,-5.97 -27.35,-12.35 -43.56,-18.29 -1.14,-0.42 -2.33,-0.8 -3.49,-1.2l0.21 1.06c0.25,1.26 0.55,2.51 0.89,3.76 0.68,2.51 1.51,5 2.38,7.51l5.25 15.08 5.26 15.07 2.65 7.53c0.91,2.47 2.01,4.95 3.93,6.83 -2.01,-1.78 -3.29,-4.23 -4.35,-6.66l-3.12 -7.36 -6.23 -14.7 -6.24 -14.7c-1.03,-2.47 -2.06,-4.96 -2.95,-7.54 -0.44,-1.29 -0.86,-2.6 -1.22,-3.93l-0.21 -0.86c-0.39,-0.21 -0.7,-0.48 -0.82,-0.68 -0.4,-0.7 -0.35,-1.01 -0.36,-1.41 0.01,-0.2 0.05,-0.42 0.13,-0.66 -5.55,-1.88 -11.19,-3.71 -16.98,-5.42 -8.71,-2.47 -17.63,-4.69 -26.64,-6.49 -4.39,-0.86 -8.8,-1.61 -13.21,-2.27 4.09,29.97 19.69,58.69 43.51,78.28 -24.81,-18.94 -42.48,-47.5 -47.92,-78.86 -3.16,-0.42 -6.32,-0.87 -9.46,-1.19 -9,-0.81 -17.88,-1.32 -26.48,-1.32 -1.56,0 -3.09,0.03 -4.63,0.06 1.28,6.45 2.5,12.92 4.48,19.22 2.05,6.85 4.61,13.58 7.65,20.09 6.09,13.01 14.05,25.23 23.75,35.96 -10.05,-10.39 -18.68,-22.23 -25.45,-35.11 -3.39,-6.44 -6.34,-13.13 -8.79,-20.01 -2.25,-6.53 -4.36,-13.19 -5.46,-20.05 -14,0.48 -27.05,2.02 -38.3,4.39 -7.73,1.64 -14.63,3.48 -20.54,5.32 3.24,21.25 13.62,41.6 29.34,56.78 -16.22,-14.43 -27.8,-34.2 -32.47,-55.78 -3.11,1.03 -5.93,2.05 -8.34,3.01 -3.82,1.33 -6.68,2.71 -8.7,3.52 -1.99,0.85 -3.06,1.31 -3.06,1.31 0,0 1.03,-0.54 2.95,-1.54 1.94,-0.97 4.71,-2.58 8.43,-4.19 7.37,-3.38 18.2,-7.77 31.8,-11.01 1.87,-0.43 3.79,-0.85 5.75,-1.26 -0.05,-0.43 -0.04,-0.86 0.06,-1.31l0.55 -1.91c0.42,-1.26 0.87,-2.49 1.38,-3.7 1.03,-2.42 2.27,-4.73 3.66,-6.92 2.79,-4.38 6.19,-8.29 9.95,-11.75 7.53,-6.94 16.28,-12.08 24.93,-17.18 -8.4,5.5 -16.73,11.32 -23.54,18.59 -3.38,3.62 -6.38,7.59 -8.69,11.89 -1.16,2.15 -2.15,4.38 -2.93,6.66 -0.38,1.14 -0.71,2.3 -1,3.46l-0.29 1.36c11.33,-2.14 24.01,-3.68 37.47,-3.88zm-88.78 -511.96c-0.27,4.37 -0.54,10.61 -1.08,18.08 -0.56,7.48 -1.1,16.21 -1.86,25.54 -0.73,9.34 -1.63,19.29 -2.52,29.24 -0.95,9.94 -1.9,19.88 -2.9,29.2 -0.95,9.31 -2.03,17.99 -2.86,25.44 -0.83,7.44 -1.72,13.63 -2.25,17.97 -0.61,4.33 -0.95,6.81 -0.95,6.81 0,0 0.12,-2.5 0.33,-6.87 0.28,-4.36 0.54,-10.61 1.09,-18.08 0.55,-7.47 1.09,-16.2 1.86,-25.53 0.73,-9.34 1.63,-19.29 2.52,-29.24 0.96,-9.94 1.91,-19.88 2.9,-29.2 0.97,-9.31 2.04,-17.99 2.87,-25.44 0.83,-7.44 1.72,-13.63 2.25,-17.97 0.6,-4.33 0.94,-6.81 0.94,-6.81 0,0 -0.12,2.49 -0.34,6.86zm121.62 -118.82c4.53,-0.36 9.11,-0.29 13.65,-0.21 9.06,0.34 18.01,0.06 26.39,-1.09 8.36,-1.08 16.09,-2.85 22.54,-4.88 6.47,-2.02 11.73,-4.11 15.34,-5.74 3.63,-1.59 5.65,-2.65 5.65,-2.65 0,0 -1.96,1.15 -5.49,2.98 -3.54,1.8 -8.67,4.28 -15.11,6.56 -6.44,2.28 -14.14,4.52 -22.61,5.88 -8.45,1.44 -17.7,1.78 -26.76,1.52 -4.52,-0.1 -9.02,-0.13 -13.4,0.2 -4.37,0.36 -8.66,1.06 -12.8,1.89 -8.26,1.69 -15.99,3.65 -22.74,4.8 -6.74,1.23 -12.51,1.35 -16.48,1.16 -1.99,-0.11 -3.55,-0.3 -4.6,-0.49 -1.05,-0.15 -1.61,-0.23 -1.61,-0.23 0,0 0.56,0.03 1.63,0.09 1.05,0.09 2.61,0.13 4.59,0.06 3.95,-0.05 9.56,-0.74 16.16,-2.19 6.62,-1.4 14.18,-3.75 22.55,-5.59 4.18,-0.93 8.57,-1.69 13.1,-2.07zm-53.3 -137.92c3.59,-0.94 8.78,-2.22 15.16,-2.9 6.33,-0.75 13.96,-0.76 21.8,-0.33 3.91,0.1 7.9,-0.03 11.7,-1.09 3.82,-1.06 7.5,-2.97 11.11,-5.09 7.24,-4.31 14.62,-8.62 21.67,-12.28 7.04,-3.71 13.78,-6.84 19.58,-9.48 5.79,-2.63 10.73,-4.56 14.17,-5.95 3.46,-1.33 5.44,-2.09 5.44,-2.09 0,0 -1.91,0.92 -5.25,2.53 -3.34,1.6 -8.05,4.01 -13.7,6.88 -5.66,2.87 -12.14,6.43 -19.05,10.3 -6.91,3.88 -14.14,8.15 -21.38,12.61 -3.68,2.16 -7.57,4.23 -11.81,5.39 -4.26,1.16 -8.58,1.23 -12.58,1.03 -8,-0.55 -15.22,-1.01 -21.55,-0.55 -6.28,0.38 -11.53,0.99 -15.17,1.67 -3.65,0.59 -5.72,1.07 -5.72,1.07 0,0 2,-0.7 5.58,-1.72zm-128.6 -90.62c-0.89,-0.77 -1.37,-1.19 -1.37,-1.19 0,0 0.52,0.37 1.49,1.05 0.95,0.7 2.32,1.79 3.96,3.3 3.15,3.08 7.45,8.04 10.3,15.28 1.38,3.6 2.51,7.7 2.9,12.15 0.41,4.44 0.17,9.09 0,13.77 -0.39,9.31 0.75,19.24 3.8,28.66 1.49,4.77 3.18,9.23 6.82,12.05 3.56,2.94 8.16,4.7 12.35,7.14 8.49,4.9 14.45,12.07 18.19,18.72 3.78,6.72 5.15,13.07 5.74,17.43 0.23,2.2 0.38,3.93 0.36,5.12 0.02,1.18 0.03,1.81 0.03,1.81 0,0 -0.04,-0.63 -0.11,-1.81 -0.05,-1.17 -0.26,-2.9 -0.66,-5.06 -0.8,-4.31 -2.68,-10.39 -6.6,-16.76 -3.88,-6.34 -10.08,-12.83 -18.24,-17.07 -4.06,-2.14 -8.82,-3.74 -13.08,-7.01 -2.11,-1.61 -3.98,-3.82 -5.21,-6.22 -1.26,-2.4 -2.08,-4.85 -2.88,-7.3 -3.11,-9.81 -4.23,-20.26 -3.53,-29.82 0.27,-4.76 0.7,-9.25 0.51,-13.47 -0.16,-4.21 -1.02,-8.15 -2.2,-11.66 -2.44,-7.01 -6.05,-12.24 -8.98,-15.48 -1.46,-1.64 -2.7,-2.85 -3.59,-3.63zm43.37 277.64c-8.48,4.1 -16.87,9.77 -24.36,16.45 -7.57,6.62 -14.02,14.47 -18.98,22.49 -4.95,8.05 -8.88,16.06 -12.67,22.7 -3.71,6.69 -7.55,11.85 -10.44,15.24 -1.49,1.66 -2.68,2.95 -3.56,3.75 -0.85,0.83 -1.31,1.28 -1.31,1.28 0,0 0.43,-0.47 1.24,-1.35 0.84,-0.85 1.95,-2.19 3.33,-3.92 2.76,-3.49 6.14,-8.86 9.65,-15.59 3.6,-6.7 7.17,-14.86 12.07,-23.14 4.89,-8.28 11.39,-16.37 18.97,-23.34 7.58,-6.95 16.25,-12.71 24.98,-16.8 8.73,-4.21 17.5,-6.35 24.77,-8.49 7.29,-2.12 13.27,-4.2 17.19,-6.27 3.97,-1.97 6.04,-3.49 6.04,-3.49 0,0 -0.51,0.39 -1.46,1.11 -0.95,0.73 -2.38,1.75 -4.3,2.88 -3.84,2.3 -9.71,4.96 -16.98,7.35 -7.24,2.43 -15.73,4.98 -24.18,9.14zm-41.44 438.34c-0.49,-2.14 -1,-4.28 -1.36,-6.31 -0.39,-2.02 -0.6,-3.95 -0.86,-5.58 -0.25,-1.63 -0.28,-3.04 -0.39,-4 -0.04,-0.98 -0.06,-1.54 -0.06,-1.54 0,0 0.24,0.51 0.66,1.39 0.35,0.9 0.98,2.16 1.52,3.72 0.53,1.57 1.25,3.37 1.84,5.35 0.62,1.96 1.17,4.09 1.73,6.21 0.49,2.14 1,4.28 1.36,6.31 0.4,2.02 0.6,3.95 0.86,5.58 0.26,1.63 0.28,3.04 0.39,4.01 0.03,0.97 0.06,1.54 0.06,1.54 0,0 -0.24,-0.51 -0.66,-1.39 -0.36,-0.9 -0.99,-2.16 -1.53,-3.73 -0.53,-1.56 -1.25,-3.36 -1.83,-5.34 -0.63,-1.97 -1.17,-4.09 -1.73,-6.22zm-58.04 311.2c-0.54,2.53 -1.18,6.17 -2.17,10.48 -0.99,4.31 -2.05,9.36 -3.36,14.73 -1.29,5.37 -2.77,11.07 -4.24,16.78 -1.54,5.69 -3.06,11.38 -4.6,16.69 -1.5,5.32 -3.08,10.23 -4.35,14.47 -1.26,4.24 -2.51,7.72 -3.29,10.18 -0.85,2.44 -1.33,3.84 -1.33,3.84 0,0 0.27,-1.46 0.73,-4 0.54,-2.53 1.17,-6.17 2.17,-10.48 0.99,-4.31 2.05,-9.36 3.36,-14.73 1.28,-5.37 2.77,-11.07 4.24,-16.78 1.54,-5.69 3.07,-11.38 4.61,-16.69 1.51,-5.31 3.08,-10.23 4.34,-14.47 1.27,-4.24 2.51,-7.72 3.29,-10.18 0.85,-2.44 1.34,-3.84 1.34,-3.84 0,0 -0.27,1.46 -0.74,4zm39.45 -97.89c1.63,-1.53 3.26,-3.06 4.85,-4.41 1.58,-1.38 3.17,-2.54 4.47,-3.6 1.31,-1.06 2.53,-1.8 3.32,-2.38 0.84,-0.54 1.32,-0.84 1.32,-0.84 0,0 -0.33,0.46 -0.89,1.28 -0.62,0.77 -1.41,1.97 -2.51,3.23 -1.11,1.26 -2.33,2.81 -3.77,4.33 -1.42,1.55 -3.01,3.11 -4.6,4.68 -1.63,1.52 -3.25,3.05 -4.85,4.41 -1.58,1.37 -3.17,2.53 -4.47,3.6 -1.31,1.05 -2.53,1.8 -3.32,2.38 -0.84,0.54 -1.32,0.84 -1.32,0.84 0,0 0.32,-0.46 0.89,-1.28 0.61,-0.77 1.4,-1.96 2.51,-3.22 1.11,-1.27 2.33,-2.81 3.77,-4.34 1.42,-1.55 3.02,-3.11 4.6,-4.68zm190.42 -257.24c-1.99,1.94 -4.75,4.81 -8.22,8.07 -3.47,3.27 -7.44,7.16 -11.84,11.19 -4.46,4.05 -9.14,8.29 -13.84,12.55 -4.79,4.16 -9.55,8.31 -14.1,12.26 -4.51,3.75 -8.87,7.39 -12.52,10.44 -3.66,3.06 -6.84,5.46 -9,7.21 -2.21,1.7 -3.47,2.67 -3.47,2.67 0,0 1.11,-1.14 3.06,-3.13 2,-1.95 4.76,-4.81 8.23,-8.09 3.46,-3.26 7.58,-7.16 11.84,-11.18 4.46,-4.04 9.13,-8.28 13.82,-12.53 4.79,-4.16 9.54,-8.3 14.09,-12.25 4.51,-3.89 8.85,-7.38 12.51,-10.44 3.66,-3.07 6.85,-5.47 9.02,-7.22 2.21,-1.71 3.48,-2.68 3.48,-2.68 0,0 -1.11,1.14 -3.06,3.13zm173.94 -4c8.04,5.06 15.92,10.28 23.12,15.52 3.96,2.91 7.73,5.79 11.27,8.58 1.16,-1.51 2.95,-2.36 4.44,-2.81 2.22,-0.6 4.21,-0.78 6.28,-1.16 4.08,-0.6 8.22,-1.59 12.4,-1.39 -4.16,0.23 -8.01,1.94 -12,3.1 -1.94,0.65 -4.06,1.2 -5.75,1.97 -1.32,0.54 -2.24,1.46 -2.76,2.38 2.5,2.01 4.91,3.97 7.13,5.82 6.04,4.95 10.77,9.43 14.13,12.5 3.32,3.12 5.21,4.9 5.21,4.9 0,0 -2.06,-1.59 -5.67,-4.36 -3.56,-2.81 -8.82,-6.63 -15.08,-11.23 -1.11,-0.83 -2.3,-1.69 -3.49,-2.55 -0.74,1.17 -1.48,2.4 -1.97,3.8 -0.58,1.55 -1,3.21 -1.36,4.89l-1.96 10.22 0.51 -10.42c0.1,-1.74 0.25,-3.52 0.59,-5.3 0.33,-1.67 0.81,-3.4 1.69,-4.98 -4.84,-3.42 -10.18,-7.02 -15.78,-10.83 -4.55,-3.02 -9.29,-6.11 -14.14,-9.2 -1.67,2.32 -2.88,5.09 -3.6,8.06 -0.83,3.35 -1.24,6.89 -1.65,10.41 -0.78,7.01 -1.16,14.2 0.65,21.12 -2.2,-6.8 -2.38,-14.11 -2.12,-21.23 0.15,-3.56 0.25,-7.14 0.83,-10.77 0.5,-3.15 1.45,-6.39 3.23,-9.28 -2.91,-1.83 -5.84,-3.67 -8.8,-5.47 -7.16,-4.36 -14.36,-8.49 -21.38,-12.43 -4.69,7.2 -7.08,16.02 -7.31,24.87 -0.3,9.22 1.16,18.46 2.65,27.61 -1.85,-9.09 -3.76,-18.24 -3.9,-27.62 -0.05,-4.69 0.3,-9.4 1.28,-14.05 0.89,-4.26 2.39,-8.47 4.64,-12.31 -0.75,-0.41 -1.53,-0.87 -2.27,-1.28 -8.54,-4.59 -16.48,-8.98 -23.47,-12.36 -3.54,-1.75 -6.76,-3.37 -9.63,-4.79 -3.06,6.06 -3.16,13.51 -2.7,20.6 0.49,7.58 1.8,15.12 3.88,22.48 -2.58,-7.2 -4.4,-14.7 -5.41,-22.33 -0.5,-3.81 -0.85,-7.67 -0.69,-11.6 0.12,-3.52 0.78,-7.11 2.16,-10.52 -1.63,-0.8 -3.17,-1.54 -4.48,-2.15 -4.1,-1.99 -6.43,-3.12 -6.43,-3.12 0,0 2.46,0.83 6.77,2.3 2.46,0.9 5.6,2.02 9.14,3.38 3.45,-3.19 7.03,-6.15 10.42,-9.56 1.71,-1.77 4.02,-3.23 6.28,-4.08l6.73 -2.55c4.5,-1.64 9.1,-3.11 13.82,-4.02 4.72,-0.9 9.58,-1.11 14.3,-0.38 -4.75,-0.57 -9.55,-0.05 -14.15,1.1 -4.61,1.13 -9.06,2.82 -13.43,4.68 -4.31,2.02 -9.08,3.32 -11.96,6.82 -2.79,3.13 -5.93,6.12 -8.96,9.17 1.72,0.7 3.52,1.43 5.4,2.25 6.04,2.56 12.89,5.63 20.09,9.14l-0.15 -0.21c0.46,-0.82 1.31,-1.15 1.93,-1.86 0.67,-0.65 1.33,-1.36 2.02,-2.1 1.34,-1.47 2.94,-3.02 4.69,-4.16 3.52,-2.35 7.32,-3.74 11.06,-5.17 3.76,-1.4 7.59,-2.61 11.46,-3.63 3.8,-0.84 7.88,-2.47 11.79,-1.11 -3.96,-1.13 -7.81,0.8 -11.55,1.9 -3.76,1.3 -7.44,2.77 -11.05,4.41 -3.58,1.68 -7.21,3.36 -10.18,5.69 -1.51,1.16 -2.7,2.5 -3.93,4.06 -0.61,0.77 -1.25,1.58 -1.96,2.37 -0.4,0.39 -0.77,0.85 -1.21,1.25 0.42,0.21 0.82,0.4 1.24,0.61 8.41,4.27 17.15,9.2 25.78,14.36 13.01,-8.35 28.28,-12.67 43.37,-12.63 -14.54,1 -28.54,6.3 -40.05,14.68zm-33 -257.92c0.33,-5.44 2.25,-9.65 3.9,-12.27 0.82,-1.32 1.59,-2.28 2.14,-2.9 0.54,-0.62 0.83,-0.95 0.83,-0.95 0,0 -0.26,0.35 -0.77,1 -0.5,0.66 -1.19,1.66 -1.89,3.03 -1.48,2.68 -2.95,6.93 -3.02,12.13 -0.09,5.22 1.77,11.15 5.88,16.12 3.88,5.06 9.58,9.97 12.28,17.09 2.7,6.97 2.65,14.61 1.2,21.24 -1.43,6.7 -4.33,12.37 -6.95,17.02 -2.66,4.65 -5.34,8.19 -7.13,10.71 -1.86,2.49 -2.92,3.9 -2.92,3.9 0,0 0.88,-1.53 2.42,-4.23 1.57,-2.66 3.72,-6.52 6.1,-11.21 2.35,-4.69 4.67,-10.4 5.86,-16.72 1.12,-6.3 1.15,-13.37 -1.29,-19.67 -2.23,-6.37 -7.55,-11.18 -11.49,-16.71 -1.99,-2.74 -3.56,-5.79 -4.34,-8.85 -0.81,-3.05 -0.94,-6.03 -0.81,-8.73zm165.9 144.35c0.26,-0.38 0.83,-1.24 1.15,-1.73 0.52,-0.66 1.05,-1.49 1.69,-2.3 0.78,-1.02 1.33,-1.73 1.97,-2.56 0.64,-0.83 1.19,-1.55 1.97,-2.57 0.61,-0.84 1.26,-1.59 1.72,-2.29 0.35,-0.48 0.95,-1.29 1.22,-1.67 0.31,-0.4 0.48,-0.63 0.48,-0.63 0,0 -0.05,0.29 -0.15,0.78 -0.14,0.49 -0.26,1.22 -0.58,2.03 -0.3,0.81 -0.64,1.77 -1.12,2.75 -0.48,0.98 -1.09,1.97 -1.74,2.94 -0.69,0.93 -1.41,1.85 -2.19,2.61 -0.77,0.78 -1.59,1.4 -2.29,1.92 -0.7,0.52 -1.4,0.82 -1.83,1.08 -0.47,0.21 -0.74,0.33 -0.74,0.33 0,0 0.16,-0.25 0.44,-0.69zm-31.42 -0.5c0.61,2.74 1.05,5.31 1.98,7.5 0.91,2.17 2.43,3.87 4.22,4.98 3.55,2.28 7.44,2.42 9.87,1.89 1.25,-0.26 2.19,-0.66 2.8,-0.98 0.6,-0.34 0.92,-0.52 0.92,-0.52 0,0 -0.3,0.21 -0.87,0.61 -0.58,0.38 -1.48,0.88 -2.73,1.33 -2.44,0.81 -6.58,1.25 -10.77,-1.03 -2.06,-1.08 -4.04,-2.96 -5.28,-5.41 -1.23,-2.42 -1.87,-5.14 -2.57,-7.77 -0.72,-2.61 -1.59,-5.22 -3.36,-6.95 -1.71,-1.77 -4.38,-2.58 -7.07,-2.69 -5.5,-0.35 -10.91,1.96 -15.57,4.63 -4.66,2.73 -8.84,5.82 -12.63,8.2 -3.76,2.43 -7.26,3.91 -9.74,4.7 -2.51,0.74 -3.99,0.9 -3.99,0.9 0,0 1.45,-0.37 3.78,-1.45 2.37,-1.01 5.46,-2.96 8.99,-5.56 3.57,-2.55 7.41,-6.04 12.21,-9.08 4.72,-3.01 10.68,-5.68 17.12,-5.31 3.14,0.19 6.56,1.19 8.91,3.7 2.34,2.47 3.16,5.61 3.78,8.31z"/>
     <path class="fil1" d="M969.67 1209.46l-0.17 -0.12 0.15 0.21 0.01 -0.01c0.01,-0.04 0.01,-0.05 0.01,-0.08z"/>
    </g>
   </g>
  </g>
 </g>
</svg>
