<?xml version="1.0" encoding="UTF-8"?>
<!DOCTYPE svg PUBLIC "-//W3C//DTD SVG 1.1//EN" "http://www.w3.org/Graphics/SVG/1.1/DTD/svg11.dtd">
<!-- Creator: CorelDRAW -->
<svg xmlns="http://www.w3.org/2000/svg" xml:space="preserve" width="16.9332mm" height="16.9332mm" version="1.1" style="shape-rendering:geometricPrecision; text-rendering:geometricPrecision; image-rendering:optimizeQuality; fill-rule:evenodd; clip-rule:evenodd"
viewBox="0 0 1693.32 1693.32"
 xmlns:xlink="http://www.w3.org/1999/xlink"
 xmlns:xodm="http://www.corel.com/coreldraw/odm/2003"
 xmlns:dc="http://purl.org/dc/elements/1.1/"
 xmlns:cc="http://creativecommons.org/ns#"
 xmlns:rdf="http://www.w3.org/1999/02/22-rdf-syntax-ns#"
 xmlns:svg="http://www.w3.org/2000/svg">
 <defs>
  <style type="text/css">
   <![CDATA[
    .fil0 {fill:none}
    .fil1 {fill:#0A53D3;fill-rule:nonzero}
    .fil2 {fill:#2BA4FF;fill-rule:nonzero}
    .fil3 {fill:#C4F5FD;fill-rule:nonzero}
   ]]>
  </style>
 </defs>
 <g id="Camada_x0020_1">
  <metadata id="CorelCorpID_0Corel-Layer"/>
 </g>
 <g id="Camada_x0020_1_3"   opacity="0.1">
  <metadata id="CorelCorpID_1Corel-Layer"/>
  <rect class="fil0" x="-0.02" y="-0" width="1693.33" height="1693.33"/>
  <g id="Objects">
   <g>
    <path class="fil1" d="M1256.54 1192.02c-49.05,163.81 -185.98,289.33 -413.09,289.33 -236.61,0 -368.57,-188.12 -413.04,-353.63 -37.11,-138.12 -7.25,-295.2 76.28,-406.77 -12.16,51.51 -11.9,107.74 7.97,156.33 19.87,48.6 61.11,88.13 109.47,95.87 48.37,7.75 101.62,-20.84 119.53,-70.33 20.94,-57.88 -7.47,-121.14 -23.98,-180.69 -53.12,-191.62 34.54,-417.78 197.75,-510.16 -41.73,54.07 -40.98,136.07 -13.41,200 27.56,63.91 77.29,113.03 128.35,156.62 51.07,43.58 105.3,84.05 147.21,137.96 102.25,131.5 120.44,340.26 76.96,485.47z"/>
    <g>
     <path class="fil2" d="M1107.65 1198.96c8.45,138.76 -63.93,271.91 -256.1,271.91 -128.81,0 -202.82,-68.51 -236.58,-133.05 -33.76,-64.53 -39.32,-143.21 -14.95,-211.84 20.02,39.63 75.94,50.49 116.14,31.62 40.2,-18.87 66.1,-59.44 81.44,-101.11 15.34,-41.67 22.29,-86.04 36.95,-127.95 14.67,-41.92 39.08,-83.1 78.34,-103.87 -14.61,26.66 -20.02,71.43 16.18,111.85 44.94,50.18 167.32,77.56 178.58,262.44z"/>
    </g>
    <path class="fil3" d="M826.35 1458.91c-74.13,-13.58 -95.41,-98.52 -79.54,-144.52 15.89,-45.98 47.51,-83.32 75.6,-122.01 28.06,-38.71 54.21,-83.09 55.41,-131.73 25.48,23.49 33.93,66.61 19.82,100.93 -8.03,19.54 -22.68,41.67 -12.75,59.48 8.36,14.99 30.13,13.95 43.04,2.55 12.91,-11.4 19.12,-29.31 24.76,-46.31 59.58,51.07 75.78,318.62 -126.34,281.61z"/>
   </g>
  </g>
 </g>
 <g id="Camada_x0020_1_2">
  <metadata id="CorelCorpID_2Corel-Layer"/>
 </g>
</svg>
