<?xml version="1.0" encoding="UTF-8"?>
<!DOCTYPE svg PUBLIC "-//W3C//DTD SVG 1.1//EN" "http://www.w3.org/Graphics/SVG/1.1/DTD/svg11.dtd">
<!-- Creator: CorelDRAW -->
<svg xmlns="http://www.w3.org/2000/svg" xml:space="preserve" width="16.9332mm" height="16.9332mm" version="1.1" style="shape-rendering:geometricPrecision; text-rendering:geometricPrecision; image-rendering:optimizeQuality; fill-rule:evenodd; clip-rule:evenodd"
viewBox="0 0 1693.32 1693.32"
 xmlns:xlink="http://www.w3.org/1999/xlink"
 xmlns:xodm="http://www.corel.com/coreldraw/odm/2003"
 xmlns:dc="http://purl.org/dc/elements/1.1/"
 xmlns:cc="http://creativecommons.org/ns#"
 xmlns:rdf="http://www.w3.org/1999/02/22-rdf-syntax-ns#"
 xmlns:svg="http://www.w3.org/2000/svg">
 <defs>
  <style type="text/css">
   <![CDATA[
    .fil0 {fill:none}
    .fil2 {fill:#282033;fill-rule:nonzero}
    .fil1 {fill:#3C3549;fill-rule:nonzero}
    .fil8 {fill:#4E445E;fill-rule:nonzero}
    .fil3 {fill:#554B66;fill-rule:nonzero}
    .fil7 {fill:#574C68;fill-rule:nonzero}
    .fil11 {fill:#657F93;fill-rule:nonzero}
    .fil4 {fill:#6B617F;fill-rule:nonzero}
    .fil5 {fill:#6D5F7F;fill-rule:nonzero}
    .fil6 {fill:#86789B;fill-rule:nonzero}
    .fil9 {fill:#8CAAC6;fill-rule:nonzero}
    .fil10 {fill:#B5CEE2;fill-rule:nonzero}
   ]]>
  </style>
 </defs>
 <g id="Camada_x0020_1">
  <metadata id="CorelCorpID_0Corel-Layer"/>
 </g>
 <g id="Camada_x0020_1_10">
  <metadata id="CorelCorpID_1Corel-Layer"/>
  <rect class="fil0" x="-0.02" y="-0" width="1693.33" height="1693.33"/>
 </g>
 <g id="Camada_x0020_1_2">
  <metadata id="CorelCorpID_2Corel-Layer"/>
 </g>
 <g id="Camada_x0020_1_2_11">
  <metadata id="CorelCorpID_3Corel-Layer"/>
  <g id="halter.svg">
   <g   opacity="0.1">
    <ellipse class="fil1" transform="matrix(0.022082 -0.0129074 0.0129074 0.022082 420.829 1101.41)" rx="7744.78" ry="13783.1"/>
    <path class="fil2" d="M407.41 861.74c-57.75,-33.83 -111.96,-39.37 -152.63,-15.6 -40.68,23.78 -62.45,73.73 -61.31,140.65 1.11,65.58 24.13,140.03 64.82,209.63 40.68,69.6 94.25,126.19 150.85,159.34 57.75,33.83 111.96,39.37 152.63,15.59 40.68,-23.77 62.45,-73.72 61.31,-140.64 -1.12,-65.59 -24.14,-140.03 -64.82,-209.63 -40.68,-69.6 -94.26,-126.19 -150.85,-159.34z"/>
    <ellipse class="fil3" transform="matrix(0.022082 -0.0129074 0.0129074 0.022082 408.274 1108.75)" rx="6541.26" ry="11641.24"/>
    <ellipse class="fil1" transform="matrix(0.022082 -0.0129074 0.0129074 0.022082 395.946 1115.95)" rx="3828.86" ry="6814.08"/>
    <path class="fil2" d="M391.06 998.13c-28.81,-16.88 -56.02,-19.54 -76.63,-7.49 -20.61,12.05 -31.65,37.06 -31.08,70.44 0.55,32.04 11.76,68.35 31.57,102.24 19.8,33.89 45.94,61.47 73.59,77.67 28.8,16.87 56.02,19.53 76.63,7.48 20.61,-12.04 31.64,-37.06 31.07,-70.44 -0.54,-32.04 -11.75,-68.35 -31.56,-102.24 -19.81,-33.88 -45.95,-61.47 -73.59,-77.66z"/>
    <path class="fil2" d="M395.11 1262.84c34.67,20.31 67.35,23.55 92.03,9.13 24.68,-14.43 37.89,-44.5 37.2,-84.67 -0.66,-38.84 -14.26,-82.88 -38.3,-124.01 -24.04,-41.12 -55.74,-74.59 -89.25,-94.22 -34.68,-20.31 -67.36,-23.55 -92.04,-9.13 -24.67,14.42 -37.88,44.49 -37.2,84.67 0.66,38.84 14.26,82.88 38.3,124.01 24.04,41.12 55.74,74.58 89.26,94.22zm-87.12 -297.35c46.7,-27.3 123.93,17.94 172.51,101.04 48.57,83.1 50.09,172.6 3.4,199.89 -46.7,27.3 -123.93,-17.94 -172.5,-101.05 -48.58,-83.1 -50.1,-172.59 -3.41,-199.88z"/>
    <ellipse class="fil4" transform="matrix(0.022082 -0.0129074 0.0129074 0.022082 389.783 1119.56)" rx="3139.36" ry="5586.99"/>
    <path class="fil5" d="M1297.58 325.7l-118.73 69.41c54.55,40.04 105.29,97.9 145.42,166.55 22.87,39.12 40.95,79.53 53.83,119.49l119.12 -69.62c-12.56,-39.36 -30.47,-79.83 -53.7,-119.58 -41.35,-70.74 -92.98,-127.86 -145.94,-166.25z"/>
    <path class="fil2" d="M1091.36 282.02l-124.8 72.94 -5.54 3.24 0.09 0.17c-44.25,29.12 -67.84,86.34 -66.55,162.08 0.88,51.73 13.36,108.13 35.84,164.4l-267.17 156.16c-36.39,-43.6 -77.1,-79.31 -119.23,-103.99 -67.99,-39.82 -131.75,-46.38 -179.52,-18.46l-124.8 72.95 -5.54 3.24 0.1 0.16c-44.26,29.13 -67.85,86.35 -66.56,162.08 1.32,77.45 28.52,165.39 76.59,247.62 48.06,82.24 111.34,149.09 178.18,188.24 65.36,38.28 126.79,45.81 173.88,21.54l0.1 0.16 5.54 -3.24 124.8 -72.94c47.77,-27.93 73.34,-86.7 72,-165.49 -0.93,-54.61 -14.78,-114.44 -39.69,-173.81l264.59 -154.66c37.99,47.19 81.02,85.74 125.66,111.89 65.35,38.29 126.79,45.81 173.88,21.54l0.1 0.17 5.54 -3.24 124.8 -72.95c47.77,-27.92 73.34,-86.69 72,-165.48 -1.32,-77.45 -28.52,-165.39 -76.59,-247.63 -48.06,-82.23 -111.34,-149.08 -178.18,-188.23 -68,-39.83 -131.75,-46.39 -179.52,-18.46zm405.86 329.51c0,0 0,0 0,0 1.19,3.74 2.33,7.47 3.42,11.19 0.11,0.38 0.23,0.76 0.34,1.14 1.1,3.75 2.15,7.48 3.15,11.21 0.04,0.15 0.08,0.31 0.12,0.46 0.96,3.6 1.87,7.18 2.74,10.75 0.08,0.33 0.16,0.66 0.24,0.99 0.89,3.68 1.73,7.34 2.52,10.98 0.05,0.27 0.11,0.54 0.17,0.82 0.75,3.49 1.45,6.97 2.11,10.44 0.05,0.25 0.1,0.5 0.15,0.75 0.68,3.6 1.31,7.17 1.89,10.73 0.06,0.36 0.11,0.72 0.17,1.08 0.55,3.41 1.06,6.82 1.52,10.2 0.02,0.16 0.04,0.33 0.07,0.49 0.47,3.5 0.89,6.98 1.26,10.43 0.05,0.43 0.09,0.85 0.13,1.28 0.36,3.37 0.68,6.72 0.94,10.04 0,0.06 0.01,0.11 0.01,0.17 0.27,3.39 0.48,6.75 0.65,10.08 0.02,0.48 0.04,0.96 0.06,1.44 0.31,6.58 0.43,13.06 0.36,19.43 0,0.51 -0.01,1.02 -0.02,1.53 -0.1,6.3 -0.38,12.49 -0.86,18.55 -0.04,0.52 -0.08,1.04 -0.12,1.56 -0.5,6 -1.19,11.88 -2.06,17.62 -0.08,0.52 -0.16,1.05 -0.24,1.58 -0.45,2.84 -0.94,5.66 -1.48,8.44 -0.02,0.14 -0.06,0.28 -0.08,0.42 -0.52,2.63 -1.09,5.22 -1.69,7.78 -0.12,0.51 -0.24,1.02 -0.36,1.52 -0.64,2.66 -1.32,5.28 -2.05,7.86 -0.08,0.29 -0.17,0.57 -0.25,0.85 -0.68,2.34 -1.4,4.65 -2.15,6.93 -0.16,0.48 -0.31,0.96 -0.47,1.44 -0.83,2.46 -1.7,4.88 -2.62,7.26 -0.15,0.37 -0.3,0.73 -0.44,1.1 -0.84,2.11 -1.7,4.19 -2.61,6.23 -0.19,0.43 -0.37,0.87 -0.56,1.29 -1.02,2.26 -2.08,4.48 -3.19,6.66 -0.21,0.41 -0.43,0.81 -0.64,1.22 -0.99,1.91 -2.02,3.79 -3.08,5.64 -0.21,0.36 -0.41,0.73 -0.63,1.1 -1.21,2.06 -2.46,4.07 -3.76,6.04 -0.27,0.42 -0.55,0.83 -0.83,1.24 -1.17,1.73 -2.37,3.44 -3.61,5.1 -0.22,0.29 -0.43,0.59 -0.65,0.88 -1.4,1.85 -2.84,3.65 -4.33,5.4 -0.34,0.4 -0.69,0.8 -1.03,1.19 -1.37,1.58 -2.76,3.12 -4.2,4.61 -0.2,0.21 -0.39,0.42 -0.59,0.63 -1.6,1.63 -3.24,3.2 -4.92,4.73 -0.4,0.37 -0.81,0.73 -1.22,1.09 -1.6,1.42 -3.24,2.81 -4.92,4.14 -0.14,0.11 -0.27,0.23 -0.4,0.33 -1.8,1.41 -3.65,2.75 -5.53,4.05 -0.45,0.31 -0.91,0.62 -1.38,0.93 -1.91,1.29 -3.86,2.54 -5.86,3.71l-91.17 53.29c28.06,-32 42.64,-80.34 41.61,-140.28 -0.69,-40.61 -8.56,-84.1 -22.75,-128.13 -12.88,-39.97 -30.96,-80.38 -53.83,-119.5 -40.13,-68.65 -90.87,-126.51 -145.42,-166.55 -10.8,-7.92 -21.72,-15.22 -32.76,-21.68 -51.74,-30.31 -101.01,-41.33 -142.66,-32.58l91.17 -53.29c1.6,-0.93 3.22,-1.82 4.86,-2.67 0.54,-0.28 1.08,-0.54 1.62,-0.81 1.12,-0.55 2.23,-1.1 3.36,-1.62 0.64,-0.3 1.29,-0.58 1.94,-0.86 1.05,-0.46 2.11,-0.91 3.18,-1.34 0.67,-0.27 1.34,-0.53 2.02,-0.79 1.07,-0.41 2.15,-0.8 3.23,-1.17 0.67,-0.23 1.34,-0.47 2.02,-0.69 1.15,-0.37 2.31,-0.72 3.48,-1.06 0.61,-0.18 1.21,-0.37 1.82,-0.54 1.47,-0.4 2.95,-0.77 4.44,-1.12 0.31,-0.08 0.62,-0.16 0.94,-0.23 1.81,-0.41 3.64,-0.78 5.48,-1.11 0.5,-0.09 1,-0.16 1.5,-0.24 1.35,-0.23 2.7,-0.44 4.06,-0.62 0.67,-0.09 1.35,-0.16 2.02,-0.24 1.21,-0.15 2.43,-0.28 3.65,-0.39 0.72,-0.06 1.44,-0.12 2.16,-0.17 1.21,-0.09 2.43,-0.17 3.65,-0.22 0.71,-0.04 1.42,-0.07 2.14,-0.1 1.28,-0.04 2.57,-0.06 3.86,-0.06 0.65,-0.01 1.31,-0.02 1.96,-0.01 1.53,0.01 3.07,0.05 4.61,0.11 0.42,0.02 0.83,0.02 1.26,0.04 1.99,0.09 4,0.22 6.02,0.39 0.26,0.03 0.51,0.06 0.76,0.08 1.74,0.16 3.49,0.34 5.25,0.55 0.61,0.07 1.22,0.16 1.83,0.24 1.41,0.19 2.83,0.39 4.26,0.61 0.69,0.11 1.39,0.23 2.08,0.35 1.37,0.23 2.74,0.48 4.11,0.74 0.71,0.14 1.42,0.28 2.13,0.42 1.41,0.29 2.82,0.6 4.23,0.92 0.66,0.15 1.32,0.29 1.98,0.45 1.6,0.38 3.2,0.79 4.81,1.22 0.47,0.12 0.93,0.23 1.4,0.36 4.23,1.15 8.48,2.45 12.76,3.89 0.47,0.16 0.95,0.33 1.42,0.49 1.64,0.57 3.29,1.15 4.94,1.76 0.63,0.23 1.26,0.47 1.89,0.71 1.52,0.58 3.03,1.17 4.55,1.77 0.67,0.27 1.34,0.54 2,0.81 1.53,0.63 3.05,1.27 4.58,1.93 0.63,0.28 1.26,0.55 1.89,0.82 1.67,0.74 3.35,1.51 5.02,2.29 0.47,0.21 0.94,0.42 1.41,0.65 4.39,2.07 8.79,4.28 13.19,6.63 0.27,0.14 0.54,0.29 0.81,0.43 1.89,1.02 3.78,2.06 5.68,3.13 0.54,0.31 1.08,0.62 1.63,0.93 1.63,0.94 3.26,1.88 4.89,2.85 0.63,0.37 1.25,0.75 1.88,1.12 1.58,0.96 3.16,1.93 4.75,2.92 0.61,0.38 1.22,0.76 1.84,1.15 1.66,1.06 3.33,2.14 5,3.23 0.5,0.33 1.01,0.65 1.51,0.99 2.09,1.38 4.17,2.79 6.25,4.23 0.07,0.05 0.14,0.09 0.21,0.14 55.31,38.34 109.59,97.35 152.7,171.11 23.23,39.74 41.14,80.21 53.7,119.57l0 0zm-713.26 635.46c-0.72,2.64 -1.48,5.24 -2.29,7.8 -0.12,0.37 -0.25,0.74 -0.37,1.11 -0.75,2.33 -1.54,4.62 -2.37,6.88 -0.15,0.39 -0.29,0.8 -0.44,1.19 -0.91,2.44 -1.88,4.83 -2.88,7.19 -0.2,0.46 -0.41,0.92 -0.61,1.38 -0.97,2.2 -1.97,4.38 -3.02,6.51 -0.1,0.2 -0.19,0.41 -0.29,0.61 -1.12,2.25 -2.3,4.45 -3.52,6.61 -0.26,0.47 -0.53,0.94 -0.8,1.41 -1.24,2.16 -2.51,4.28 -3.85,6.34 -0.05,0.08 -0.11,0.16 -0.16,0.23 -1.29,1.99 -2.64,3.92 -4.02,5.81 -0.31,0.43 -0.61,0.85 -0.93,1.27 -1.42,1.91 -2.88,3.77 -4.39,5.58 -0.24,0.28 -0.48,0.54 -0.71,0.82 -1.38,1.62 -2.8,3.19 -4.24,4.72 -0.32,0.33 -0.63,0.67 -0.95,1.01 -1.61,1.66 -3.27,3.28 -4.98,4.84 -0.35,0.33 -0.72,0.65 -1.08,0.97 -1.57,1.41 -3.18,2.78 -4.83,4.1 -0.25,0.2 -0.49,0.41 -0.74,0.61 -1.82,1.43 -3.69,2.8 -5.61,4.12 -0.44,0.31 -0.89,0.61 -1.33,0.91 -1.97,1.32 -3.96,2.61 -6.02,3.81l-91.17 53.29c28.06,-32 42.64,-80.34 41.62,-140.28 -0.75,-43.62 -9.7,-90.56 -25.96,-137.93 -12.61,-36.76 -29.63,-73.77 -50.63,-109.7 -42.31,-72.39 -96.42,-132.84 -154.37,-172.99 -7.87,-5.45 -15.82,-10.56 -23.81,-15.24 -51.74,-30.31 -101.01,-41.33 -142.66,-32.58l91.17 -53.29c0.03,-0.01 0.05,-0.03 0.08,-0.04 1.53,-0.9 3.09,-1.75 4.65,-2.57 0.54,-0.28 1.09,-0.53 1.63,-0.8 1.06,-0.54 2.13,-1.07 3.21,-1.57 0.65,-0.3 1.3,-0.58 1.95,-0.86 0.99,-0.44 1.99,-0.88 3,-1.29 0.69,-0.28 1.38,-0.54 2.07,-0.81 0.99,-0.38 1.99,-0.75 2.99,-1.11 0.7,-0.24 1.4,-0.48 2.11,-0.71 1.02,-0.34 2.04,-0.67 3.06,-0.98 0.7,-0.21 1.4,-0.41 2.11,-0.61 1.06,-0.3 2.13,-0.58 3.2,-0.85 0.68,-0.17 1.36,-0.34 2.04,-0.5 1.14,-0.27 2.29,-0.51 3.45,-0.74 0.62,-0.13 1.24,-0.27 1.86,-0.38 1.33,-0.25 2.68,-0.47 4.02,-0.68 0.46,-0.07 0.91,-0.15 1.36,-0.22 3.68,-0.52 7.41,-0.89 11.19,-1.11 0.32,-0.02 0.65,-0.03 0.97,-0.04 1.55,-0.08 3.11,-0.14 4.68,-0.17 0.5,-0.01 1.01,-0.01 1.51,-0.01 1.4,-0.01 2.81,-0.01 4.23,0.02 0.56,0.01 1.12,0.03 1.68,0.05 1.39,0.05 2.77,0.11 4.17,0.19 0.56,0.03 1.13,0.07 1.69,0.11 1.42,0.1 2.83,0.22 4.26,0.35 0.54,0.06 1.08,0.11 1.62,0.17 1.49,0.15 2.99,0.34 4.49,0.54 0.47,0.06 0.94,0.12 1.41,0.18 1.66,0.24 3.33,0.5 5.01,0.79 0.3,0.05 0.61,0.1 0.92,0.15 8.21,1.44 16.55,3.49 24.99,6.11 0.04,0.01 0.08,0.02 0.12,0.03 2.04,0.64 4.09,1.31 6.14,2.01 0.18,0.07 0.36,0.13 0.54,0.19 1.93,0.67 3.86,1.36 5.79,2.08 0.23,0.09 0.46,0.18 0.69,0.26 1.92,0.73 3.84,1.48 5.77,2.26 0.2,0.08 0.4,0.16 0.59,0.24 2.02,0.82 4.04,1.68 6.07,2.56 0.09,0.04 0.17,0.08 0.26,0.12 17.33,7.6 34.9,17.46 52.37,29.39 0,0 0.01,0 0.01,0l0 0c56.1,38.3 111.26,97.89 154.96,172.65 23.59,40.35 41.68,81.44 54.26,121.37 0.15,0.47 0.3,0.94 0.44,1.41 2.38,7.63 4.56,15.21 6.54,22.73 0.12,0.46 0.24,0.92 0.36,1.39 0.98,3.77 1.92,7.54 2.8,11.28 0.02,0.09 0.04,0.18 0.06,0.27 0.86,3.68 1.67,7.35 2.43,11 0.08,0.35 0.15,0.71 0.23,1.06 0.76,3.68 1.47,7.34 2.13,10.98 0.06,0.36 0.12,0.71 0.19,1.07 0.63,3.56 1.23,7.11 1.77,10.63 0.02,0.14 0.04,0.28 0.06,0.42 0.55,3.59 1.04,7.16 1.49,10.72 0.06,0.47 0.12,0.94 0.17,1.41 0.87,7.05 1.53,14.01 2,20.86 0.03,0.5 0.06,1.01 0.1,1.51 0.21,3.42 0.39,6.82 0.51,10.18 0,0.08 0,0.17 0.01,0.25 0.11,3.27 0.17,6.51 0.18,9.73 0.01,0.46 0.01,0.91 0.01,1.36 0.01,3.25 -0.03,6.46 -0.12,9.65 -0.02,0.37 -0.03,0.75 -0.04,1.12 -0.1,3.01 -0.24,5.98 -0.42,8.93 -0.02,0.31 -0.04,0.63 -0.06,0.94 -0.2,3.09 -0.46,6.15 -0.75,9.17 -0.05,0.51 -0.11,1.01 -0.16,1.51 -0.31,3 -0.66,5.98 -1.07,8.91 0,0.03 -0.01,0.06 -0.01,0.1 -0.41,2.95 -0.88,5.86 -1.39,8.75 -0.1,0.54 -0.19,1.07 -0.29,1.6 -0.52,2.86 -1.08,5.68 -1.7,8.46 -0.03,0.12 -0.06,0.24 -0.08,0.35 -0.6,2.67 -1.26,5.3 -1.94,7.89 -0.13,0.5 -0.26,0.99 -0.39,1.48zm-541.04 -449.94c94.46,-55.21 250.68,36.3 348.93,204.39 98.25,168.1 101.34,349.12 6.88,404.33 -94.45,55.21 -250.67,-36.3 -348.92,-204.4 -98.25,-168.09 -101.34,-349.11 -6.89,-404.32zm480.62 130.59c-0.46,-0.79 -0.89,-1.59 -1.35,-2.38 -12.2,-20.86 -25.37,-40.72 -39.33,-59.4 -5.07,-6.77 -10.27,-13.35 -15.53,-19.81l386.58 -225.96c0.72,-0.42 1.45,-0.81 2.2,-1.16 0.22,-0.1 0.44,-0.18 0.66,-0.27 0.53,-0.24 1.07,-0.48 1.62,-0.68 0.36,-0.13 0.74,-0.23 1.11,-0.35 0.41,-0.13 0.82,-0.28 1.24,-0.39 0.45,-0.13 0.91,-0.21 1.36,-0.31 0.36,-0.08 0.71,-0.18 1.07,-0.24 0.53,-0.1 1.09,-0.16 1.63,-0.23 0.29,-0.04 0.57,-0.09 0.85,-0.12 0.61,-0.06 1.22,-0.09 1.83,-0.12 0.24,-0.01 0.48,-0.04 0.72,-0.04 0.69,-0.02 1.39,0 2.1,0.02 0.17,0.01 0.33,0 0.51,0.01 0.76,0.03 1.53,0.1 2.3,0.18 0.12,0.01 0.23,0.02 0.35,0.03 0.8,0.09 1.62,0.22 2.43,0.36 0.09,0.01 0.18,0.02 0.27,0.04 0.88,0.16 1.78,0.35 2.68,0.56 0.02,0.01 0.03,0.01 0.05,0.01 0.9,0.22 1.82,0.47 2.73,0.74 0.02,0.01 0.03,0.01 0.04,0.01 4.64,1.4 9.41,3.52 14.19,6.3 0.01,0 0.01,0 0.02,0.01l0 0c15.48,8.99 31.1,24.88 43.15,45.49 2.2,3.76 4.2,7.55 6.01,11.33l0 0c0,0 0,0.01 0,0.01 1.06,2.22 2.04,4.44 2.96,6.65 0.08,0.2 0.17,0.39 0.25,0.58 0.87,2.13 1.68,4.25 2.44,6.37 0.09,0.26 0.18,0.51 0.27,0.77 0.73,2.09 1.4,4.17 2.01,6.23 0.07,0.25 0.14,0.5 0.22,0.75 0.6,2.09 1.15,4.17 1.62,6.23 0.04,0.16 0.07,0.32 0.11,0.48 0.97,4.27 1.67,8.46 2.09,12.51 0.01,0.15 0.03,0.29 0.05,0.44 0.19,1.92 0.31,3.82 0.38,5.68 0.01,0.24 0.02,0.49 0.03,0.73 0.05,1.81 0.03,3.58 -0.04,5.31 -0.01,0.26 -0.02,0.52 -0.03,0.78 -0.09,1.72 -0.23,3.41 -0.44,5.05 -0.02,0.22 -0.06,0.43 -0.09,0.64 -0.23,1.68 -0.51,3.32 -0.86,4.89 -0.02,0.1 -0.05,0.2 -0.07,0.29 -0.37,1.59 -0.8,3.13 -1.3,4.61 -0.02,0.08 -0.05,0.16 -0.07,0.25 -0.5,1.45 -1.07,2.83 -1.69,4.16 -0.09,0.18 -0.17,0.37 -0.25,0.55 -0.62,1.27 -1.3,2.47 -2.03,3.62 -0.12,0.2 -0.25,0.39 -0.38,0.58 -0.74,1.13 -1.55,2.19 -2.41,3.18 -0.14,0.17 -0.29,0.32 -0.43,0.48 -0.9,1 -1.85,1.93 -2.86,2.78 -0.12,0.1 -0.25,0.19 -0.37,0.29 -1.08,0.87 -2.22,1.69 -3.44,2.4l0 0 0 0 -384.16 224.56c-9.52,-22.02 -20.53,-43.93 -33,-65.48zm327.13 -313.1l-33.5 19.59c-2.87,-34.09 6.19,-62.11 27.38,-74.49 38.28,-22.38 101.61,14.71 141.43,82.85 39.83,68.14 41.08,141.51 2.79,163.89 -21.18,12.39 -50.04,6.53 -78.33,-12.69l33.5 -19.58c26.5,-15.49 26.78,-62.67 0.62,-107.41 -26.15,-44.74 -67.39,-67.65 -93.89,-52.16zm64.72 189.9c28.8,16.88 56.02,19.53 76.62,7.49 20.61,-12.05 31.65,-37.07 31.08,-70.44 -0.54,-32.04 -11.75,-68.35 -31.56,-102.24 -19.81,-33.89 -45.95,-61.47 -73.6,-77.67 -28.8,-16.87 -56.02,-19.53 -76.62,-7.48 -20.61,12.04 -31.65,37.06 -31.08,70.44 0.07,4.31 0.37,8.71 0.83,13.16l-6.55 3.82c-9.86,-51.18 0.14,-94.91 30.36,-112.58 46.7,-27.29 123.93,17.95 172.5,101.05 48.58,83.1 50.1,172.59 3.41,199.89 -30.23,17.66 -73.24,4.91 -113,-28.79l6.55 -3.83c3.65,2.58 7.34,5 11.06,7.18zm6.59 21.85c34.68,20.31 67.36,23.56 92.04,9.13 24.67,-14.42 37.88,-44.49 37.2,-84.67 -0.66,-38.84 -14.26,-82.87 -38.3,-124 -24.04,-41.13 -55.74,-74.59 -89.26,-94.22 -34.67,-20.31 -67.35,-23.56 -92.03,-9.13 -24.68,14.42 -37.89,44.49 -37.2,84.67 0.2,11.89 1.63,24.27 4.18,36.9l-47.41 27.72c-41.28,-113.93 -30.43,-220.07 33.69,-257.55 79.78,-46.63 211.72,30.66 294.7,172.63 82.99,141.97 85.59,294.87 5.82,341.5 -64.12,37.47 -161.93,-5.15 -240.94,-97.02l47.41 -27.71c9.76,8.42 19.84,15.74 30.1,21.75zm-83.17 9.27c29.84,34.91 62.96,63.6 97.21,83.66 57.75,33.83 111.95,39.36 152.63,15.59 40.67,-23.78 62.45,-73.73 61.31,-140.65 -1.12,-65.58 -24.14,-140.03 -64.82,-209.63 -40.68,-69.6 -94.26,-126.18 -150.86,-159.34 -57.75,-33.83 -111.95,-39.37 -152.63,-15.59 -40.67,23.77 -62.45,73.72 -61.31,140.64 0.68,39.69 9.42,82.62 25.2,125.75l-9.54 5.58c-55.93,-140.9 -45.14,-274.92 33.8,-321.06 94.45,-55.21 250.67,36.3 348.93,204.39 98.25,168.09 101.33,349.11 6.88,404.32 -78.94,46.14 -201.01,-10.21 -296.34,-128.09l9.54 -5.57 0 0z"/>
    <path class="fil6" d="M1290.82 320.85c-0.07,-0.05 -0.14,-0.09 -0.21,-0.14 -2.08,-1.44 -4.17,-2.85 -6.25,-4.23 -0.5,-0.34 -1.01,-0.66 -1.51,-0.99 -1.67,-1.09 -3.34,-2.17 -5,-3.23 -0.62,-0.39 -1.23,-0.77 -1.84,-1.15 -1.59,-0.99 -3.17,-1.96 -4.75,-2.92 -0.63,-0.37 -1.25,-0.75 -1.88,-1.12 -1.63,-0.97 -3.26,-1.91 -4.89,-2.85 -0.54,-0.31 -1.09,-0.62 -1.63,-0.93 -1.9,-1.07 -3.79,-2.11 -5.68,-3.13 -0.27,-0.14 -0.54,-0.29 -0.81,-0.43 -4.4,-2.35 -8.8,-4.56 -13.19,-6.63 -0.47,-0.23 -0.94,-0.44 -1.41,-0.66 -1.67,-0.78 -3.35,-1.54 -5.02,-2.28 -0.63,-0.27 -1.26,-0.54 -1.89,-0.82 -1.53,-0.66 -3.05,-1.3 -4.58,-1.93 -0.66,-0.27 -1.33,-0.54 -1.99,-0.81 -1.52,-0.61 -3.04,-1.19 -4.56,-1.77 -0.63,-0.24 -1.26,-0.48 -1.89,-0.71 -1.65,-0.61 -3.3,-1.19 -4.94,-1.76 -0.47,-0.16 -0.95,-0.33 -1.42,-0.49 -4.28,-1.45 -8.53,-2.74 -12.76,-3.89 -0.47,-0.13 -0.93,-0.24 -1.4,-0.36 -1.61,-0.43 -3.21,-0.84 -4.81,-1.22 -0.66,-0.16 -1.32,-0.3 -1.98,-0.45 -1.42,-0.32 -2.82,-0.63 -4.23,-0.92 -0.71,-0.14 -1.42,-0.28 -2.13,-0.42 -1.37,-0.26 -2.74,-0.51 -4.11,-0.74 -0.69,-0.12 -1.39,-0.24 -2.08,-0.35 -1.43,-0.22 -2.85,-0.42 -4.26,-0.61 -0.61,-0.08 -1.22,-0.17 -1.83,-0.24 -1.76,-0.21 -3.51,-0.4 -5.25,-0.55 -0.25,-0.02 -0.5,-0.05 -0.76,-0.08 -2.02,-0.17 -4.03,-0.3 -6.02,-0.39 -0.43,-0.02 -0.84,-0.02 -1.26,-0.04 -1.54,-0.06 -3.08,-0.1 -4.61,-0.11 -0.65,-0.01 -1.31,0 -1.96,0.01 -1.29,0 -2.58,0.02 -3.86,0.06 -0.72,0.03 -1.43,0.06 -2.14,0.09 -1.22,0.06 -2.44,0.14 -3.65,0.23 -0.72,0.05 -1.44,0.11 -2.15,0.17 -1.23,0.11 -2.45,0.24 -3.66,0.39 -0.67,0.08 -1.35,0.15 -2.02,0.24 -1.36,0.18 -2.71,0.39 -4.06,0.62 -0.5,0.08 -1,0.15 -1.5,0.24 -1.84,0.33 -3.67,0.7 -5.48,1.11 -0.31,0.07 -0.62,0.15 -0.94,0.23 -1.49,0.35 -2.97,0.72 -4.44,1.12 -0.61,0.17 -1.21,0.36 -1.82,0.54 -1.17,0.34 -2.33,0.69 -3.48,1.06 -0.68,0.22 -1.35,0.46 -2.02,0.69 -1.08,0.37 -2.16,0.76 -3.23,1.17 -0.68,0.26 -1.35,0.52 -2.02,0.79 -1.07,0.43 -2.13,0.88 -3.18,1.34 -0.65,0.28 -1.3,0.56 -1.94,0.86 -1.13,0.52 -2.24,1.06 -3.36,1.62 -0.54,0.27 -1.08,0.53 -1.62,0.81 -1.64,0.85 -3.26,1.74 -4.86,2.67l-91.17 53.29c41.65,-8.75 90.92,2.27 142.66,32.58 11.04,6.46 21.97,13.76 32.76,21.68l118.78 -69.43c-2.27,-1.65 -4.54,-3.26 -6.81,-4.83z"/>
    <path class="fil7" d="M1400.85 809.28c1.02,59.95 -13.55,108.29 -41.61,140.29l91.17 -53.29c2,-1.17 3.94,-2.42 5.86,-3.71 0.46,-0.31 0.92,-0.62 1.38,-0.93 1.88,-1.3 3.73,-2.64 5.52,-4.05 0.14,-0.1 0.27,-0.22 0.41,-0.33 1.68,-1.33 3.32,-2.72 4.92,-4.14 0.41,-0.36 0.82,-0.72 1.22,-1.09 1.68,-1.53 3.32,-3.1 4.92,-4.73 0.2,-0.21 0.39,-0.42 0.59,-0.63 1.43,-1.49 2.83,-3.03 4.2,-4.61 0.34,-0.4 0.69,-0.79 1.03,-1.19 1.48,-1.75 2.93,-3.55 4.33,-5.4 0.22,-0.29 0.43,-0.59 0.65,-0.88 1.24,-1.67 2.44,-3.37 3.61,-5.1 0.27,-0.42 0.56,-0.83 0.83,-1.24 1.3,-1.97 2.55,-3.98 3.76,-6.04 0.21,-0.37 0.42,-0.74 0.63,-1.11 1.06,-1.84 2.09,-3.72 3.08,-5.63 0.21,-0.41 0.43,-0.81 0.64,-1.22 1.11,-2.18 2.17,-4.4 3.19,-6.66 0.19,-0.43 0.37,-0.86 0.56,-1.29 0.9,-2.04 1.77,-4.12 2.61,-6.24 0.14,-0.36 0.29,-0.73 0.44,-1.09 0.91,-2.38 1.79,-4.81 2.62,-7.27 0.16,-0.47 0.31,-0.95 0.47,-1.43 0.75,-2.28 1.47,-4.59 2.14,-6.93 0.09,-0.29 0.17,-0.56 0.26,-0.85 0.73,-2.58 1.41,-5.21 2.05,-7.86 0.12,-0.51 0.24,-1.01 0.36,-1.52 0.6,-2.56 1.17,-5.15 1.68,-7.78 0.03,-0.14 0.06,-0.28 0.09,-0.42 0.54,-2.78 1.03,-5.6 1.48,-8.45 0.08,-0.52 0.16,-1.05 0.24,-1.58 0.87,-5.73 1.56,-11.61 2.06,-17.61 0.04,-0.52 0.08,-1.04 0.12,-1.57 0.47,-6.05 0.76,-12.24 0.86,-18.54 0.01,-0.51 0.01,-1.02 0.02,-1.53 0.07,-6.37 -0.05,-12.85 -0.36,-19.44 -0.02,-0.47 -0.04,-0.95 -0.06,-1.43 -0.17,-3.33 -0.38,-6.69 -0.65,-10.08 0,-0.06 -0.01,-0.12 -0.01,-0.17 -0.27,-3.33 -0.58,-6.68 -0.94,-10.04 -0.04,-0.43 -0.08,-0.85 -0.13,-1.28 -0.37,-3.45 -0.79,-6.93 -1.26,-10.43 -0.03,-0.16 -0.05,-0.33 -0.07,-0.5 -0.46,-3.38 -0.97,-6.78 -1.52,-10.19 -0.06,-0.36 -0.12,-0.72 -0.17,-1.08 -0.59,-3.56 -1.21,-7.14 -1.89,-10.73 -0.05,-0.25 -0.1,-0.51 -0.15,-0.76 -0.66,-3.46 -1.36,-6.94 -2.11,-10.44 -0.06,-0.27 -0.12,-0.54 -0.18,-0.81 -0.78,-3.65 -1.62,-7.31 -2.51,-10.98 -0.08,-0.33 -0.16,-0.66 -0.24,-0.99 -0.87,-3.57 -1.78,-7.15 -2.74,-10.75 -0.04,-0.15 -0.08,-0.31 -0.12,-0.46 -1,-3.73 -2.05,-7.47 -3.15,-11.22 -0.11,-0.38 -0.23,-0.76 -0.34,-1.14 -1.09,-3.71 -2.23,-7.44 -3.42,-11.18 0,0 0,0 -0.01,-0.01l0 0 -119.11 69.63c14.19,44.04 22.06,87.53 22.75,128.13z"/>
    <path class="fil1" d="M1325.61 969.22c94.45,-55.21 91.37,-236.23 -6.88,-404.32 -98.26,-168.09 -254.48,-259.6 -348.93,-204.39 -78.93,46.14 -89.73,180.16 -33.8,321.06l9.54 -5.57c-15.78,-43.14 -24.52,-86.07 -25.2,-125.75 -1.14,-66.93 20.64,-116.88 61.31,-140.65 40.68,-23.78 94.88,-18.24 152.64,15.59 56.59,33.16 110.17,89.74 150.85,159.34 40.68,69.6 63.7,144.05 64.82,209.63 1.14,66.93 -20.64,116.88 -61.31,140.65 -40.67,23.78 -94.88,18.24 -152.63,-15.59 -34.25,-20.06 -67.37,-48.75 -97.21,-83.66l-9.54 5.58c95.33,117.87 217.4,174.22 296.34,128.08z"/>
    <path class="fil8" d="M1285.41 929.27c79.77,-46.63 77.17,-199.53 -5.82,-341.5 -82.98,-141.97 -214.92,-219.26 -294.7,-172.63 -64.12,37.48 -74.97,143.62 -33.69,257.55l47.41 -27.72c-2.55,-12.63 -3.98,-25.01 -4.18,-36.9 -0.69,-40.18 12.52,-70.25 37.2,-84.67 24.68,-14.43 57.36,-11.18 92.03,9.13 33.52,19.63 65.22,53.09 89.26,94.22 24.04,41.13 37.64,85.16 38.3,124 0.68,40.18 -12.53,70.25 -37.2,84.67 -24.68,14.43 -57.36,11.18 -92.04,-9.13 -10.26,-6.01 -20.34,-13.33 -30.1,-21.75l-47.41 27.71c79.02,91.87 176.82,134.49 240.94,97.02z"/>
    <path class="fil1" d="M1210.78 829.88c46.69,-27.3 45.17,-116.79 -3.41,-199.89 -48.57,-83.1 -125.8,-128.34 -172.5,-101.05 -30.22,17.67 -40.22,61.4 -30.36,112.58l6.55 -3.82c-0.46,-4.45 -0.76,-8.85 -0.83,-13.16 -0.57,-33.38 10.47,-58.4 31.08,-70.44 20.6,-12.05 47.82,-9.39 76.62,7.48 27.65,16.2 53.79,43.78 73.6,77.67 19.81,33.89 31.02,70.2 31.56,102.24 0.57,33.37 -10.47,58.39 -31.08,70.44 -20.6,12.04 -47.82,9.38 -76.62,-7.49 -3.72,-2.18 -7.41,-4.6 -11.06,-7.18l-6.55 3.83c39.76,33.7 82.77,46.45 113,28.79z"/>
    <path class="fil8" d="M1143.94 774.11l-33.5 19.58c28.29,19.22 57.15,25.08 78.33,12.69 38.29,-22.38 37.04,-95.75 -2.79,-163.89 -39.82,-68.14 -103.15,-105.23 -141.43,-82.85 -21.19,12.38 -30.25,40.4 -27.38,74.49l33.5 -19.59c26.5,-15.49 67.74,7.42 93.89,52.16 26.16,44.74 25.88,91.92 -0.62,107.41z"/>
    <path class="fil9" d="M1145.02 681.28c-1.8,-3.79 -3.8,-7.58 -6,-11.34 -12.05,-20.61 -27.67,-36.49 -43.15,-45.49l-413.01 241.42c13.96,18.67 27.13,38.53 39.33,59.39 0.46,0.79 0.89,1.59 1.35,2.39l421.48 -246.37 0 0z"/>
    <path class="fil10" d="M1095.87 624.45l0 0c-0.01,0 -0.02,-0.01 -0.02,-0.01 -4.78,-2.78 -9.55,-4.9 -14.19,-6.29 -0.01,-0.01 -0.03,-0.01 -0.04,-0.01 -0.92,-0.28 -1.83,-0.53 -2.74,-0.75 -0.01,0 -0.02,0 -0.04,-0.01 -0.9,-0.21 -1.8,-0.4 -2.69,-0.56 -0.08,-0.02 -0.17,-0.02 -0.26,-0.04 -0.82,-0.14 -1.63,-0.27 -2.43,-0.36 -0.12,-0.01 -0.23,-0.01 -0.35,-0.03 -0.77,-0.08 -1.54,-0.15 -2.31,-0.18 -0.17,-0.01 -0.33,0 -0.5,-0.01 -0.71,-0.02 -1.41,-0.04 -2.1,-0.02 -0.24,0 -0.48,0.03 -0.72,0.04 -0.61,0.03 -1.23,0.06 -1.83,0.12 -0.28,0.03 -0.56,0.08 -0.85,0.12 -0.55,0.07 -1.1,0.13 -1.64,0.23 -0.35,0.07 -0.7,0.16 -1.06,0.24 -0.45,0.1 -0.91,0.19 -1.36,0.31 -0.42,0.11 -0.83,0.26 -1.24,0.39 -0.37,0.12 -0.75,0.22 -1.12,0.35 -0.54,0.2 -1.08,0.44 -1.61,0.68 -0.22,0.09 -0.44,0.17 -0.66,0.27 -0.75,0.35 -1.48,0.74 -2.2,1.16l-386.58 225.96c5.26,6.46 10.46,13.04 15.53,19.82l413.01 -241.42z"/>
    <path class="fil11" d="M1140.7 768.56l0 0 0 0c1.22,-0.71 2.35,-1.52 3.44,-2.4 0.12,-0.1 0.25,-0.19 0.36,-0.29 1.02,-0.85 1.97,-1.78 2.87,-2.78 0.14,-0.16 0.29,-0.31 0.43,-0.48 0.86,-0.99 1.66,-2.05 2.41,-3.17 0.13,-0.2 0.25,-0.39 0.38,-0.59 0.73,-1.15 1.41,-2.35 2.03,-3.62 0.08,-0.18 0.16,-0.37 0.24,-0.55 0.63,-1.33 1.2,-2.71 1.69,-4.16 0.03,-0.08 0.05,-0.17 0.08,-0.25 0.5,-1.48 0.93,-3.02 1.29,-4.6 0.03,-0.1 0.06,-0.2 0.08,-0.3 0.35,-1.57 0.63,-3.21 0.86,-4.88 0.03,-0.22 0.06,-0.43 0.09,-0.65 0.21,-1.64 0.35,-3.33 0.44,-5.05 0.01,-0.26 0.02,-0.52 0.03,-0.78 0.07,-1.73 0.08,-3.5 0.03,-5.31 0,-0.24 -0.01,-0.48 -0.02,-0.73 -0.07,-1.86 -0.19,-3.75 -0.38,-5.68 -0.02,-0.15 -0.04,-0.29 -0.05,-0.44 -0.43,-4.05 -1.12,-8.24 -2.1,-12.51 -0.03,-0.16 -0.06,-0.32 -0.1,-0.48 -0.48,-2.06 -1.02,-4.13 -1.63,-6.23 -0.07,-0.25 -0.14,-0.5 -0.21,-0.75 -0.61,-2.06 -1.28,-4.14 -2.01,-6.22 -0.09,-0.26 -0.18,-0.52 -0.28,-0.78 -0.75,-2.12 -1.56,-4.24 -2.43,-6.36 -0.08,-0.2 -0.17,-0.39 -0.25,-0.59 -0.92,-2.21 -1.91,-4.43 -2.97,-6.65 0,0 0,0 0,0l0 0 -421.48 246.36c12.47,21.55 23.48,43.46 33,65.48l384.16 -224.56 0 0z"/>
    <path class="fil5" d="M767.07 1038.31c-12.33,-36.27 -29.11,-73.34 -50.43,-109.81 -43.7,-74.76 -98.86,-134.35 -154.96,-172.65l-118.66 69.36c57.95,40.15 112.06,100.6 154.37,172.99 21,35.93 38.02,72.95 50.63,109.7l119.05 -69.59z"/>
    <path class="fil6" d="M561.68 755.85c0,0 -0.01,0 -0.01,0 -17.47,-11.93 -35.04,-21.79 -52.37,-29.39 -0.09,-0.04 -0.17,-0.08 -0.26,-0.11 -2.02,-0.89 -4.05,-1.74 -6.07,-2.57 -0.19,-0.08 -0.39,-0.16 -0.59,-0.24 -1.92,-0.78 -3.85,-1.53 -5.77,-2.26 -0.23,-0.08 -0.46,-0.17 -0.69,-0.26 -1.93,-0.72 -3.86,-1.41 -5.79,-2.08 -0.18,-0.06 -0.36,-0.12 -0.54,-0.18 -2.05,-0.71 -4.1,-1.38 -6.14,-2.01 -0.04,-0.02 -0.08,-0.03 -0.12,-0.04 -8.44,-2.62 -16.78,-4.66 -24.99,-6.11 -0.31,-0.05 -0.61,-0.1 -0.92,-0.15 -1.68,-0.29 -3.34,-0.55 -5.01,-0.78 -0.47,-0.07 -0.94,-0.13 -1.41,-0.19 -1.5,-0.2 -3,-0.38 -4.49,-0.54 -0.54,-0.06 -1.08,-0.11 -1.62,-0.16 -1.43,-0.14 -2.84,-0.26 -4.26,-0.36 -0.56,-0.04 -1.13,-0.08 -1.69,-0.11 -1.4,-0.08 -2.78,-0.14 -4.17,-0.19 -0.56,-0.01 -1.12,-0.04 -1.68,-0.05 -1.42,-0.03 -2.83,-0.03 -4.23,-0.02 -0.5,0 -1.01,0 -1.51,0.01 -1.57,0.03 -3.13,0.09 -4.68,0.17 -0.32,0.01 -0.65,0.02 -0.97,0.04 -3.78,0.22 -7.51,0.59 -11.19,1.12 -0.45,0.06 -0.9,0.14 -1.36,0.21 -1.34,0.21 -2.69,0.43 -4.02,0.68 -0.62,0.12 -1.24,0.25 -1.86,0.38 -1.16,0.23 -2.31,0.47 -3.45,0.74 -0.68,0.16 -1.36,0.33 -2.04,0.5 -1.07,0.27 -2.14,0.55 -3.2,0.85 -0.7,0.2 -1.41,0.41 -2.1,0.62 -1.03,0.31 -2.05,0.63 -3.07,0.97 -0.71,0.23 -1.41,0.47 -2.11,0.71 -1,0.36 -2,0.73 -2.99,1.12 -0.69,0.26 -1.38,0.52 -2.06,0.8 -1.01,0.41 -2.01,0.85 -3.01,1.29 -0.65,0.28 -1.3,0.56 -1.95,0.86 -1.08,0.5 -2.15,1.03 -3.21,1.57 -0.54,0.27 -1.09,0.53 -1.62,0.8 -1.57,0.82 -3.12,1.68 -4.66,2.57 -0.03,0.02 -0.05,0.03 -0.08,0.05l-91.17 53.28c41.65,-8.74 90.93,2.27 142.66,32.58 7.99,4.68 15.94,9.79 23.81,15.24l118.66 -69.36 0 0z"/>
    <path class="fil7" d="M786.37 1237.27c0.62,-2.78 1.18,-5.6 1.7,-8.46 0.1,-0.53 0.19,-1.07 0.29,-1.6 0.51,-2.89 0.98,-5.8 1.39,-8.76 0,-0.03 0.01,-0.06 0.01,-0.09 0.41,-2.93 0.76,-5.91 1.07,-8.91 0.05,-0.5 0.11,-1 0.16,-1.51 0.29,-3.02 0.55,-6.08 0.75,-9.17 0.02,-0.31 0.04,-0.63 0.06,-0.94 0.18,-2.95 0.32,-5.93 0.42,-8.93 0.01,-0.38 0.03,-0.75 0.04,-1.12 0.09,-3.19 0.13,-6.41 0.12,-9.65 0,-0.45 0,-0.91 -0.01,-1.36 -0.01,-3.22 -0.07,-6.46 -0.18,-9.73 -0.01,-0.09 -0.01,-0.17 -0.01,-0.25 -0.12,-3.36 -0.3,-6.76 -0.51,-10.18 -0.04,-0.5 -0.07,-1.01 -0.1,-1.51 -0.47,-6.85 -1.13,-13.81 -2,-20.86 -0.05,-0.47 -0.11,-0.94 -0.17,-1.42 -0.45,-3.55 -0.94,-7.12 -1.49,-10.72 -0.02,-0.13 -0.04,-0.27 -0.06,-0.41 -0.54,-3.52 -1.14,-7.07 -1.77,-10.63 -0.07,-0.36 -0.13,-0.71 -0.19,-1.07 -0.66,-3.64 -1.37,-7.3 -2.13,-10.98 -0.07,-0.35 -0.15,-0.71 -0.23,-1.06 -0.76,-3.65 -1.57,-7.32 -2.43,-11 -0.02,-0.09 -0.04,-0.18 -0.06,-0.27 -0.88,-3.74 -1.82,-7.51 -2.8,-11.29 -0.12,-0.46 -0.24,-0.92 -0.36,-1.38 -1.98,-7.53 -4.16,-15.11 -6.54,-22.73 -0.14,-0.47 -0.29,-0.94 -0.44,-1.41 -1.21,-3.85 -2.47,-7.71 -3.79,-11.58l-119.09 69.61c16.26,47.37 25.21,94.31 25.95,137.93 1.03,59.94 -13.55,108.28 -41.61,140.28l91.17 -53.29c2.05,-1.2 4.05,-2.49 6.02,-3.81 0.44,-0.3 0.89,-0.6 1.33,-0.91 1.91,-1.32 3.79,-2.69 5.61,-4.13 0.25,-0.19 0.49,-0.4 0.74,-0.6 1.65,-1.32 3.26,-2.69 4.83,-4.1 0.36,-0.33 0.73,-0.64 1.08,-0.97 1.71,-1.56 3.37,-3.18 4.98,-4.85 0.32,-0.33 0.63,-0.67 0.94,-1 1.45,-1.53 2.87,-3.11 4.25,-4.72 0.23,-0.28 0.47,-0.54 0.71,-0.82 1.51,-1.81 2.97,-3.67 4.39,-5.58 0.31,-0.42 0.62,-0.84 0.93,-1.27 1.38,-1.89 2.73,-3.82 4.02,-5.81 0.05,-0.08 0.11,-0.15 0.16,-0.23 1.34,-2.06 2.61,-4.18 3.85,-6.34 0.27,-0.47 0.54,-0.94 0.8,-1.41 1.22,-2.16 2.4,-4.36 3.52,-6.61 0.1,-0.2 0.19,-0.41 0.29,-0.62 1.05,-2.12 2.05,-4.3 3.02,-6.5 0.2,-0.46 0.41,-0.92 0.61,-1.39 1,-2.35 1.97,-4.74 2.88,-7.18 0.15,-0.39 0.29,-0.8 0.44,-1.19 0.83,-2.26 1.62,-4.55 2.37,-6.88 0.12,-0.37 0.25,-0.74 0.37,-1.11 0.81,-2.56 1.57,-5.16 2.29,-7.8 0.13,-0.49 0.26,-0.99 0.39,-1.48 0.69,-2.6 1.34,-5.22 1.94,-7.89 0.02,-0.12 0.05,-0.23 0.08,-0.35z"/>
   </g>
  </g>
 </g>
</svg>
