<?xml version="1.0" encoding="UTF-8"?>
<!DOCTYPE svg PUBLIC "-//W3C//DTD SVG 1.1//EN" "http://www.w3.org/Graphics/SVG/1.1/DTD/svg11.dtd">
<!-- Creator: CorelDRAW -->
<svg xmlns="http://www.w3.org/2000/svg" xml:space="preserve" width="16.9332mm" height="16.9332mm" version="1.1" style="shape-rendering:geometricPrecision; text-rendering:geometricPrecision; image-rendering:optimizeQuality; fill-rule:evenodd; clip-rule:evenodd"
viewBox="0 0 1693.32 1693.32"
 xmlns:xlink="http://www.w3.org/1999/xlink"
 xmlns:xodm="http://www.corel.com/coreldraw/odm/2003"
 xmlns:dc="http://purl.org/dc/elements/1.1/"
 xmlns:cc="http://creativecommons.org/ns#"
 xmlns:rdf="http://www.w3.org/1999/02/22-rdf-syntax-ns#"
 xmlns:svg="http://www.w3.org/2000/svg">
 <defs>
  <style type="text/css">
   <![CDATA[
    .fil0 {fill:none}
    .fil6 {fill:#82320B;fill-rule:nonzero}
    .fil5 {fill:#E09807;fill-rule:nonzero}
    .fil3 {fill:#E8990C;fill-rule:nonzero}
    .fil1 {fill:#FAAD01;fill-rule:nonzero}
    .fil2 {fill:#FFC145;fill-rule:nonzero}
    .fil4 {fill:#FFC655;fill-rule:nonzero}
   ]]>
  </style>
 </defs>
 <g id="Camada_x0020_1">
  <metadata id="CorelCorpID_0Corel-Layer"/>
 </g>
 <g id="Camada_x0020_1_12">
  <metadata id="CorelCorpID_1Corel-Layer"/>
  <rect class="fil0" x="-0.02" y="-0" width="1693.33" height="1693.33"/>
 </g>
 <g id="Camada_x0020_1_2">
  <metadata id="CorelCorpID_2Corel-Layer"/>
 </g>
 <g id="Camada_x0020_1_2_13">
  <metadata id="CorelCorpID_3Corel-Layer"/>
  <g id="shutterstock_1559478149.eps"   opacity="0.1">
   <path class="fil1" d="M1085.49 1438.05l0 23.93 -473.46 0 0 -20.73c1.39,-0.42 2.7,-0.87 4.02,-1.43 40.11,-16.53 56.6,-94.5 56.6,-94.5l-7.1 -1.58 359.35 3.46c-6.39,20.73 60.59,90.85 60.59,90.85z"/>
   <path class="fil1" d="M1013.55 1089.42c-5.52,-6.16 -9.2,-13.64 -10.74,-21.67 -0.56,-2.82 -0.86,-5.72 -0.86,-8.61l0 -13.22 -309.24 0 0 13.56c0,2.82 -0.3,5.6 -0.9,8.27 -1.5,7.06 -5,13.63 -10.18,18.77 -98.71,98.08 -159.48,-50.18 -159.48,-50.18 -27.53,-61.93 54.2,-392.13 54.2,-392.13 13.41,-49.77 32.49,-124.06 45.97,-176.95l440.03 0c8.33,42.97 17.72,76.51 17.72,76.51 6.28,30.09 71.74,247.12 71.74,247.12 36.96,117 28.96,198.99 18.6,242.52 -6.24,26.11 -19.46,50.18 -39.4,68.07 -52.06,46.72 -97.06,10.62 -117.46,-12.06zm272.17 -316.08c-10.59,-27.42 -120.12,-227.62 -120.53,-228.18 -11.19,-15.66 -17.92,-48.57 -22.05,-77.9l6.87 0c9.54,0 17.24,-7.7 17.24,-17.24l0 -8.53c0,-9.54 -7.7,-17.27 -17.24,-17.27l-11.83 0c-0.52,-5.22 -0.9,-9.21 -1.2,-11.42 -0.08,-0.26 -0.08,-0.64 -0.11,-1.02 7.58,2.9 15.62,4.47 24,4.47 43.16,0 78.12,-41.39 78.12,-92.43 0,-51.09 -34.96,-92.48 -78.12,-92.48 -0.9,0 -1.8,0.04 -2.71,0.08 0,-0.04 0.04,-0.08 0.04,-0.08 -90.86,1.61 -103.63,84.51 -103.63,84.51 -7.55,27.09 -5.15,68.36 0.53,108.37l-421.85 0c3.31,-12.96 5.26,-20.7 5.26,-20.7 24.53,-137.55 -51.35,-164.11 -73.99,-168.91 -6.54,-2.11 -13.41,-3.27 -20.55,-3.27 -43.12,0 -78.09,41.39 -78.09,92.48 0,51.04 34.97,92.43 78.09,92.43 8.38,0 16.45,-1.57 24,-4.47 0.15,1.69 0.26,3.2 0.41,4.47 0.19,2.07 0.04,4.77 -0.37,7.97l-21.11 0c-9.54,0 -17.28,7.73 -17.28,17.27l0 8.53c0,9.54 7.74,17.24 17.28,17.24l9.39 0c-21.26,62.88 -62.84,156.22 -62.84,156.22 -14.27,28.92 -53.86,106.37 -83.27,163.68 -32.98,64.2 -50.75,135.37 -50.07,207.53 1.05,112.94 39.29,172.33 54.99,191.97 5.33,6.65 10.44,13.45 15.55,20.29 84.4,113.54 246.13,140.25 246.13,140.25 172.15,63.77 342.71,0 342.71,0 231.56,-59.99 282.46,-179.77 291.58,-208.77 1.69,-5.44 3.53,-10.85 5.45,-16.22 49.84,-141.23 -27.38,-340.04 -30.8,-348.87z"/>
   <path class="fil2" d="M409.1 868.9c-9.09,-0.49 -26.48,71.39 -22.07,147.8 2,34.51 4.69,80.98 31.02,132.23 37.23,72.45 97.4,107.12 144.49,134.26 57.62,33.21 118.17,51.3 121.47,44.75 2.95,-5.85 -41.34,-28.34 -103.57,-79.28 -8.31,-6.79 -64.97,-53.42 -95.9,-90.78 -97.27,-117.52 -59.96,-288.14 -75.44,-288.98z"/>
   <path class="fil3" d="M1265.16 781.95c9.48,-1.75 38.92,78.64 47.32,166.23 5.41,56.44 10.75,112.17 -16.63,173.9 -24.82,55.97 -63.46,87.37 -102.29,118.92 -80.15,65.11 -168.62,96.56 -172.62,89.5 -3.26,-5.74 52.74,-31.15 120.19,-98.46 46.55,-46.43 95.09,-94.87 115.08,-168.78 7.97,-29.44 7.87,-75.03 7.68,-166.23 -0.18,-82.33 -4.55,-114 1.27,-115.08z"/>
   <path class="fil4" d="M496.05 368.94c-9,0.56 -20.81,-24.62 -21.1,-47.94 -0.03,-2.31 0.2,-46.55 37.72,-66.5 22.34,-11.87 47.88,-9.85 66.49,0 24.39,12.92 36.4,38.5 33.25,41.56 -4.19,4.07 -33.56,-33.15 -58.82,-24.93 -4.63,1.5 -10.31,4.92 -23.02,26.85 -24.91,43 -25.28,70.39 -34.52,70.96z"/>
   <path class="fil5" d="M1146.89 246.19c1.08,-3.79 30.71,-4.75 51.79,12.79 15.26,12.7 19.95,30.03 22.37,39 4.96,18.33 2.76,33.42 1.28,42.84 -1.9,12.15 -3.87,24.72 -12.79,37.08 -9.96,13.8 -31.08,30.77 -46.03,24.29 -11.62,-5.04 -16.59,-22.98 -15.98,-37.08 1.86,-43.05 56.04,-58.71 51.15,-84.39 -4.47,-23.43 -53.21,-29.56 -51.79,-34.53z"/>
   <path class="fil3" d="M1002.81 1067.75l-311 0c0.6,-2.67 0.9,-5.45 0.9,-8.27l0 -13.56 309.24 0 0 13.22c0,2.89 0.3,5.79 0.86,8.61z"/>
   <path class="fil6" d="M748.6 1045.92l-32.61 0 0 -785.69c0,-9.01 7.3,-16.31 16.3,-16.31l0 0c9.01,0 16.31,7.3 16.31,16.31l0 785.69z"/>
   <path class="fil6" d="M822.63 1045.92l-32.6 0 0 -800.24c0,-0.97 0.78,-1.76 1.75,-1.76l29.09 0c0.97,0 1.76,0.79 1.76,1.76l0 800.24z"/>
   <path class="fil6" d="M902.43 1045.92l-32.6 0 0 -785.69c0,-9.01 7.3,-16.31 16.3,-16.31l0 0c9,0 16.3,7.3 16.3,16.31l0 785.69z"/>
   <path class="fil6" d="M985.41 1045.92l-32.61 0 0 -785.69c0,-9.01 7.3,-16.31 16.3,-16.31l0 0c9.01,0 16.31,7.3 16.31,16.31l0 785.69z"/>
   <path class="fil3" d="M1085.49 1439.82l0 22.16 -473.46 0 0 -20.73c1.39,-0.42 2.7,-0.87 4.02,-1.43l469.44 0z"/>
   <path class="fil2" d="M531.85 1094.58c3.62,-2.22 17.26,29.08 51.79,42.2 6.06,2.31 23.56,8.15 44.11,4.8 46.57,-7.6 69.13,-55.94 75.76,-51.79 5.24,3.27 -1.64,37.91 -26.85,59.46 -32.14,27.48 -85.03,25.93 -116.04,0.96 -25.36,-20.43 -32.27,-53.46 -28.77,-55.63z"/>
  </g>
 </g>
</svg>
