<?xml version="1.0" encoding="UTF-8"?>
<!DOCTYPE svg PUBLIC "-//W3C//DTD SVG 1.1//EN" "http://www.w3.org/Graphics/SVG/1.1/DTD/svg11.dtd">
<!-- Creator: CorelDRAW -->
<svg xmlns="http://www.w3.org/2000/svg" xml:space="preserve" width="16.9332mm" height="16.9332mm" version="1.1" style="shape-rendering:geometricPrecision; text-rendering:geometricPrecision; image-rendering:optimizeQuality; fill-rule:evenodd; clip-rule:evenodd"
viewBox="0 0 1693.32 1693.32"
 xmlns:xlink="http://www.w3.org/1999/xlink"
 xmlns:xodm="http://www.corel.com/coreldraw/odm/2003"
 xmlns:dc="http://purl.org/dc/elements/1.1/"
 xmlns:cc="http://creativecommons.org/ns#"
 xmlns:rdf="http://www.w3.org/1999/02/22-rdf-syntax-ns#"
 xmlns:svg="http://www.w3.org/2000/svg">
 <defs>
  <style type="text/css">
   <![CDATA[
    .fil0 {fill:none}
    .fil3 {fill:#161616;fill-rule:nonzero}
    .fil2 {fill:#FFD34E;fill-rule:nonzero}
    .fil1 {fill:#FFE11A;fill-rule:nonzero}
   ]]>
  </style>
 </defs>
 <g id="Camada_x0020_1">
  <metadata id="CorelCorpID_0Corel-Layer"/>
 </g>
 <g id="Camada_x0020_1_6">
  <metadata id="CorelCorpID_1Corel-Layer"/>
  <rect class="fil0" x="-0.02" y="-0" width="1693.33" height="1693.33"/>
 </g>
 <g id="Camada_x0020_1_2">
  <metadata id="CorelCorpID_2Corel-Layer"/>
 </g>
 <g id="Camada_x0020_1_2_7"   opacity="0.1">
  <metadata id="CorelCorpID_3Corel-Layer"/>
  <g id="_1926813690208">
   <path class="fil1" d="M1146.95 211.88c-1.93,0.84 -3.69,2.03 -5.31,3.43 -6.33,1.47 -12.9,2.3 -19.21,3.32 -7,1.13 -14,2.15 -21.02,3.14 -6.2,0.8 -12.41,1.59 -18.63,2.13 -5.29,0.46 -10.58,0.92 -15.87,1.38 -2.49,0.21 -4.95,0.41 -7.45,0.52 -4.99,0.23 -10.07,0.86 -14.89,2.08 -4.78,1.2 -8.32,3.5 -11.86,6.24 -8.91,0.97 -17.8,2.27 -26.66,3.64 -5.72,0.89 -11.39,1.92 -17.05,3.05 -1.12,-0.8 -2.28,-1.54 -3.47,-2.24 -10.19,-5.97 -23.03,-6.81 -34.52,-5.89 -7.22,0.56 -14.38,1.24 -21.57,2.08 -20.25,2.35 -40.68,5.05 -60.67,9.09 -7.96,1.61 -15.88,3.61 -23.64,6.07 -6.85,-1.34 -14.63,1.57 -18.75,7.24 -0.58,0.25 -1.16,0.5 -1.74,0.74 -5.83,2.52 -10.79,6.42 -15.59,10.53 -5.28,4.53 -9.14,11.77 -10.5,18.51 -0.83,4.06 -1.13,8.23 -1.4,12.37 -0.14,2.02 -0.24,4.04 -0.38,6.05 -3.62,4.28 -7.18,8.63 -9.97,13.49 -3.62,6.3 -6.16,13.45 -8.85,20.11 -2.24,5.54 -4.16,11.24 -6.17,16.86 -2.82,7.88 -5.64,15.77 -8.48,23.65 -4.04,11.28 -8.04,22.58 -12,33.9 -10.12,28.91 -20.37,57.76 -30.69,86.59 -5.3,14.82 -10.76,29.59 -16.19,44.36 -5.65,15.4 -10.96,30.94 -16.75,46.28 -1.36,3.18 -2.68,6.37 -3.83,9.62 -3.03,8.69 -2.87,18.93 -0.85,28 -3.07,4.58 -6.15,9.16 -9.1,13.82 -2.41,3.8 -4.77,7.62 -6.65,11.72 -1.59,3.45 -4.73,9.64 -5.59,14.15 -0.27,1.46 -0.58,2.78 -0.99,4.13 -1.04,2.21 -2.08,4.41 -3.08,6.63 -1.81,4.04 -3.62,8.24 -5.06,12.46 -1.56,4.53 -2.17,9.43 -2.49,14.17 -0.48,7.06 3.22,15.02 8.04,19.86 5.53,5.52 13.44,8.57 21.22,8.63 7.81,0.05 15.12,-2.15 22.25,-5.06 5.22,-2.13 10.24,-4.44 15.24,-7.03 2.02,-1.04 3.96,-2.24 5.84,-3.52 2.32,-0.27 4.63,-0.58 6.88,-1.2 3.44,-0.96 6.86,-2.72 9.96,-4.71 1.97,2.1 4.25,3.9 6.8,5.28 3.64,1.98 7.97,4.92 11.91,5.57 3.23,0.55 6.47,1 9.72,1.35 3.24,0 8.02,-0.86 11.55,-1.84 5.91,-1.63 10.97,-4.46 15.75,-7.81 10.29,13.2 27.73,20.37 44.46,21.27 4.36,0.23 10.59,-0.5 13.75,-1.52 4.55,-1.44 9.43,-3.24 13.67,-5.89 14.63,-1.42 29.28,-2.64 43.92,-3.94 -1.63,2.04 -3.26,4.08 -4.92,6.09 -4.11,3.72 -8.12,7.55 -12.09,11.43 -2.54,0.78 -4.92,1.89 -6.99,3.35 -25.43,18.01 -49.93,37.46 -74.02,57.2 -11.46,9.37 -22.91,18.74 -34.34,28.15 -11.19,9.22 -22.95,18.16 -33.14,28.49 -1.27,1.29 -2.42,2.61 -3.47,3.99 -4.54,3.1 -9.04,6.29 -13.44,9.64 -12.93,9.83 -25.09,20.57 -37.78,30.69 -10.28,8.21 -20.01,16.8 -29.34,26.08 -4.39,4.36 -8.92,8.49 -13.7,12.39 -4.47,3.24 -9.12,6.14 -13.34,9.76 -7.54,6.47 -8.27,18.91 -3.5,27.09 4.84,8.28 15.82,13.46 25.24,10.27 3.5,-1.18 6.83,-2.66 10.11,-4.25 1.92,-0.77 3.84,-1.53 5.75,-2.32 12.64,-5.4 25.01,-11.22 37.27,-17.46 6.52,-3.31 13.05,-6.67 19.45,-10.25 4.29,-2.02 8.58,-4.05 12.87,-6.09 0.22,5.71 2.8,11.45 6.72,15.37 2.83,2.8 6.16,4.74 9.99,5.81 6.19,1.71 11.8,0.47 17.41,-2.28 6.22,-3.03 12.22,-6.17 18.05,-9.93 3.59,-2.3 7.15,-4.69 10.63,-7.18 3.59,-2.55 7.19,-5.12 10.78,-7.68 0.46,0.17 0.92,0.33 1.39,0.48 0.18,0.15 0.35,0.3 0.53,0.44 -2.34,2.44 -4.68,4.9 -7.02,7.33 -2.57,2.67 -5.1,5.38 -7.64,8.08 -1.56,1.65 -3.12,3.28 -4.72,4.88 -2.63,2.63 -4.76,5.47 -7.01,8.49 -2.7,3.64 -4.06,8 -5.78,12.17 -1.32,4.9 -1.32,9.82 0,14.72 1.32,4.69 3.69,8.76 7.12,12.22 3.44,3.43 7.52,5.8 12.21,7.12 1.07,0.29 2.19,0.52 3.35,0.69 -2.52,2.59 -5,5.2 -7.42,7.87 -9.16,10.12 -18.33,20.18 -27.48,30.32 -17.96,19.92 -35.75,40.03 -54.23,59.45 -7.47,7.86 -14.89,15.74 -22.41,23.57 -2.53,2.63 -5.05,5.26 -7.57,7.89 -9.07,8.87 -18.01,17.83 -26.81,27 -5.62,5.84 -8.12,13.9 -6.85,21.61 -1.91,2.3 -3.81,4.6 -5.71,6.91 -6.82,8.25 -13.67,16.49 -20.39,24.8 -3.3,4.07 -6.55,8.16 -9.77,12.27 -3.35,3.41 -6.5,6.98 -9.68,10.54 -1.07,1.2 -2.14,2.4 -3.2,3.61 -4.29,4.64 -8.44,9.41 -12.57,14.17 -8.82,10.14 -17.47,20.42 -26.38,30.45 -18.03,20.3 -36.26,40.46 -55.75,59.37 -12.27,11.92 -23.43,24.97 -32.8,39.31 -4.41,6.74 -8.38,13.61 -11.9,20.86 -2.12,4.39 -3.94,8.95 -5.73,13.47 -2.73,6.84 -5.65,14.01 -3.03,21.38 1.45,4.09 3.6,7.44 7.45,9.69 5.11,2.98 11.25,2.82 16.37,0 10.59,-5.84 19.6,-14.1 28.82,-21.83 4.68,-3.92 9.36,-7.8 14,-11.76 10.71,-9.15 21.41,-18.3 32.16,-27.41 20.27,-17.18 40.66,-34.25 60.69,-51.7 42.42,-36.95 84.28,-74.61 127.71,-110.39 10.56,-8.69 21.18,-17.34 31.63,-26.16 4.74,-4 9.49,-7.97 14.16,-12.05 2.43,-2.11 4.87,-4.2 7.23,-6.38 4.09,-3.75 9.13,-7.52 11.53,-12.59 0.04,-0.06 0.06,-0.13 0.1,-0.19 0.2,-0.14 0.4,-0.28 0.6,-0.41 10.54,-7.15 20.83,-14.65 30.95,-22.37 22.74,-17.31 45.33,-35.01 66.65,-54.04 4.33,-3.86 8.65,-7.71 12.96,-11.56 6.93,-6.19 13.84,-12.22 18.9,-20.13 2.11,-3.31 2.91,-7.23 2.59,-11.06 4.59,-3.67 9.17,-7.36 13.74,-11.06 21.71,-17.56 43.35,-35.17 65.24,-52.48 4.96,-3.92 9.92,-7.82 14.88,-11.72 0.2,-0.14 0.39,-0.28 0.58,-0.42 22.1,-16.11 44.8,-31.49 66.57,-48.08 6.05,-4.6 12.1,-9.2 17.8,-14.22 2.17,-1.93 4.25,-3.92 6.25,-6.03 0.86,-1.01 1.69,-2.02 2.49,-3.07 4.24,-5.36 5.85,-7.23 7.98,-12.58 6.76,-7.99 7.4,-20.34 2.18,-29.27 -3.44,-5.87 -9.14,-10.05 -15.53,-11.82 -5.5,-3.18 -10.98,-4.21 -17.3,-4.46 -4.2,-0.17 -8.47,0.95 -12.63,1.66 -4.12,0.69 -8.1,2.51 -11.97,3.99 -1.86,0.71 -3.73,1.35 -5.63,1.9 -1.06,-0.32 -2.13,-0.6 -3.23,-0.78 -5.42,-0.89 -10.13,-1.41 -15.46,-1.26 -7.75,0.2 -15.47,1.68 -23.12,2.8 -9.66,1.42 -19.26,3.7 -28.77,5.9 -6.18,1.43 -12.33,2.91 -18.48,4.44 -6.72,0.7 -13.39,1.82 -20.07,2.86 -3,0.46 -5.94,1.02 -8.89,1.64 -3.86,-1.87 -8.11,-2.8 -12.64,-3.03 -9.78,-0.51 -18.07,3.89 -25.92,8.93 -2.87,-0.66 -5.74,-0.86 -8.61,-0.59 1.36,-2.3 2.65,-4.64 3.85,-7.03 1.41,-2.24 2.49,-4.66 3.13,-7.01 0.16,-0.57 0.3,-1.15 0.41,-1.72 2.3,-2.51 4.6,-5.02 6.87,-7.55 3.11,-3.48 6.25,-6.93 9.32,-10.45 1.87,-2.15 3.73,-4.3 5.6,-6.45 4.84,-5.56 10.17,-11.8 11.96,-19.16 2.15,-8.87 0.26,-18.09 -5.79,-24.91 4.32,-0.69 8.47,-2.16 12.01,-4.48 13.02,-8.57 24.48,-18.92 36.17,-29.16 6.96,-6.11 13.92,-12.2 20.89,-18.3 9.73,-8.53 19.54,-16.97 29.33,-25.42 19.52,-16.84 39.2,-33.46 59.11,-49.81 14.38,-11.8 28.72,-23.67 43.16,-35.41 4.53,-3 8.91,-6.32 13.17,-9.81 0.7,-0.49 1.41,-0.98 2.12,-1.47 3.99,-2.78 7.95,-5.77 12.1,-8.37 5.64,-2.23 11.61,-5.05 15.23,-9.64 2,-2.01 3.72,-4.18 5.17,-6.52 0.04,-0.03 0.09,-0.06 0.13,-0.09 5.32,-3.15 9.55,-7.37 12.7,-12.7 3.2,-5.52 4.81,-11.47 4.83,-17.86 -0.02,-6.39 -1.63,-12.35 -4.83,-17.86 -3.14,-5.33 -7.37,-9.56 -12.7,-12.7 -6.8,-3.13 -11.54,-5.42 -19.24,-5.42 -7.64,0 -13.19,2.2 -19.94,5.42 -3.78,1.8 -7.24,4.26 -10.72,6.58 -1.74,1.16 -3.47,2.35 -5.18,3.56 -0.19,-0.01 -0.37,-0.01 -0.56,-0.02 -0.74,-0.81 -1.56,-1.55 -2.45,-2.22 -2.11,-1.63 -4.22,-3.26 -6.33,-4.89 -4.88,-2.83 -10.14,-4.25 -15.79,-4.28 -4.86,-0.56 -9.94,1.09 -14.72,2.07 -5.19,1.05 -10.3,2.88 -15.38,4.38 -3.8,1.13 -7.59,2.25 -11.39,3.38 -3.18,0.23 -6.36,0.63 -9.51,1.03 -5.06,0.65 -10.19,1.26 -15.22,2.21 -0.29,0.05 -0.58,0.12 -0.88,0.18 -4.07,-8.27 -11.51,-14.79 -20.7,-17.27 -3.12,-0.85 -6.35,-1.32 -9.59,-1.67 -1.44,-0.33 -2.88,-0.72 -4.3,-1.16 -2.68,-1.4 -5.25,-2.95 -7.76,-4.61 -1.37,-3.96 -3.56,-7.64 -6.71,-10.79 -2.41,-2.42 -5.33,-4.37 -8.52,-5.79 -0.1,-3.18 -0.34,-6.35 -0.67,-9.52 14.03,-15.7 27.98,-31.47 41.92,-47.26 36.88,-41.78 73.56,-83.77 110.43,-125.53 8.03,-9.11 16.07,-18.2 24.12,-27.29 3.58,-4.04 7.18,-8.07 10.73,-12.15 2.85,-3.28 5.71,-6.56 8.56,-9.84 0.89,-1.03 1.75,-2.03 2.62,-3.08 2.87,-3.41 5.68,-6.9 8.28,-10.51 0.81,-1.13 1.53,-2.31 2.17,-3.52 1.75,-2.66 2.8,-5.38 3.51,-8.18 0.29,-0.78 0.58,-1.56 0.88,-2.34 1.82,-6.76 1.82,-13.51 0,-20.26 -2.63,-9.54 -8.99,-17.76 -17.51,-22.77 -7.88,-4.64 -10.66,-4.17 -19.52,-5.36 -0.8,-0.11 -1.59,-0.16 -2.38,-0.16 -6.11,0 -11.74,3 -17.14,5.36l0 0 0 0zm56.23 42.97c-0.02,0.11 -0.03,0.22 -0.04,0.33 -0.01,0.01 -0.02,0.03 -0.03,0.04 0.03,-0.12 0.05,-0.25 0.07,-0.37l0 0 0 0zm-418.48 702.56c-0.07,0.19 -0.16,0.37 -0.23,0.56 0.06,-0.18 0.12,-0.35 0.19,-0.51 0.02,-0.02 0.03,-0.03 0.04,-0.05l0 0 0 0zm-116.12 26.83c0.83,-0.35 1.66,-0.7 2.49,-1.05 -0.83,0.35 -1.66,0.7 -2.49,1.05l0 0 0 0zm3.43 -1.46c-0.31,0.14 -0.63,0.27 -0.95,0.41 0.51,-0.21 1.03,-0.43 1.54,-0.65 -0.2,0.09 -0.39,0.17 -0.59,0.24l0 0 0 0zm0.59 -0.24c0.57,-0.23 1.14,-0.47 1.7,-0.72 -0.56,0.25 -1.13,0.48 -1.7,0.72l0 0 0 0z"/>
   <path class="fil2" d="M1196.84 264.76c-0.84,4.52 -1.39,9.07 -1.86,13.64 -5.43,1.13 -9.95,4.4 -14.12,7.9 -3.97,3.34 -6.64,7.87 -7.91,12.77 -1.67,0.58 -3.35,1.27 -4.64,2.02 -2.33,1.37 -4.99,3.76 -7.07,5.69 -1.75,1.64 -3.35,3.5 -4.9,5.33 -2.98,3.51 -5.97,7.03 -8.94,10.54 -4.86,5.71 -9.31,11.78 -13.93,17.67 -10.9,13.92 -21.67,27.96 -32.09,42.23 -2.06,3.56 -3.1,7.4 -3.12,11.53 0,1.73 0.19,3.4 0.56,5.03 -6.8,8.74 -13.57,17.48 -20.45,26.15 -2.9,3.65 -5.8,7.29 -8.7,10.94 -3.79,3.59 -7.56,7.21 -11.31,10.86 -7.06,6.85 -14.09,13.73 -21.07,20.68 -2.96,2.95 -5.89,5.91 -8.8,8.9 -1.77,1.81 -3.54,3.63 -5.31,5.43 -4.89,5.02 -9.26,10.35 -13.14,16.19 -5.4,8.05 -3.21,19.73 3.39,26.32 0.68,0.68 1.39,1.31 2.14,1.89 0.43,2.53 1.31,5.35 2.48,7.06 0.25,0.38 0.51,0.75 0.77,1.14 1.59,2.69 3.74,4.84 6.45,6.44 4.56,3.34 10.84,3.84 16.23,2.59 4.49,-1.04 8.54,-3.39 12.43,-5.77 3.09,-1.9 6.26,-3.64 9.3,-5.63 3.19,-2.09 6.37,-4.27 9.44,-6.53 2.56,-1.91 5.14,-3.82 7.7,-5.72 5.72,-4.26 11.41,-8.53 16.98,-12.99 5.1,-4.09 10.16,-8.21 15.15,-12.44 2.09,-1.77 4.12,-3.59 6.16,-5.43 0.94,-0.86 1.9,-1.72 2.85,-2.58 3.65,-3.3 6.63,-7.1 9.46,-11.1 2.09,-2.97 2.62,-7.23 2.08,-10.9 0.07,-0.07 0.14,-0.15 0.2,-0.23 10.07,-11.58 20,-23.28 29.93,-34.98 2.85,-3.36 4.7,-6.83 4.7,-11.37 0,-3.17 -0.96,-6.29 -2.7,-8.91 1.64,-1.44 3.29,-2.88 4.93,-4.32 10.48,-9.16 21.04,-18.23 31.58,-27.31 5.88,-5.07 11.69,-10.26 17.07,-15.84 3.79,-3.92 7.07,-8.24 10.37,-12.57 3.53,-4.64 5.83,-9.86 7.86,-15.31 0.16,-0.61 0.32,-1.22 0.48,-1.84 0.38,-2.61 0.73,-5.22 1.07,-7.82 -0.04,-3.22 -0.47,-6.38 -1.25,-9.51 -0.32,-1.27 -0.95,-2.83 -1.68,-4.37 -0.02,-0.67 -0.05,-1.35 -0.1,-2.02 -0.37,-5.18 -1.87,-10.07 -5.69,-13.72 -1.32,-1.27 -2.7,-2.1 -4.22,-2.76 -0.2,-0.17 -0.41,-0.34 -0.61,-0.51 -0.2,-2.53 -0.39,-5.06 -0.58,-7.59 -0.12,-1.58 -0.24,-3.17 -0.38,-4.76 -0.21,-2.69 -0.49,-5.36 -0.89,-8.04 -0.31,-2.15 -0.86,-4 -1.55,-6.06 -1.85,-5.45 -6.4,-9.42 -12.37,-9.42 -5.35,-0.02 -11.35,3.86 -12.38,9.41l0 0 0 0zm-85.5 109.74c-0.01,0.01 -0.02,0.03 -0.03,0.03 0.02,-0.01 0.02,-0.02 0.03,-0.03l0 0 0 0 0 0z"/>
   <path class="fil2" d="M1202.46 603.49c-2.83,2.65 -3.87,6.14 -4.16,9.76 -1.76,-0.33 -3.54,-0.26 -5.09,0.31 -1.64,0.59 -3.26,1.19 -4.74,2.11 -2.2,1.38 -3.51,3.18 -4.88,5.32 -1.08,1.7 -1.58,3.94 -1.93,5.91 -0.18,0.97 -0.35,1.94 -0.53,2.92 -1.05,0.45 -2.09,0.92 -3.11,1.4 -1.65,-0.01 -3.31,0.21 -4.92,0.71 -2.57,0.79 -5.74,1.74 -7.97,3.09 -1.8,1.09 -3.49,2.24 -5.17,3.48 -4.1,3.04 -7.96,6.36 -11.95,9.56 -2.48,1.99 -4.92,4.04 -7.38,6.06 -4.8,3.94 -9.68,7.82 -14.39,11.89 -10.05,8.64 -20.22,17.15 -30.1,25.99 -20.88,18.63 -41.68,37.34 -62.31,56.24 -6.35,5.83 -12.72,11.67 -19.08,17.49 -3.71,3.4 -7.4,6.79 -11.1,10.18 -6.14,5.63 -13.14,10.72 -16.8,18.43 -1.69,2.91 -2.62,6.01 -2.81,9.32 -0.66,0.48 -1.31,0.98 -1.97,1.47 -0.26,0.21 -0.53,0.41 -0.8,0.62 -4.05,1.42 -7.94,3.47 -11.73,5.48 -5.99,3.15 -11.8,7.02 -17.38,10.87 -2.17,1.49 -4.35,3 -6.53,4.5 -7.15,4.94 -14.6,10.18 -18.6,18.14 -2.48,4.91 -3.51,9.97 -2.02,15.4 1.82,6.62 7.25,12.29 13.97,13.98 4.1,1.02 8.2,1.7 12.37,0.42 2.6,-0.8 5.09,-1.85 7.46,-3.17 2.19,-1.22 4.28,-2.64 6.34,-4.1 2.15,0.24 4.38,0.17 6.44,-0.1 3.67,-0.47 6.54,-0.86 9.94,-1.94 11.56,-3.67 22.27,-9.59 32.84,-15.46 5.28,-2.94 10.47,-6.04 15.66,-9.15 7.75,-4.63 15.74,-9.35 22.43,-15.45 3.06,-2.78 5.01,-6.66 5.81,-10.76 1.08,-1.64 1.89,-3.44 2.44,-5.39 0.47,-1.69 0.69,-3.44 0.67,-5.18 5.19,-3.29 10.38,-6.58 15.57,-9.87 3.3,2.11 7.3,3.45 11.05,3.18 3.2,-0.24 6.39,-0.38 9.4,-1.61 3.59,-1.46 6.66,-2.83 9.83,-4.96 3.67,-2.46 7.08,-5.36 10.54,-8.17 15.83,-11.54 31.77,-22.91 47.56,-34.51 6.83,-5.03 13.59,-10.19 20.33,-15.34 3.71,-2.83 7.42,-5.66 11.12,-8.5 1.34,-0.81 2.59,-1.77 3.72,-2.87 1.5,-1.15 2.99,-2.3 4.48,-3.45 5.42,-4.18 11.37,-7.73 14.2,-14.3 0.45,-0.78 0.85,-1.57 1.19,-2.37 3.27,-0.35 6.44,-1.96 8.74,-4.25 3.84,-3.84 4.99,-9.17 3.79,-14.36 -1.31,-5.68 -2.24,-11.38 -3.19,-17.13 -2.25,-17.47 -3.91,-34.98 -4.92,-52.58 -0.27,-4.68 -2.32,-8.85 -6.48,-11.28 -2.04,-1.19 -4.25,-1.76 -6.46,-1.76 -3.41,-0.02 -6.78,1.33 -9.39,3.78l0 0 0 0zm-11.53 59.08c0.66,-0.67 1.26,-1.36 1.8,-2.09 0.24,0.9 0.5,1.81 0.78,2.7 0.12,2.8 0.18,5.61 0.23,8.42 -0.29,-0.23 -0.59,-0.45 -0.88,-0.68 -2.18,-1.27 -4.49,-2.1 -6.9,-2.51 1.71,-1.9 3.37,-3.84 4.97,-5.84l0 0 0 0z"/>
   <path class="fil2" d="M1159.24 896.68c-2.41,2.41 -3.42,5.38 -3.62,8.73 -0.11,1.99 -0.25,3.98 -0.39,5.97 -1.57,-1.6 -3.43,-2.8 -5.77,-3.44 -4.71,-1.3 -9.26,0.19 -12.8,3.37 -3.47,3.13 -5.25,7.44 -5.41,12.08 -0.11,3.07 -0.33,6.15 -0.48,9.22 -0.2,3.91 -0.39,7.82 -0.58,11.73 -0.31,6.41 5.09,11.86 11.19,12.69 -0.21,2.85 -0.42,5.72 -0.66,8.57 -0.51,6.34 -0.9,12.68 -1.31,19.02 -0.35,5.56 3.96,10.36 9.08,11.84 0.01,0.05 0.02,0.1 0.03,0.15 1.98,8.31 11.46,13.46 19.53,11.09 3.02,-0.89 5.65,-2.08 7.91,-4.34 1.77,-1.77 4.19,-5.58 4.66,-8.09 0.23,-1.27 0.45,-2.54 0.6,-3.83 0.26,-0.58 0.51,-1.2 0.74,-1.82 1.87,-5.27 1.45,-10.89 1.27,-16.39 -0.1,-3.15 -0.28,-6.31 -0.45,-9.46 -0.34,-6.58 -0.64,-13.16 -0.95,-19.76 -0.24,-5.6 -0.46,-11.22 -0.65,-16.83 -0.24,-7.25 -0.29,-14.54 -0.87,-21.77 -0.26,-3.37 -1.16,-6.28 -3.62,-8.73 -2.3,-2.3 -5.46,-3.63 -8.73,-3.63 -3.25,0.01 -6.42,1.33 -8.72,3.63l0 0 0 0z"/>
   <path class="fil2" d="M1117.71 928.02c-45.56,41.73 -91.03,83.61 -135.74,126.28 -4.3,2.96 -8.61,5.91 -12.91,8.86 -8.92,6.1 -17.84,12.1 -26.58,18.44 -2.6,1.54 -4.68,3.61 -6.22,6.22 -1.41,2.41 -2.21,5.14 -2.34,7.92 -2.45,1.44 -4.88,2.88 -7.33,4.29 -5.65,3.26 -11.15,6.77 -16.71,10.15 -3.04,1.86 -6.01,3.82 -9.02,5.74 -1.85,1.17 -3.65,2.39 -5.45,3.63 -2.53,1.74 -5.23,3.74 -7.51,5.7 -2.93,2.52 -5.09,5.83 -7.35,8.96 -1.43,2.47 -2.33,5.07 -2.72,7.82 -6.21,4.22 -12.38,8.48 -18.56,12.78 -5.07,3.52 -10.06,7.18 -15.09,10.75 -2.61,1.85 -5.19,3.73 -7.8,5.59 -5.53,3.98 -11.43,7.72 -16.16,12.63 -0.69,0.72 -1.32,1.47 -1.9,2.25 -3.49,2.33 -6.97,4.68 -10.43,7.07 -11.13,7.72 -22.59,14.89 -33.91,22.32 -11.37,7.46 -22.64,15.04 -33.68,22.95 -8.7,6.22 -17.48,12.28 -26.36,18.25 -9.13,6.12 -18.11,12.48 -27.17,18.71 -8.65,5.94 -16.94,12.29 -25.31,18.61 -9.51,7.19 -19.02,14.33 -28.33,21.76 -5.8,4.48 -11.54,8.99 -16.95,13.95 -5.74,5.24 -11.19,10.78 -16.5,16.45 -5.32,5.65 -10.68,11.26 -15.87,17.01 -5.97,6.62 -12.48,13.06 -17.34,20.54 -3.06,4.7 -1.89,11.36 1.95,15.2 4.92,4.92 12.8,4.72 17.74,0 4.02,-3.84 8.32,-7.41 12.48,-11.11 4.3,-3.86 8.67,-7.67 13.08,-11.42 7.9,-6.68 15.85,-13.32 23.96,-19.75 9.4,-7 19.29,-13.25 28.98,-19.84 5.49,-3.71 11.03,-7.35 16.51,-11.07 5.16,-3.5 10.22,-7.19 15.49,-10.57 22.23,-14.3 45,-27.71 67.3,-41.88 10.91,-6.92 21.96,-13.67 33.03,-20.32 11.59,-6.97 23.3,-13.78 34.5,-21.37 24.47,-16.56 49.82,-31.96 73.07,-50.24 1.16,-1.5 2.32,-3 3.47,-4.51 1.56,-2.67 2.52,-5.51 2.88,-8.51 2.06,-1.43 4.12,-2.85 6.2,-4.24 8.95,-5.96 17.86,-11.97 26.95,-17.7 10.36,-6.52 20.82,-12.89 31.17,-19.43 1.82,-1.16 3.45,-2.51 4.82,-4.08 3.52,-1.86 7.04,-3.72 10.55,-5.58 10.51,-5.55 21.18,-10.88 31.86,-16.06 0.5,-0.24 1,-0.49 1.5,-0.73 1.36,0.32 2.79,0.51 4.39,0.51 5.28,0 10.62,-1.97 15.3,-4.22 4.34,-2.1 8.32,-4.79 12.54,-7.11 1.46,-0.8 2.92,-1.61 4.38,-2.41 2.39,0.09 4.8,-0.2 7.11,-0.91 3.03,-0.94 6.05,-1.85 9.04,-2.91 4.16,-1.46 8.18,-3.38 12.2,-5.22 3.26,-1.48 6.48,-3.05 9.7,-4.65 4.47,-2.2 8.93,-4.38 13.33,-6.7 4.29,-2.24 8.54,-4.54 12.77,-6.89 3.67,-2.05 7.21,-4.27 10.56,-6.82 3.76,-2.85 7.94,-5.82 10.24,-10.14 1.12,-2.04 2.06,-4.18 2.81,-6.4 0.21,-0.78 0.38,-1.57 0.51,-2.36 5.8,-3.93 11.46,-8.04 16.8,-12.54 4.17,-3.49 6.28,-9.91 6.28,-15.16 -0.01,-3.88 -0.98,-7.48 -2.93,-10.83 -1.9,-3.23 -4.46,-5.78 -7.69,-7.7 -4.08,-1.92 -7.37,-3.45 -12,-3.45 -3.59,0 -6.67,0.83 -9.75,2.02 -1.06,-1.18 -2.27,-2.23 -3.57,-3.11 1.8,-2.08 3.14,-4.7 3.79,-7.07 0.71,-2.57 0.8,-5.29 0.29,-7.88 3.16,-2.89 6.31,-5.78 9.46,-8.67 9.05,-8.28 8.39,-23.42 0,-31.8 -4.2,-4.2 -9.96,-6.59 -15.89,-6.59 -6.17,0 -11.45,2.5 -15.92,6.59l0 0 0 0z"/>
   <path class="fil2" d="M841.29 1194.19c-8.31,2.19 -16.35,5.27 -24.18,8.78 -3.15,1.42 -6.5,2.65 -9.54,4.3 -3.73,2.03 -7.46,4.07 -11.18,6.09 -6,3.27 -11.66,7.1 -17.43,10.73 -4.41,2.78 -8.72,5.63 -13.03,8.56 -10.37,7.09 -20.81,14.07 -31.01,21.4 -14.69,10.56 -29.38,21.12 -44.07,31.68 -39.54,28.43 -78.64,57.52 -117.87,86.38 -1.7,1.31 -3.39,2.62 -5.09,3.93 -3.1,3.13 -5.26,6.82 -6.45,11.07 -1.78,6.48 -0.86,13.55 2.53,19.35 3.29,5.6 8.73,9.8 15.01,11.53 5.91,1.63 14.19,1.26 19.34,-2.53 54.03,-39.78 108.09,-79.5 162.28,-119.06 14.15,-10.33 28.46,-20.45 42.74,-30.61 8.95,-6.38 17.91,-12.77 26.85,-19.16 8.39,-5.98 17.12,-11.76 26.24,-16.54 7.75,-4.05 11.28,-13.99 9.02,-22.19 -2.39,-8.71 -10.47,-14.37 -19.1,-14.37 -1.68,0.01 -3.38,0.22 -5.06,0.66l0 0 0 0z"/>
   <path class="fil2" d="M1096.17 1031.1c-3.59,3.43 -7.14,6.99 -10.95,10.17 -3.28,2.72 -6.6,5.4 -9.95,8.05 0.04,-0.03 0.08,-0.06 0.12,-0.09 -0.05,0.04 -0.1,0.08 -0.15,0.12 -0.03,0.03 -0.07,0.05 -0.11,0.08 -0.07,0.06 -0.14,0.12 -0.22,0.18 -0.07,0.05 -0.13,0.1 -0.19,0.15 0.04,-0.04 0.09,-0.07 0.14,-0.11 -0.38,0.29 -0.74,0.57 -1.12,0.86 0.34,-0.25 0.68,-0.51 1.01,-0.77 -0.49,0.38 -0.98,0.75 -1.46,1.13 0.05,-0.04 0.11,-0.08 0.16,-0.12 -0.22,0.17 -0.44,0.33 -0.66,0.5 -0.12,0.1 -0.24,0.19 -0.36,0.28 0.07,-0.06 0.15,-0.12 0.22,-0.17 -0.24,0.19 -0.49,0.38 -0.74,0.57 -0.62,0.4 -1.19,0.9 -1.77,1.37 0.01,-0.01 0.02,-0.02 0.03,-0.03 0.24,-0.18 0.48,-0.37 0.73,-0.56l0 0c-0.26,0.2 -0.51,0.4 -0.77,0.59 0.01,-0.01 0.01,-0.01 0.02,-0.01 -0.01,0.01 -0.01,0.01 -0.02,0.01 -0.01,0.01 -0.01,0.01 -0.01,0.01 -0.32,0.24 -0.63,0.48 -0.94,0.73 0.18,-0.14 0.35,-0.28 0.53,-0.42 -7.93,6.08 -16.29,11.59 -24.54,17.23 -8.14,5.58 -16.4,10.97 -24.94,15.91 -8.78,5.09 -17.52,10.25 -26.18,15.55 -9.1,5.57 -17.97,11.46 -26.85,17.35 -16.09,10.7 -31.64,22.2 -47.66,33 -9.52,6.43 -19.07,12.8 -28.71,19.06 -7.61,4.94 -15.31,9.82 -22.8,14.96 -8.6,5.9 -17.21,11.75 -25.66,17.84 -8.07,5.8 -16.13,11.6 -24.14,17.5 -18.45,13.61 -36.86,27.27 -55.26,40.94 -33,24.51 -66.29,48.64 -99.73,72.53 -5.41,3.86 -10.84,7.72 -16.26,11.57 -0.94,0.74 -1.88,1.45 -2.82,2.19 -1.72,1.74 -2.91,3.78 -3.58,6.14 -1,3.59 -0.48,7.52 1.4,10.74 1.82,3.11 4.84,5.45 8.32,6.4 3.33,0.92 7.81,0.66 10.74,-1.4 22.54,-16.01 44.99,-32.14 67.44,-48.25 15.67,-11.24 31.15,-22.75 46.73,-34.12 33.39,-24.36 66.28,-49.4 100.29,-72.91 16.67,-11.52 33.68,-22.56 50.24,-34.25 17.47,-12.31 34.6,-25.1 51.76,-37.84 16.37,-12.17 32.61,-24.62 47.86,-38.16 7.49,-6.66 15.13,-13.11 22.79,-19.56 7.72,-6.48 15.26,-13.14 22.79,-19.85 2.3,-2.06 4.62,-4.1 6.93,-6.15 0.06,-0.05 0.12,-0.11 0.18,-0.16 8.28,-7.34 16.57,-14.68 24.57,-22.34 1.8,-1.71 1.73,-4.73 0,-6.45 -0.88,-0.89 -2.04,-1.32 -3.19,-1.32 -1.17,0.02 -2.36,0.46 -3.26,1.33l0 0 0 0zm-26.08 22.23c-0.07,0.06 -0.14,0.12 -0.21,0.17 0.07,-0.05 0.14,-0.11 0.21,-0.17l0 0 0 0zm-0.38 0.3c0.13,-0.11 0.28,-0.21 0.41,-0.32 0,0 0.01,-0.01 0.01,-0.01 -0.14,0.11 -0.29,0.22 -0.42,0.33l0 0 0 0zm0.45 -0.35c-0.01,0 -0.02,0.01 -0.03,0.02 0.03,-0.02 0.05,-0.03 0.07,-0.05 -0.01,0.01 -0.02,0.02 -0.04,0.03l0 0 0 0zm2.49 -1.92c0.04,-0.04 0.09,-0.07 0.13,-0.11 0.17,-0.13 0.33,-0.26 0.5,-0.39 -0.21,0.17 -0.42,0.33 -0.63,0.5l0 0 0 0zm2.2 -1.7c0.02,-0.02 0.04,-0.03 0.06,-0.05 0.11,-0.08 0.22,-0.17 0.33,-0.25 0.01,-0.01 0.02,-0.02 0.03,-0.03 -0.14,0.1 -0.28,0.21 -0.42,0.33l0 0 0 0z"/>
   <path class="fil2" d="M798.12 957.55c-6.43,2.05 -12.91,3.86 -18.94,6.97 -5.21,2.7 -9.14,8.33 -10.67,13.89 -0.06,0.22 -0.12,0.45 -0.18,0.68 -2.87,1.28 -5.75,2.53 -8.63,3.79 -1.01,0.44 -2.01,0.88 -3.02,1.32 -0.89,-0.42 -1.81,-0.8 -2.76,-1.11 -1.83,-0.37 -3.68,-0.56 -5.54,-0.59 -2.91,-0.12 -6.31,1.02 -9.2,1.55 -3.03,0.55 -6.01,1.36 -9.02,2.1 -1.91,0.46 -3.81,0.93 -5.72,1.41 -2.84,-0.85 -5.94,-0.96 -8.98,-0.17 -1.4,0.37 -2.8,0.74 -4.2,1.12 -8.58,2.1 -17.49,3.23 -26.18,4.72 -6.68,1.16 -13.37,2.24 -20.04,3.47 -4.55,0.83 -9.12,1.67 -13.69,2.51 -3.66,0.69 -7.31,1.58 -10.93,2.47 -5.52,1.36 -10.71,3.49 -15.94,5.7 -5.01,2.12 -9.51,5.93 -12.66,10.31 -0.95,1.34 -1.61,2.8 -2.2,4.3 -1.57,1.1 -2.85,2.56 -4.1,4.26 -1.17,1.59 -1.92,3.33 -2.38,5.16 -1.51,2.49 -2.48,5.46 -2.22,8.2 0.84,8.94 1.7,17.85 3.18,26.72 0.81,4.83 6.19,10.32 11.07,11.06 0.03,0 0.07,0.01 0.11,0.03 0.01,-0.01 0.01,-0.01 0.02,-0.02 2.59,0.76 5.42,0.83 8.23,0.02 0.02,-0.01 0.04,-0.03 0.06,-0.03 2.49,-0.71 4.87,-2.11 6.83,-3.97 2.27,1.25 4.71,1.88 7.32,1.89 3.85,0.11 6.93,-0.93 10.24,-2.29 -0.45,0.18 -0.88,0.37 -1.32,0.55 7.59,-2.92 15.36,-5.45 23,-8.27 6.68,-2.47 13.34,-5.02 20,-7.53 7.67,-2.88 15.34,-5.77 23.01,-8.63 3.43,-1.28 6.84,-2.57 10.26,-3.86 4.22,-1.59 8.39,-3.36 12.51,-5.22 1.86,-0.84 3.62,-1.52 5.26,-2.78 1.19,-0.71 2.28,-1.52 3.27,-2.44 4.74,-1.8 9.48,-3.59 14.22,-5.38 8.74,-3.3 17.54,-6.44 26.26,-9.79 5.66,-2.16 11.21,-4.54 16.76,-6.97 3.17,-1.38 5.95,-3.53 8.57,-5.76 2.01,-1.55 3.64,-3.47 4.89,-5.73 1.33,-2.03 2.16,-3.95 2.72,-5.96 2.05,-1.64 3.75,-3.62 5.12,-5.94 2.92,-5 3.72,-11.07 2.18,-16.66 -2.52,-9.14 -11.45,-15.98 -20.84,-15.98 -1.9,-0.01 -3.83,0.27 -5.73,0.88l0 0 0 0zm-158.59 77.49c5.05,-0.82 10.03,-1.64 14.99,-2.77 -2.65,1.49 -5.29,2.98 -7.93,4.49 -1.96,1.1 -3.94,2.2 -5.91,3.3 -0.26,-1.42 -1.04,-3 -1.59,-4.33 -0.08,-0.2 -0.16,-0.39 -0.24,-0.59 0.23,-0.03 0.45,-0.06 0.68,-0.1l0 0 0 0zm-6.08 0.35c-0.15,0.19 -0.3,0.38 -0.45,0.58 0.14,-0.2 0.29,-0.39 0.45,-0.58l0 0 0 0z"/>
   <path class="fil2" d="M832.89 714.65c-2.66,0.37 -5.29,0.98 -7.93,1.51 -4.15,0.83 -8.29,1.67 -12.44,2.52 -8.31,1.71 -16.63,3.36 -24.95,5.02 -15.37,3.05 -30.81,5.61 -46.25,8.18 -6.87,0.84 -13.73,1.68 -20.59,2.52 -0.79,0.1 -1.59,0.17 -2.39,0.23 -1.36,-0.31 -2.76,-0.47 -4.19,-0.5 0.02,-0.04 0.03,-0.07 0.04,-0.11 -0.35,0.04 -0.69,0.08 -1.04,0.12 -1.12,0.05 -2.25,0.18 -3.38,0.43 -0.88,0.11 -1.76,0.22 -2.64,0.34 -1.45,0.13 -2.9,0.24 -4.37,0.34 -1.27,0.09 -2.56,0.08 -3.83,0.07 -1.56,-0.02 -3.11,-0.04 -4.66,0.13 -1.48,0.19 -2.97,0.4 -4.46,0.59 -1.67,0.47 -3.2,1.16 -4.61,2.06 -2,0.33 -4,0.67 -5.99,1.02 -7.85,1.36 -15.93,5.05 -20.11,12.21 -1.23,2.1 -1.99,4.31 -2.43,6.58 -1.54,0.77 -2.94,1.79 -4.07,3.08 -1.96,2.23 -4.37,4.85 -4.85,7.95 -0.36,2.38 -0.86,4.71 -0.69,7.11 0.24,3.29 0.85,6.56 1.35,9.81 0.34,2.19 0.66,4.4 0.98,6.6 0.09,0.71 0.17,1.43 0.26,2.15 -0.37,3.23 -0.52,6.51 -0.13,9.63 0.01,2.86 0.74,5.51 2.17,7.98 2.07,3.54 5.5,6.19 9.46,7.28 2.8,0.76 5.6,0.76 8.42,0 1.26,-0.53 2.51,-1.06 3.77,-1.59 1.73,-1.02 3.2,-2.29 4.41,-3.83 0.54,-0.08 1.07,-0.18 1.61,-0.31 1.77,2.86 4.23,5.27 7.16,6.99 4.95,2.89 10.48,3.38 16,2.09 1.26,-0.3 2.52,-0.62 3.77,-0.97 0.57,0.21 1.16,0.41 1.75,0.57 0.46,0.07 0.92,0.14 1.37,0.2 3.58,0.96 7.15,0.96 10.71,0 1.64,-0.39 3.19,-0.91 4.76,-1.48 1.97,-0.71 3.93,-1.42 5.9,-2.15 4.1,-1.51 8.21,-2.98 12.32,-4.44 7.88,-2.8 15.86,-5.28 23.83,-7.83 12.05,-3.86 24.27,-7.32 36.05,-11.94 3.58,0.1 6.97,-0.94 10.33,-2.55 3.98,-1.88 7.88,-4.44 10.98,-7.54 1.74,-1.76 3.07,-3.84 3.95,-6.09 4.52,-3.58 8.99,-7.2 13.41,-10.88 3.08,-2.55 6.14,-5.13 9.12,-7.8 1.34,-1.18 2.67,-2.37 4.01,-3.56 0.29,-0.25 0.58,-0.51 0.86,-0.78 0.41,-0.36 0.81,-0.72 1.21,-1.08 2.01,-1.79 3.22,-2.92 4.88,-5.35 2.86,-4.21 3.76,-9.41 2.27,-14.33 -0.41,-1.36 -0.97,-2.62 -1.66,-3.78 -0.03,-0.14 -0.07,-0.28 -0.11,-0.42 -1,-3.53 -2.78,-6.59 -5.35,-9.19 -1.98,-1.6 -3.92,-3.28 -6.12,-4.58 -3.27,-1.89 -6.81,-2.85 -10.6,-2.86 -0.66,-0.07 -1.31,-0.1 -1.96,-0.1 -1.77,-0.02 -3.54,0.23 -5.31,0.73l0 0 0 0z"/>
   <path class="fil3" d="M573.2 1436.33c7.87,-4.66 15.75,-9.32 23.63,-13.99 3.57,-2.1 7.32,-4.04 10.76,-6.35 19.79,-13.31 39.84,-26.3 59.26,-40.15 21.35,-15.2 42.67,-30.46 64.08,-45.58 21.77,-15.35 43.48,-30.78 65.48,-45.79 21.99,-15 43.97,-29.99 66,-44.9 44.68,-30.27 89.19,-60.82 133.71,-91.35 8.71,-5.97 17.41,-11.92 26.18,-17.8 10.96,-7.35 21.85,-14.84 32.91,-22.02 11.36,-7.37 22.68,-14.8 34.13,-22 11.54,-7.26 23.12,-14.44 34.69,-21.63 11.22,-6.97 22.43,-13.95 33.58,-21.05 5.5,-3.49 11.01,-7 16.33,-10.78 2.52,-1.78 5.02,-3.58 7.53,-5.37 3.65,-2.59 7.83,-5.33 9.62,-9.54 1.5,0.2 3.04,0.12 4.55,-0.3 2.91,-0.8 5.43,-2.74 6.95,-5.34 1.64,-2.8 1.87,-5.86 1.18,-8.97 -2.4,-10.86 -4.34,-21.83 -6.34,-32.76 -2.07,-11.24 -4.08,-22.5 -6.11,-33.75 -3.73,-20.68 -7.3,-41.39 -10.88,-62.1 0.72,-0.65 1.43,-1.3 2.16,-1.95 3.08,-2.77 3.91,-7.11 2.93,-10.97 5.05,-1.75 8.49,-7.42 8.49,-12.56 0,-7.06 -5.93,-13.47 -13.12,-13.47 -0.12,0 -0.24,0 -0.36,0.01 -14.71,0.43 -29.44,2.09 -44.11,3.37 -13.08,1.15 -26.13,2.49 -39.19,3.74 -22.47,2.15 -44.91,4.61 -67.37,6.86 1.82,-1.26 3.64,-2.53 5.46,-3.79 6.93,-4.82 13.88,-9.6 20.74,-14.5 17.96,-12.84 35.93,-25.66 53.79,-38.62 7.94,-5.75 15.86,-11.53 23.82,-17.25 8.94,-6.43 17.79,-13.05 26.86,-19.32 8.35,-5.78 16.61,-11.72 25.12,-17.29 4.71,-3.08 9.37,-6.27 14.16,-9.26 4.51,-2.81 9.02,-5.61 13.52,-8.43 11.16,-6.97 22.54,-13.65 33.91,-20.28 5.09,-2.98 6.91,-9.63 4.15,-14.8 1.36,-1.97 2.35,-4.49 2.08,-6.72 -4.28,-35.07 -10.45,-69.89 -16.58,-104.68 2.32,-2.14 4.62,-4.29 6.94,-6.43 4.88,-4.49 4.55,-12.67 0,-17.22 -2.12,-2.12 -4.76,-3.19 -7.46,-3.4 -0.21,-1.21 -0.6,-2.38 -1.22,-3.45 -1.2,-2.06 -3.68,-4.4 -6.17,-4.74 -10.82,-1.49 -21.64,-2.82 -32.51,-3.98 -9.51,-1.01 -19.04,-1.59 -28.58,-2.16 -7.98,-0.48 -16,-0.72 -23.98,-0.89 -9.21,-0.19 -18.43,-0.41 -27.64,-0.53 -12.42,-0.17 -24.85,-0.25 -37.28,-0.6 -1.17,-0.03 -2.35,-0.07 -3.52,-0.1 3.06,-3.9 6.13,-7.78 9.19,-11.67 1.62,0.65 3.42,0.79 5.11,0.32 2.19,-0.6 3.49,-1.93 4.79,-3.69 6.71,-8.96 13.19,-18.08 19.82,-27.09 6.32,-8.6 12.77,-17.09 19.26,-25.57 19.92,-25 40.48,-49.48 61.16,-73.85 20.87,-24.59 41.95,-48.98 63.06,-73.36 1.24,-1.42 2.02,-2.94 2.02,-4.87 0,-1.83 -0.74,-3.6 -2.02,-4.88 -1.3,-1.3 -3.19,-2.02 -5.06,-2.02 -0.15,0 -0.29,0.03 -0.44,0.04 -0.07,-0.42 -0.13,-0.86 -0.28,-1.28 -3.08,-8.93 -5.42,-18 -7.43,-27.23 -1.7,-7.81 -2.9,-15.72 -4.18,-23.6 -0.36,-2.99 -0.73,-5.98 -1.1,-8.97 -0.18,-1.54 -0.37,-3.08 -0.56,-4.61 -0.13,-1.06 -0.27,-2.12 -0.39,-3.19 3.63,-4.98 7.27,-9.97 10.93,-14.93 1.92,-2.58 2.09,-6.75 1.27,-9.72 -0.2,-0.72 -0.48,-1.41 -0.8,-2.08 0.15,-0.7 0.22,-1.42 0.22,-2.14 0,-2.96 -1.19,-5.84 -3.28,-7.93 -0.75,-0.59 -1.51,-1.18 -2.26,-1.76 -1.76,-1.02 -3.64,-1.53 -5.67,-1.54 -3.7,-0.48 -7.42,-0.69 -11.15,-0.69 -2.94,0 -5.89,0.14 -8.83,0.39 -6.23,0.53 -12.45,1.04 -18.66,1.68 -14.47,1.49 -28.95,3.02 -43.41,4.56 -21.72,2.33 -43.45,4.73 -65.22,6.56 -17.6,1.47 -35.22,2.95 -52.83,4.43 -7.54,0.63 -15.08,1.26 -22.62,1.89 -2.41,0.2 -4.82,0.47 -7.24,0.6 -28.94,1.53 -57.88,3.07 -86.81,4.61 -16.15,0.86 -32.3,1.71 -48.47,2.57 -24.63,1.31 -49.29,2.09 -73.94,3.08 -6.69,0.27 -12.27,5.38 -12.27,12.27 0,6.49 5.58,12.54 12.27,12.27 3.31,-0.14 6.63,-0.26 9.95,-0.38 -3.24,7.22 -6.5,14.44 -9.75,21.66 -1.09,2.46 -0.73,5.29 1.78,6.76 0.49,0.28 1.05,0.48 1.63,0.57 -9.37,29.87 -18.95,59.66 -28.54,89.46 -2.7,8.39 -5.61,16.72 -8.45,25.07 -3.27,9.6 -6.36,19.28 -9.83,28.82 -4.63,12.72 -9.26,25.42 -13.88,38.14 -3.38,9.3 -7.06,18.5 -10.61,27.74 -2.8,7.29 -5.52,14.62 -8.43,21.87 -4.44,11.06 -8.89,22.12 -13.34,33.17 -6.23,15.48 -12.76,30.83 -19.17,46.23 -11.06,25.68 -22.01,51.38 -32.79,77.17 -5.22,12.27 -10.5,24.49 -16.13,36.58 -0.94,2.03 -1.95,4.02 -2.95,6.02 -1.86,-0.96 -3.93,-1.48 -6.01,-1.48 -1.16,0 -2.33,0.16 -3.46,0.47 -6.57,1.82 -11.45,9.36 -9.14,16.11 0.83,2.45 1.66,4.89 2.5,7.33 -1.13,0.99 -2.1,2.12 -2.88,3.44 -1.89,3.23 -2.4,7.15 -1.41,10.75 0.79,2.86 2.61,5.42 4.98,7.29 1.22,2.61 3.19,4.89 5.62,6.32 1.14,0.66 2.38,1.09 3.65,1.4 2.41,7.06 4.81,14.12 7.22,21.17 2.14,6.27 4.37,12.51 6.54,18.77 1.14,3.23 2.24,6.46 3.44,9.67 0.41,1.09 0.85,2.17 1.27,3.26 -0.88,0.47 -1.73,1.03 -2.52,1.82 -2.14,2.13 -3.35,5.07 -3.35,8.1 0,3.04 1.22,5.98 3.35,8.12 1.99,1.99 5.22,3.61 8.12,3.36 1.46,-0.12 2.93,-0.23 4.4,-0.35 0.74,1.1 1.51,2.2 2.31,3.28 2.01,2.7 4.04,4.76 7.41,5.69 3.19,0.88 6.68,0.43 9.54,-1.25 3.53,-2.06 5.78,-5.92 6.11,-9.91 7.21,-0.75 14.42,-1.65 21.61,-2.57 18.07,-2.32 36.11,-4.96 54.02,-8.29 5.24,-0.97 10.44,-2.08 15.64,-3.25 -7.29,6.24 -14.62,12.43 -21.9,18.65 -12.28,10.48 -24.55,20.96 -36.81,31.43 -21.77,18.59 -43.46,37.26 -65.18,55.89 -22.24,19.07 -44.43,38.2 -66.61,57.34 -2.65,2.29 -4.04,6.23 -4.15,9.66 -2.66,1.67 -4.65,4.29 -5.49,7.32 -0.15,1.12 -0.31,2.23 -0.45,3.35 0.01,2.27 0.57,4.39 1.71,6.36 9.96,22.95 19.55,46.21 31.13,68.41 -0.45,1.88 -0.48,3.86 0.04,5.75 1.54,5.6 7.72,9.73 13.51,8.29 2.49,0.25 5.07,-0.2 7.29,-1.5 0.78,-0.46 1.48,-1.03 2.14,-1.65 15,-5.05 29.98,-10.18 44.93,-15.39 10.92,-3.81 21.83,-7.58 32.63,-11.7 18.41,-7.03 36.77,-14.13 55.02,-21.54 -25.79,34.9 -51.63,69.76 -77.6,104.54 -19.83,26.56 -39.6,53.17 -59.61,79.62 -0.25,0.3 -0.49,0.61 -0.71,0.94 -4.17,5.52 -8.36,11.03 -12.55,16.53 -28.13,36.83 -56.09,73.81 -84.39,110.53 -17.41,22.59 -34.83,45.18 -52.24,67.79 0.31,-0.4 0.62,-0.8 0.92,-1.2 -2.96,3.89 -5.64,8 -8.41,12.01 -3.85,5.57 -7.7,11.13 -11.56,16.7 -0.59,0.86 -1.1,1.78 -1.64,2.68 -1.87,3.14 -3.75,6.29 -5.62,9.42 -2.41,4.03 -4.77,8.06 -7.11,12.12 -1.73,0.74 -3.46,1.48 -5.18,2.24 -3.07,1.34 -5.45,5.09 -6.3,8.17 -0.97,3.54 -0.47,7.39 1.38,10.55 1.79,3.06 4.76,5.35 8.17,6.29 1.22,0.16 2.43,0.33 3.64,0.49 2.48,0 4.78,-0.63 6.91,-1.87 9.64,-4.22 19.41,-8.17 28.85,-12.84 6.38,-3.17 12.77,-6.34 19.16,-9.52 14.79,-7.34 29.58,-14.69 44.37,-22.03 2.2,-1.09 4.28,-2.3 6.39,-3.56 6.81,-4.02 13.6,-8.05 20.41,-12.07zm594.63 -492.94c2.11,11.23 4.19,22.45 6.42,33.66 1.73,8.8 3.47,17.61 5.54,26.34 -3.48,0.46 -6.58,1.85 -9.71,3.64 -2.6,1.49 -5.17,3.01 -7.75,4.53 -4.89,2.89 -9.8,5.75 -14.71,8.62 -11.86,6.95 -23.7,13.93 -35.53,20.92 -10.24,6.05 -20.45,12.15 -30.6,18.35 -12.02,7.33 -23.88,14.86 -35.75,22.45 -19.69,12.58 -39.05,25.7 -58.31,38.92 -22.51,15.43 -45.01,30.86 -67.5,46.32 -43.84,30.11 -87.88,59.93 -131.76,90 -43.94,30.11 -87.21,61.2 -130.59,92.11 -7.39,5.27 -14.78,10.45 -22.31,15.48 -13.44,9.01 -26.89,18 -40.32,27 -2.43,1.63 -5,3.03 -7.51,4.52 -3.67,2.16 -7.35,4.33 -11.02,6.49 10.76,-9.44 21.53,-18.87 32.38,-28.21 45.08,-38.79 90.26,-77.49 135.52,-116.09 36.32,-30.98 73.02,-61.53 109.31,-92.54 25.53,-21.83 51.07,-43.65 76.61,-65.47 5.15,-4.4 10.17,-8.96 15.23,-13.45 14.09,-12.48 28.16,-24.97 42.25,-37.45 17.09,-15.16 34.31,-30.18 51.16,-45.61 23.18,-21.23 46.37,-42.46 69.57,-63.7 16.84,-15.41 33.72,-30.77 50.64,-46.1 2.81,16.45 5.66,32.88 8.74,49.27zm62.19 -260.63c0.17,0.77 0.46,1.49 0.8,2.18 -7.63,4.49 -14.98,9.44 -22.33,14.35 -8.35,5.57 -16.66,11.2 -24.83,17.02 -17.85,12.71 -35.31,25.94 -52.76,39.18 -7.19,5.45 -14.4,10.88 -21.61,16.31 -7.96,5.98 -15.85,12.06 -23.89,17.94 -16.75,12.29 -33.43,24.7 -50.37,36.73 -7.07,5.03 -14.15,10.06 -21.23,15.09 -3.87,2.75 -7.7,5.59 -11.61,8.32 -1.38,-0.01 -2.84,0.29 -3.85,1.06 -1.02,0.77 -2.04,1.54 -3.05,2.32 -24.51,2.39 -49.03,4.76 -73.55,7.05 0.07,-0.07 0.14,-0.12 0.21,-0.19 21.75,-17.03 42.52,-35.21 63.27,-53.42 18.3,-16.04 36.4,-32.32 54.47,-48.62 9.96,-8.99 20.05,-17.86 29.89,-26.99 10.67,-9.89 21.35,-19.78 32.02,-29.67 19.65,-18.22 39.15,-36.59 58.63,-54.98 17.68,-16.7 35.46,-33.29 53.28,-49.84 5.05,28.8 10.25,57.59 16.51,86.16zm-4.49 -414.88c0.47,3.9 0.84,7.85 1.46,11.74 0.45,2.76 0.77,5.57 1.34,8.32 1.45,6.99 3.13,13.82 5.34,20.62 1.11,3.4 3.81,5.92 7.07,6.72 -22.32,25.75 -44.59,51.53 -66.63,77.52 -21.54,25.4 -43.29,50.66 -63.97,76.77 -4.39,5.54 -8.77,11.1 -13.09,16.69 -1.31,-0.68 -2.76,-1.08 -4.25,-1.08 -2.22,0 -5.13,0.9 -6.58,2.73 -7.9,9.95 -15.82,19.9 -23.85,29.76 -3.46,4.24 -6.92,8.49 -10.4,12.71 -0.09,0.12 -0.19,0.23 -0.29,0.35 -11.09,-0.33 -22.23,-0.87 -33.24,-2.26 -2.95,-0.41 -5.91,-0.79 -8.87,-1.18 6.06,-1.45 12.25,-2.47 18.32,-3.63 3.58,-0.69 5.57,-4.92 4.66,-8.22 -0.46,-1.66 -1.58,-3.11 -3.07,-3.99 -1.06,-0.62 -2.14,-0.86 -3.27,-0.86 -0.61,0 -1.23,0.07 -1.87,0.19 -0.43,0.09 -0.86,0.16 -1.28,0.24 4.65,-5.19 9.29,-10.41 13.95,-15.61 2,-2.22 3.25,-4.75 3.31,-7.77 6.07,-7.43 12.13,-14.88 18.21,-22.31 16.59,-20.29 33.11,-40.63 49.65,-60.97 6.25,-7.7 12.53,-15.41 18.79,-23.11 2.58,-3.17 5.2,-6.3 7.73,-9.52 -0.11,0.15 -0.23,0.29 -0.34,0.44 0.24,-0.31 0.47,-0.62 0.71,-0.92 0.24,-0.31 0.48,-0.62 0.72,-0.93 27.15,-35.07 54.09,-70.32 81.12,-105.48 -0.47,0.62 -0.95,1.23 -1.42,1.85 2.92,-3.78 5.81,-7.6 8.67,-11.43 0.41,4.21 0.85,8.42 1.37,12.62zm-467.07 530.9c-15.03,2.92 -30.18,5.23 -45.34,7.29 -8.66,1.15 -17.33,2.28 -26,3.22 -3.14,0.34 -6.27,0.63 -9.41,0.89 -2.78,-7.34 -5.2,-14.84 -7.72,-22.26 -1.76,-5.16 -3.53,-10.32 -5.28,-15.49 -2.6,-7.61 -5.2,-15.23 -7.79,-22.83 4.11,-0.89 8.24,-1.72 12.37,-2.48 10.64,-1.98 21.3,-3.59 32.01,-5.2 11.47,-1.42 22.96,-3.07 34.46,-4.06 9.05,-0.78 18.09,-1.56 27.13,-2.34 5.09,-0.44 10.18,-1.03 15.28,-1.3 16.01,-0.85 32,-1.7 48,-2.55 13.33,-0.71 26.69,-0.83 40.02,-1.22 3.27,-0.1 6.53,-0.16 9.79,-0.25 -3.87,3.57 -7.61,7.32 -11.47,10.91 -4.69,4.38 -9.36,8.81 -14.12,13.12 -9.64,8.73 -19.24,17.51 -29.01,26.1 -1.68,1.47 -3.36,2.94 -5.04,4.41 -4.54,1.18 -9.1,2.36 -13.64,3.56 -14.67,3.87 -29.34,7.6 -44.24,10.48zm-72.48 245.91c-13.74,4.83 -27.48,9.67 -41.21,14.51 -4.46,1.57 -8.94,3.08 -13.42,4.57 -4.13,-8.94 -8.08,-17.95 -12.1,-26.92 -3.59,-8 -7.12,-16.02 -10.64,-24.05 8.04,-2.57 16.28,-4.46 24.47,-6.53 6.22,-1.56 12.43,-3.12 18.65,-4.68 13.55,-3.39 27.18,-6.43 40.79,-9.56 5.2,-1.19 10.49,-2.05 15.73,-3.05 7.27,-1.4 14.53,-2.8 21.8,-4.19 5.81,-1.13 11.77,-1.77 17.62,-2.64 6.17,-0.93 12.34,-1.85 18.51,-2.77 12.09,-1.31 24.17,-2.62 36.26,-3.92 3.42,-0.37 6.88,-0.54 10.33,-0.7 -4.4,6.06 -8.81,12.13 -13.21,18.19 -2.7,3.71 -5.43,7.39 -8.14,11.1 -0.72,0.05 -1.43,0.17 -2.06,0.43 -23.3,9.54 -46.8,18.64 -70.28,27.73 -11.01,4.24 -21.96,8.56 -33.1,12.48zm-212.79 409.91c6.45,-9.22 12.88,-18.44 19.34,-27.64 18.21,-23.34 36.49,-46.63 54.55,-70.09 -0.12,0.17 -0.25,0.33 -0.38,0.5 0.08,-0.1 0.15,-0.2 0.23,-0.3 0.08,-0.1 0.15,-0.19 0.22,-0.29 -0.02,0.04 -0.05,0.07 -0.08,0.11 -0.01,0 -0.01,0.01 -0.01,0.01 0,0 0.01,0 0.01,-0.01 -0.05,0.06 -0.09,0.12 -0.14,0.18 -0.21,0.27 -0.41,0.54 -0.62,0.81 0.13,-0.17 0.25,-0.34 0.39,-0.51 -0.28,0.36 -0.55,0.71 -0.83,1.07 0.11,-0.14 0.22,-0.29 0.33,-0.43 -0.13,0.18 -0.27,0.35 -0.4,0.53 0.14,-0.19 0.29,-0.37 0.43,-0.56 0.05,-0.07 0.1,-0.13 0.15,-0.2 -0.07,0.09 -0.14,0.18 -0.21,0.28 0.23,-0.3 0.46,-0.6 0.7,-0.9 0.36,-0.48 0.74,-0.96 1.1,-1.44 -0.19,0.25 -0.39,0.5 -0.58,0.75 0.62,-0.8 1.23,-1.6 1.84,-2.39 -0.42,0.56 -0.85,1.11 -1.27,1.66 28.83,-37.29 57.65,-74.58 86.48,-111.89 -0.04,0.05 -0.08,0.1 -0.12,0.16 1.01,-1.31 2.02,-2.62 3.03,-3.92 -0.09,0.11 -0.18,0.23 -0.27,0.34 0.3,-0.39 0.61,-0.79 0.91,-1.18 0.15,-0.19 0.29,-0.38 0.44,-0.57 -0.04,0.05 -0.07,0.1 -0.11,0.14 1.39,-1.8 2.78,-3.6 4.17,-5.4 0.05,-0.06 0.09,-0.12 0.14,-0.19 1.37,-1.76 2.73,-3.53 4.09,-5.3 -0.45,0.6 -0.91,1.19 -1.36,1.77 0.29,-0.37 0.58,-0.75 0.87,-1.12 -0.04,0.06 -0.09,0.12 -0.13,0.17 0.06,-0.08 0.13,-0.17 0.19,-0.25 0.41,-0.54 0.82,-1.06 1.22,-1.59 12.14,-15.62 24.01,-31.47 36,-47.22 16.89,-22.15 33.79,-44.32 50.68,-66.48 17.63,-23.09 35.4,-46.09 53.1,-69.12 11.56,-14.78 23.07,-29.6 34.65,-44.38 6.91,-8.82 13.86,-17.63 20.7,-26.52 7.57,-0.47 13.85,-6.33 13.85,-14.18 0,-1.25 -0.2,-2.48 -0.53,-3.67 1.55,-2.14 3.13,-4.25 4.65,-6.41 1.05,-1.8 1.58,-3.73 1.58,-5.81 0,-3.05 -1.22,-6 -3.37,-8.15 -2.16,-2.15 -5.11,-3.38 -8.16,-3.38 -2.78,0 -6.31,1.14 -8.14,3.38 -2.74,3.35 -5.39,6.77 -8.02,10.21 -6.77,0.32 -13.54,0.69 -20.31,1.09 -5.17,0.29 -10.31,0.56 -15.46,1.08 -14.64,1.52 -29.3,2.83 -43.87,4.89 -13.87,1.96 -27.77,3.72 -41.56,6.24 -8.66,1.58 -17.32,3.16 -25.98,4.74 -5.57,1.02 -11.09,2.38 -16.63,3.59 -10.32,2.27 -20.6,4.66 -30.87,7.12 38.43,-33.09 76.9,-66.12 115.49,-99.03 28.06,-23.92 56.19,-47.78 83.83,-72.18 12.14,-3.1 24.28,-6.18 36.38,-9.48 5.81,-1.59 11.63,-3.14 17.39,-4.87 7.32,-2.2 14.57,-4.31 21.56,-7.45 1.61,-0.95 2.89,-2.24 3.85,-3.85 1.45,-2.48 1.85,-5.5 1.08,-8.27 -1.36,-4.91 -5.76,-7.79 -10.53,-7.79 -0.88,0 -1.78,0.1 -2.67,0.3 -9.95,2.27 -19.78,5.06 -29.62,7.71 -0.05,0.01 -0.1,0.02 -0.15,0.04 3.19,-2.95 6.39,-5.88 9.56,-8.85 6.39,-6 12.39,-12.38 18.32,-18.81 4.06,-4.39 8.18,-8.73 12.33,-13.04 4.69,-1.67 8.4,-5.43 9.82,-10.23 2.42,-3.47 2.67,-8.22 0.5,-11.95 -1.43,-2.43 -3.79,-4.25 -6.5,-5.04 -2.44,-1.76 -5.38,-2.82 -8.54,-2.82 -0.11,0 -0.22,0 -0.33,0.01 -32.24,0.71 -64.51,1.24 -96.72,2.89 -13.51,0.69 -27.09,1.05 -40.57,2.19 -9.05,0.75 -18.08,1.52 -27.12,2.27 -5.19,0.44 -10.42,0.71 -15.58,1.35 -10.01,1.26 -20.01,2.52 -30.02,3.78 -8.87,1.12 -17.64,2.8 -26.44,4.35 -2.93,0.51 -5.87,1.13 -8.78,1.78 3.3,-8.54 6.51,-17.11 9.65,-25.71 3.67,-10.04 7.18,-20.16 10.76,-30.25 3.81,-10.71 7.8,-21.37 11.75,-32.03 3.85,-10.39 7.95,-20.7 11.92,-31.05 3.93,-10.2 7.8,-20.44 11.69,-30.65 3.27,-8.57 6.47,-17.19 9.65,-25.8 3.62,-9.78 7.34,-19.53 10.83,-29.36 4.59,-12.93 9.17,-25.84 13.76,-38.77 3.11,-8.75 5.99,-17.58 8.92,-26.4 2.99,-8.97 6.05,-17.93 8.88,-26.96 4.26,-13.57 8.52,-27.15 12.77,-40.74 6.46,-20.62 12.57,-41.37 18.82,-62.06 2.99,-9.91 5.76,-19.88 8.62,-29.81 2.85,-9.8 5.64,-19.6 8.39,-29.44 0.81,-2.95 1.64,-5.9 2.46,-8.85 15.43,-0.57 30.86,-1.17 46.27,-1.98 14.2,-0.77 28.41,-1.52 42.61,-2.27 31.09,-1.65 62.18,-3.32 93.27,-4.96 7.98,-0.42 15.96,-1.29 23.93,-1.96 18.14,-1.53 36.29,-3.06 54.44,-4.58 22.26,-1.88 44.5,-4.18 66.7,-6.66 14.44,-1.63 28.88,-3.23 43.32,-4.88 7.17,-0.83 14.35,-1.64 21.53,-2.46 0.75,-0.08 1.49,-0.15 2.24,-0.23 -7.97,10.88 -15.93,21.79 -24.09,32.54 -26.47,34.19 -52.75,68.53 -79.11,102.8 -34.1,42.07 -68.37,83.99 -102.62,125.94 -3.82,4.67 -7.63,9.36 -11.44,14.03 -3.17,3.88 -6.33,7.76 -9.49,11.64 -3.22,3.94 -6.22,8.01 -9.15,12.19 -3.14,4.48 -1.74,11.23 1.92,14.9 1.7,1.7 3.9,2.8 6.21,3.29 0.08,0.06 0.17,0.13 0.25,0.19 2.21,1.55 4.68,2.55 7.23,3.38 2.54,0.83 5.27,1.16 7.89,1.54 3.38,0.5 6.73,1.1 10.1,1.62 6.62,1.03 13.3,1.65 19.97,2.18 0.85,0.07 1.7,0.13 2.55,0.21 -0.15,0.22 -0.32,0.42 -0.47,0.64 -0.85,1.24 -1.51,2.46 -2.09,3.83 -0.74,1.25 -1.17,2.58 -1.28,4 -0.24,1.43 -0.4,2.87 -0.47,4.32 -0.36,5.35 4.76,9.83 9.85,9.83 2.6,0 5.11,-1.04 6.96,-2.88 1.97,-1.98 2.61,-4.25 2.88,-6.95 0,-0.08 0.01,-0.16 0.02,-0.24 1.05,-1.8 2.23,-3.52 3.46,-5.2 1.42,-1.78 2.83,-3.56 4.22,-5.36 -0.51,0.65 -1.01,1.31 -1.52,1.97 0.64,-0.83 1.27,-1.65 1.92,-2.48 6.77,0.39 13.56,0.76 20.33,1.15 9.1,0.51 18.18,0.9 27.28,1.34 9.27,0.45 18.53,1.07 27.79,1.67 14.29,0.93 28.53,2.29 42.77,3.71 9.49,0.95 18.98,2.01 28.46,3.13 -0.01,0.01 -0.01,0.02 -0.02,0.02 -1.88,3.23 -1.99,6.44 -1.41,9.97 -16.1,14.85 -32.17,29.73 -48.1,44.77 -19,17.93 -37.87,36.03 -57.06,53.77 -19.53,18.06 -38.91,36.3 -58.67,54.11 -21.95,19.75 -43.94,39.45 -66.05,59.02 -24.27,21.47 -49.05,42.32 -72.87,64.28 -1.93,1.77 -2.94,4.15 -3.21,6.63 -1.41,1.54 -2.83,3.07 -4.23,4.62 -6.21,6.87 -12.44,13.74 -17.61,21.43 -2.58,3.85 -0.75,9.39 3.05,11.61 4.15,2.43 9.07,0.81 11.61,-3.04 1.35,-2.05 2.78,-4 4.25,-5.96 1.93,-2.3 3.9,-4.56 5.87,-6.81 -0.31,1.25 -0.5,2.53 -0.5,3.83 0,4.19 1.69,8.26 4.65,11.21 2.74,2.74 7.22,5.01 11.2,4.64 63.54,-5.94 127.05,-12.07 190.39,-19.88 11.72,-1.45 23.44,-2.89 35.16,-4.43 2.66,-0.35 5.32,-0.69 7.98,-1.03 0.03,0.15 0.05,0.31 0.08,0.46 -43.62,39.26 -87,78.8 -130.41,118.29 -16.64,15.14 -33.6,29.92 -50.47,44.8 -14.35,12.64 -28.71,25.29 -43.06,37.95 -5.52,4.86 -10.97,9.8 -16.56,14.56 -41.45,35.22 -82.81,70.54 -124.5,105.5 -44.18,37.05 -88.24,74.24 -132.26,111.49 -40.59,34.36 -80.87,69.1 -121.07,103.92 -11.59,10.03 -23.16,20.09 -34.73,30.14 -3.72,3.23 -7.45,6.47 -11.18,9.7 -3.62,3.14 -7.24,6.28 -10.85,9.41 -0.73,0.64 -1.46,1.27 -2.2,1.9 -0.86,0.76 -1.73,1.53 -2.59,2.29 -1.38,0.69 -2.76,1.37 -4.15,2.06 0.11,-0.18 0.22,-0.35 0.32,-0.54 0.89,-1.39 1.63,-2.81 2.52,-4.1z"/>
  </g>
 </g>
</svg>
