<?xml version="1.0" encoding="utf-8"?>
<!-- Generator: Adobe Illustrator 27.5.0, SVG Export Plug-In . SVG Version: 6.00 Build 0)  -->
<svg version="1.1" xmlns="http://www.w3.org/2000/svg" xmlns:xlink="http://www.w3.org/1999/xlink"
	 viewBox="0 0 500 500" style="enable-background:new 0 0 500 500;" xml:space="preserve">
<g id="BACKGROUND">
	<rect style="fill:transparent;" width="500" height="500"/>
</g>
<g id="OBJECTS"  opacity="0.1">
	<path style="fill:transparent;" d="M338.247,103.259c-7.466-4.751-203.172,58.049-210.428,62.007
		c-7.256,3.958-15.832,144.463-3.298,173.488c12.533,29.024,188,58.709,197.235,55.41c9.235-3.298,58.049-141.165,60.028-151.719
		C383.763,231.89,345.503,107.876,338.247,103.259z"/>
	<g>
		<path style="fill:#19110C;" d="M240.371,81.924c0.094,0.187,0.176,0.348,0.254,0.497c0.118,0.071,0.241,0.135,0.358,0.207
			c0.35,0.212,0.691,0.438,1.034,0.661c1.058-0.032,2.408-0.087,3.99-0.062c1.911,0.013,4.166,0.027,6.537,0.043
			c2.386,0,4.906,0.054,7.391-0.059c0.294-0.007,0.583-0.034,0.873-0.051c-0.56-0.258-1.182-0.602-1.827-1.079
			c-1.079-0.772-2.232-1.796-3.512-2.771c-1.279-0.977-2.741-1.83-4.4-2.053c-1.646-0.258-3.419-0.189-5.041-0.256
			c-1.624-0.022-3.137-0.028-4.42,0.132c-1.283,0.145-2.345,0.361-3.069,0.592c-0.168,0.049-0.314,0.094-0.447,0.137
			c0.135,0.201,0.265,0.398,0.389,0.587C239.369,79.851,239.9,81.103,240.371,81.924z"/>
		<path style="fill:#19110C;" d="M207.401,96.691c0.826,0.932,1.667,1.841,2.523,2.69c-0.001-0.159,0-0.328,0.007-0.501
			c0.063-1.965,0.602-3.942,1.117-5.825c0.254-0.937,0.571-1.936,0.773-2.806c0.18-0.884,0.246-1.791,0.223-2.672
			c-0.043-1.233-0.246-2.445-0.572-3.487c-3.431,2.038-5.179,5.3-7.884,8.041c0.036,0.045,0.069,0.088,0.105,0.132
			C204.854,93.696,206.09,95.225,207.401,96.691z"/>
		<path style="fill:#19110C;" d="M252.451,84.991c-2.359-0.249-4.603-0.487-6.504-0.688c-1.114-0.107-2.1-0.242-2.963-0.366
			c1.272,0.878,2.506,1.806,3.721,2.729c1.832,1.416,3.663,2.833,5.466,4.227c0.897,0.703,1.787,1.399,2.667,2.089
			c0.864,0.68,1.701,1.288,2.596,1.725c0.542,0.246,1.08,0.491,1.607,0.73c0.539,0.259,1.057,0.53,1.552,0.804
			c0.99,0.547,1.886,1.109,2.666,1.627l-0.423,0.689c1.326-0.947,2.642-1.877,3.926-2.77c2.918-2.036,5.675-3.888,8.11-5.525
			c-0.197,0.014-0.403,0.015-0.619-0.002c-0.835-0.058-1.77-0.377-2.628-0.966c-1.799-1.165-2.775-3.616-4.555-4.121
			c-1.835-0.632-4.411,0.067-7.045,0.147C257.414,85.425,254.835,85.245,252.451,84.991z"/>
		<path style="fill:#19110C;" d="M211.609,82.505c0.882,1.342,1.464,3.044,1.679,4.99c0.099,0.967,0.093,1.989-0.091,3.018
			c-0.208,1.032-0.484,1.923-0.727,2.898c-0.54,1.919-1.096,3.776-1.172,5.533c-0.003,0.105-0.006,0.206-0.01,0.307
			c1.468,0.502,2.443,1.466,3.253,2.206c0.13,0.13,0.248,0.245,0.372,0.368c1.595,0.785,3.215,1.621,4.85,2.527
			c1.31,0.732,2.67,1.459,3.983,2.415c0.045,0.033,0.089,0.073,0.134,0.107c-0.123-0.369-0.246-0.747-0.362-1.152
			c-0.548-1.926-1.017-4.238-1.145-6.752c-0.067-1.184-0.063-2.403-0.07-3.631c-0.017,0.259-0.026,0.404-0.026,0.404
			s-0.07-1.157-0.192-3.184c-0.036-0.739-0.077-1.6-0.124-2.562c-0.152-0.877-0.374-1.735-0.686-2.547
			c-0.45-1.183-1.138-2.238-1.916-3.169c-1.584-1.85-3.465-3.23-5.064-4.4c-1.611-1.139-2.99-2.186-3.595-3.227
			c-0.304-0.511-0.43-0.967-0.472-1.276c-0.045-0.311-0.033-0.478-0.033-0.478s0.003,0.169,0.078,0.469
			c0.071,0.299,0.235,0.728,0.571,1.189c0.646,0.969,2.058,1.837,3.72,2.938c1.639,1.123,3.625,2.417,5.312,4.343
			c0.801,0.924,1.514,2.005,2.01,3.204c0.013-0.158,0.026-0.316,0.054-0.483c0.015-0.093,0.053-0.183,0.077-0.275
			c-0.045-0.248-0.114-0.632-0.21-1.164c-0.139-0.939-0.375-2.282-0.557-3.909c-0.071-0.814-0.134-1.698-0.187-2.635
			c-0.018-0.472-0.037-0.956-0.057-1.448c-0.01-0.508,0.011-1.117,0.277-1.771c0.248-0.649,0.77-1.211,1.345-1.553
			c0.588-0.322,1.196-0.494,1.781-0.6c1.201-0.203,2.246-0.205,3.362-0.259c2.201-0.036,4.619,0.183,6.622,1.298
			c1.7,0.919,2.794,2.294,3.63,3.521c0.13-0.067,0.277-0.141,0.446-0.221c0.703-0.308,1.744-0.722,3.055-0.956
			c0.025-0.005,0.053-0.008,0.079-0.013c-0.112-0.08-0.213-0.169-0.295-0.254c-0.683-0.809-1.256-1.541-1.934-2.287
			c-0.687-0.779-1.412-1.519-2.149-2.226c-1.587-0.437-2.722-1.854-4.568-2.685c-3.435-1.546-8.689-2.258-12.424-2.163
			c-0.836,0.021-1.604,0.079-2.347,0.184c-1.212,0.17-2.359,0.462-3.631,0.915c-2.956,1.053-6.297,2.115-6.919,5.26
			c-0.724,3.653,1.212,5.757,3.062,8.122C210.794,81.696,211.257,81.995,211.609,82.505z"/>
		<path style="fill:#19110C;" d="M241.875,75.793c0.278,0.313,0.486,0.382,0.968,0.264c0.466-0.105,0.965-0.206,1.441-0.252
			c1.704-0.178,3.276,0.056,4.632,0.353c0.755,0.024,1.522,0.072,2.306,0.192c1.829,0.284,3.474,1.294,4.719,2.367
			c1.279,1.067,2.313,2.19,3.319,3.005c0.729,0.608,1.41,1.087,2.001,1.413c0.792-0.057,1.588-0.125,2.432-0.186
			c1.294-0.072,2.712-0.079,4.05,0.488c0.658,0.273,1.277,0.697,1.733,1.187c0.46,0.488,0.79,1.003,1.087,1.478
			c0.579,0.966,1.073,1.749,1.73,2.344c0.64,0.599,1.359,1.01,2.059,1.194c0.449,0.117,0.884,0.142,1.279,0.111
			c0.004-0.002,0.008-0.005,0.012-0.008c2.61-1.752,4.817-3.167,6.352-4.169c1.543-0.99,2.426-1.556,2.426-1.556
			s-0.859,0.601-2.361,1.652c-1.345,0.949-3.232,2.281-5.451,3.848c0.327-0.126,0.602-0.272,0.773-0.403
			c0.235-0.182,0.341-0.304,0.341-0.304s-0.091,0.132-0.304,0.347c-0.212,0.213-0.565,0.497-1.09,0.743
			c-0.158,0.069-0.338,0.131-0.527,0.188c-2.555,1.805-5.5,3.947-8.653,6.242c-3.169,2.329-6.539,4.806-9.911,7.285
			c-3.333,2.488-6.539,5.235-8.542,8.554c-2.008,3.31-2.795,6.948-3.41,10.005c-0.596,3.061-1.101,5.66-1.45,7.455
			c-0.058,0.285-0.11,0.543-0.16,0.788c0.149-0.171,0.288-0.345,0.444-0.513c1.368-1.5,2.981-2.876,4.785-4.027
			c1.807-1.155,3.792-2.057,5.799-2.786c4.04-1.418,8.143-2.241,11.801-3.427c3.666-1.186,7.012-2.609,9.824-3.955
			c0.349-0.167,0.69-0.33,1.023-0.491c0.094-1.262,0.556-2.543,0.728-3.755c0.646-4.559,0.152-8.576,2.134-12.862
			c1.766-3.819,3.57-7.869,6.038-11.323c-0.394,0.299-0.835,0.638-1.315,1.01c-0.97,0.722-2.071,1.613-3.16,2.642
			c-1.094,1.02-2.126,2.228-3.104,3.505c-0.989,1.266-1.961,2.575-2.959,3.731c-0.983,1.169-1.992,2.186-2.881,3.027
			c-0.892,0.84-1.721,1.442-2.297,1.859c-0.589,0.402-0.937,0.61-0.937,0.61s0.315-0.257,0.827-0.747
			c0.528-0.47,1.229-1.196,2.052-2.076c0.822-0.882,1.703-1.979,2.637-3.163c0.936-1.215,1.914-2.483,2.898-3.76
			c1.016-1.27,2.122-2.512,3.318-3.489c1.171-1.002,2.373-1.768,3.416-2.403c0.682-0.422,1.274-0.796,1.775-1.116
			c0.11-0.149,0.213-0.304,0.325-0.45c0.935-1.215,3.134-2.763,1.516-4.244c-1.229-1.124-5.818-0.169-7.494-0.17
			c-3.083,0-6.43-0.321-9.503-0.012c-1.432,0.144-2.973,0.458-4.194,0.913c-0.098-2.97-0.53-6.443-2.123-9.045
			c-2.287-3.738-7.028-3.41-10.837-3.526c-5.249-0.16-9.282-0.453-14.5,1.299c-0.416,0.14-0.797,0.218-1.152,0.25
			c0.494,0.503,0.983,1.018,1.455,1.547C240.671,74.215,241.319,75.072,241.875,75.793z"/>
		<path style="fill:#19110C;" d="M223.409,84.183c0.735-0.617,1.568-1.051,2.348-1.529c0.824-0.471,1.396-0.971,2.173-1.71
			c0.392-0.349,0.874-0.729,1.473-0.97c0.078-0.032,0.159-0.043,0.238-0.07c-0.126-0.067-0.251-0.132-0.381-0.204
			c-0.41-0.205-0.844-0.43-1.296-0.628c-0.445-0.198-0.865-0.385-1.337-0.595c-0.374-0.17-0.848-0.385-1.188-0.539
			c-0.352-0.155-0.648-0.28-0.858-0.359c-0.208-0.086-0.327-0.135-0.327-0.135s0.128,0.014,0.352,0.04
			c0.212,0.027,0.628,0.081,0.926,0.12c0.385,0.049,0.838,0.103,1.313,0.213c0.479,0.101,0.973,0.273,1.463,0.465
			c0.479,0.217,0.96,0.447,1.364,0.743c0.301,0.211,0.549,0.443,0.773,0.668c0.246-0.041,0.491-0.075,0.73-0.088
			c1.142-0.04,2.269,0.043,3.401,0.294c1.866,0.376,3.645,1.159,5.325,2.104c-0.606-0.72-1.443-1.701-2.378-2.859
			c-1.006-1.225-2.327-2.511-3.961-3.251c-1.642-0.746-3.669-0.913-5.765-0.88c-1.043,0.01-2.17-0.005-3.076,0.112
			c-0.464,0.059-0.888,0.169-1.229,0.325c-0.353,0.134-0.616,0.311-0.807,0.583c-0.337,0.528-0.286,1.659-0.378,2.55
			c-0.061,0.921-0.101,1.794-0.123,2.601c-0.086,1.614-0.138,2.969-0.121,3.916c-0.005,0.432-0.004,0.767-0.001,1.018
			C222.301,85.378,222.79,84.679,223.409,84.183z"/>
		<path style="fill:#19110C;" d="M227.042,110.593c0.729,1.665,0.729,3.358,1.072,4.771c0.339,1.42,1.002,2.783,1.808,4.111
			c0.789,1.338,1.704,2.658,2.521,4.079c0.827,1.412,1.502,3.001,1.907,4.571c0.427,1.574,0.698,3.116,1.003,4.622
			c0.295,1.512,0.586,3.006,0.873,4.476c0.431,2.395,1.023,4.74,1.167,7.113c0.288-1.44,0.681-3.115,1.307-4.943
			c0.95-2.765,2.409-5.977,4.829-8.811c0.043-0.298,0.09-0.62,0.142-0.982c0.285-1.813,0.651-4.404,1.167-7.509
			c0.551-3.076,1.201-6.806,3.25-10.286c1.04-1.789,2.417-3.402,3.959-4.889c0.036-0.036,0.064-0.072,0.102-0.108
			c0.095-0.092,0.208-0.186,0.313-0.278c1.193-1.113,2.47-2.157,3.769-3.15c0.127-0.129,0.25-0.247,0.381-0.386
			c0.548-0.574,1.151-1.151,1.78-1.755c0.567-0.537,1.157-1.093,1.815-1.683c0.33-0.295,0.676-0.598,1.057-0.908
			c0.09-0.073,0.194-0.147,0.289-0.22c-0.524-0.28-1.07-0.564-1.656-0.845c-1-0.488-1.983-0.885-3.171-1.369
			c-1.08-0.476-2.058-1.148-2.965-1.825c-0.894-0.67-1.799-1.348-2.711-2.031c-1.822-1.37-3.672-2.762-5.522-4.154
			c-1.836-1.412-3.651-2.799-5.533-3.97c-1.88-1.175-3.852-2.05-5.821-2.563c-0.981-0.252-1.996-0.364-2.941-0.382
			c-0.965,0.001-1.609,0.207-2.338,0.809c-0.366,0.284-0.746,0.627-1.189,0.933c-0.438,0.307-0.88,0.548-1.305,0.769
			c-0.847,0.442-1.65,0.809-2.274,1.283c-0.632,0.465-1.054,1.027-1.232,1.688c-0.181,0.667-0.174,1.427-0.221,2.134
			c-0.012,0.234-0.024,0.456-0.036,0.68c0.101,0.509,0.185,1.022,0.239,1.537c0.27,2.692,0.081,5.356,0.157,7.819
			c0.075,2.463,0.418,4.752,0.879,6.676c0.141,0.583,0.289,1.121,0.438,1.634C225.427,108.129,226.436,109.203,227.042,110.593z
			 M228.184,86.113c0.224,0.158,0.542,0.406,0.913,0.763c0.729,0.723,1.626,1.924,2.398,3.506c0.797,1.567,1.547,3.47,2.769,5.204
			c0.613,0.857,1.348,1.67,2.258,2.236c0.899,0.588,1.964,0.847,3.09,0.916c2.271,0.106,4.636,0.099,6.803,0.18
			c2.159,0.08,4.217,0.156,5.958,0.22c1.744,0.061,3.196,0.169,4.213,0.219c1.017,0.064,1.598,0.101,1.598,0.101
			s-0.582,0.021-1.6,0.057c-1.018,0.022-2.473,0.091-4.217,0.104c-1.742,0.017-3.801,0.036-5.961,0.057
			c-2.192-0.008-4.481,0.017-6.858-0.073c-1.188-0.076-2.457-0.386-3.477-1.075c-1.032-0.663-1.818-1.577-2.439-2.509
			c-1.253-1.879-1.864-3.86-2.581-5.428c-0.691-1.586-1.411-2.84-2.083-3.597c-0.324-0.386-0.61-0.665-0.814-0.845
			c-0.208-0.177-0.318-0.271-0.318-0.271S227.957,85.96,228.184,86.113z"/>
		<path style="fill:#19110C;" d="M218.559,174.269c0.587-0.894,1.186-1.697,1.667-2.405c0.463-0.638,0.929-1.281,1.217-1.678
			c0.07-0.096,0.132-0.182,0.187-0.258c-1.179-0.359-2.329-0.738-3.443-1.1c-0.765-0.25-1.499-0.515-2.214-0.785
			c-0.515,0.04-1.028,0.089-1.533,0.171c-6.868,1.117-13.189,4.738-20.308,2.576c-4.824-1.465-10.324-5.836-14.188-8.913
			c-2.03-1.616-4.947-2.3-6.497-4.462c-0.897,2.364,0.771,4.424,1.833,6.383c2.424,4.475,5.174,8.598,8.432,12.537
			c1.145,1.385,2.244,3.035,3.925,3.564c2.844,0.897,7.402-0.043,10.387-0.011c3.662,0.04,7.154,0.781,10.828,0.205
			c2.63-0.412,5.108-1.362,7.531-2.423c0.12-0.196,0.238-0.39,0.359-0.586C217.354,176.122,217.964,175.158,218.559,174.269z
			 M208.263,174.407c-2.302,0.55-4.762,1.63-7.423,1.907c-1.312,0.158-2.626,0.217-3.91,0.242c-1.282,0.024-2.55,0.035-3.784-0.046
			c-2.467-0.115-4.784-0.783-6.487-1.803c-1.721-0.992-2.92-2.12-3.774-2.868c-0.829-0.782-1.302-1.228-1.302-1.228
			s0.512,0.399,1.411,1.098c0.895,0.694,2.197,1.679,3.897,2.57c1.693,0.92,3.893,1.405,6.294,1.471
			c1.199,0.043,2.45,0.012,3.725-0.026c1.272-0.038,2.557-0.104,3.824-0.265c2.544-0.241,4.919-1.274,7.367-1.789
			c2.482-0.548,4.792-0.102,6.675-0.368c1.893-0.238,3.409-0.882,4.369-1.473c0.97-0.586,1.441-1.045,1.441-1.045
			s-0.446,0.477-1.374,1.147c-0.929,0.647-2.387,1.514-4.367,1.843C212.87,174.126,210.559,173.83,208.263,174.407z"/>
		<path style="fill:#19110C;" d="M320.417,186.565c0.267,0.678,0.379,1.292,0.476,1.709c0.593,0.294,1.137,0.632,1.596,0.962
			c0.653,0.462,1.033,1.052,1.257,1.437c0.029,0.062,0.05,0.112,0.074,0.166c1.696-0.849,3.166-1.559,4.316-2.142
			c0.096-0.046,0.181-0.087,0.273-0.131c-2.48-1.045-5.104-3.138-7.238-4.275c-0.909-0.484-1.8-0.965-2.691-1.412
			c0.352,0.448,0.655,0.909,0.904,1.363C319.855,185.061,320.141,185.866,320.417,186.565z"/>
		<path style="fill:#19110C;" d="M310.21,187.367c0.128,0.117,0.26,0.239,0.391,0.36c0.321-0.169,0.701-0.315,1.12-0.39
			c0.74-0.149,1.62-0.35,2.576-0.376c0.956-0.055,1.977,0.033,2.986,0.179c1.003,0.188,1.998,0.434,2.881,0.806
			c0.065,0.026,0.127,0.057,0.191,0.084c-0.213-0.286-0.485-0.611-0.784-0.981c-0.461-0.535-1.037-1.204-1.588-1.845
			c-0.567-0.655-1.147-1.328-1.805-1.834c-0.619-0.545-1.348-0.904-2.089-1.237c-0.748-0.3-1.5-0.614-2.183-0.792
			c-0.679-0.179-1.257-0.456-1.67-0.569c-0.193-0.076-0.344-0.135-0.453-0.178c-1.293-0.018-2.608-0.171-3.851,0.077
			c0.132,0.887,0.389,1.8,0.805,2.672C307.448,184.826,308.718,186.072,310.21,187.367z"/>
		<path style="fill:#19110C;" d="M323.497,190.884c-0.318-0.275-0.875-0.501-1.507-0.746c-0.64-0.254-1.449-0.374-2.322-0.553
			c-0.871-0.155-1.779-0.372-2.706-0.494c-0.918-0.171-1.847-0.273-2.722-0.382c-0.876-0.087-1.707-0.227-2.427-0.255
			c-0.167-0.01-0.325-0.021-0.476-0.03c1.09,1.066,2.138,2.289,2.622,3.773c0.176,0.486,0.299,0.992,0.319,1.499
			c0.049,0.501,0.042,1-0.045,1.471c-0.064,0.391-0.184,0.748-0.323,1.083c0.412-0.281,0.829-0.548,1.251-0.786
			c1.835-1.039,3.564-2.015,5.166-2.833c1.156-0.612,2.248-1.169,3.264-1.678C323.559,190.93,323.533,190.908,323.497,190.884z"/>
		<path style="fill:#19110C;" d="M359.666,233.92c-1.141-0.501-2.221-0.431-3.323-0.065c-0.153,0.151-0.303,0.302-0.48,0.454
			c-0.979,0.842-2.299,1.586-3.727,2.259c-1.421,0.677-2.952,1.403-4.587,1.934c-1.636,0.531-3.385,0.75-4.987,0.702
			c-1.609-0.027-3.079-0.299-4.319-0.553c-1.242-0.256-2.25-0.572-2.958-0.77c-0.705-0.218-1.106-0.342-1.106-0.342
			s0.416,0.062,1.145,0.17c0.717,0.105,1.816,0.266,3.006,0.44c1.239,0.174,2.694,0.299,4.236,0.285
			c1.544-0.015,3.169-0.223,4.73-0.735c1.571-0.48,3.093-1.175,4.545-1.782c1.095-0.462,2.115-0.924,2.981-1.438
			c-0.053,0.002-0.105,0.019-0.158,0.008c-0.66-0.137-1.227-1.267-1.706-1.72c-0.683-0.646-1.386-1.288-2.094-1.91
			c-1.528-1.342-3.151-2.581-4.866-3.676c-3.276-2.091-7.189-3.94-11.172-3.706c-2.204,0.13-4.769,1.391-6.422,3.046
			c0.869-5.469,1.11-11.114,1.58-16.845c0.556-6.793,1.575-13.893,0.132-20.56c-0.248-0.045-0.503-0.129-0.757-0.206
			c0.097,1.155,0.023,2.43-0.134,3.766c-0.372,2.928-0.526,6.36-0.661,10.041c-0.118,3.682-0.206,7.615-0.253,11.559
			c-0.081,3.95-0.206,7.874-0.01,11.52c0.092,1.817,0.325,3.574,0.424,5.308c0.109,1.727-0.013,3.414-0.34,4.889
			c-0.206,0.967-0.475,1.845-0.764,2.655c2.473,0.208,4.882,0.7,7.088,1.386c2.335,0.71,4.415,1.652,6.253,2.547
			c0.337,0.021,0.671,0.047,0.995,0.086c3.156,0.374,5.967,0.358,9.064-0.235c0.173-0.075,0.349-0.151,0.514-0.222
			c0.503-0.201,1.071-0.477,1.685-0.75c0.611-0.289,1.275-0.541,1.782-0.94c0.514-0.384,0.913-0.964,1.342-1.503
			c0.414-0.549,0.924-1.03,1.406-1.332c0.479-0.316,0.945-0.438,1.253-0.523c0.317-0.07,0.498-0.092,0.498-0.092
			s-0.175,0.057-0.454,0.208c-0.283,0.14-0.653,0.4-1.043,0.743c-0.403,0.339-0.733,0.833-1.097,1.399
			c-0.361,0.561-0.769,1.22-1.408,1.737c-0.221,0.169-0.45,0.306-0.68,0.43c0.739-0.203,1.472-0.429,2.182-0.72
			c1.694-0.695,4.233-2.227,4.473-4.237C361.635,235.279,360.872,234.45,359.666,233.92z"/>
		<path style="fill:#19110C;" d="M264.962,241.818c0.811-0.029,1.661-0.08,2.537-0.014c1.753,0.202,3.338,0.565,5.009,0.585
			c1.65,0.049,3.342-0.162,5.056-0.157c0.401,0.003,0.798,0.021,1.194,0.048c-0.023-0.054-0.044-0.106-0.067-0.161
			c-0.606-1.523-1.378-3.278-2.091-5.199c-0.737-1.913-1.453-3.977-2.167-6.043c-0.672-2.079-1.355-4.155-1.914-6.126
			c-0.423-1.415-0.701-2.751-1.091-3.895c-2.88-2.204-6.317-3.787-9.567-5.044c-6.029-2.331-10.455-2.614-16.745-2.045
			c-2.73,0.247-6.713-0.93-6.428,2.597c2.175,1.849,4.874,1.154,7.222,2.365c-0.18-0.27-0.372-0.535-0.595-0.776
			c-0.345-0.404-0.756-0.756-1.159-1.073c-0.407-0.311-0.803-0.6-1.164-0.816c-0.288-0.181-0.669-0.421-0.869-0.546
			c-0.213-0.132-0.334-0.208-0.334-0.208s0.139,0.036,0.382,0.098c0.238,0.074,0.592,0.155,0.991,0.319
			c0.398,0.164,0.872,0.355,1.343,0.64c0.474,0.279,0.949,0.645,1.364,1.081c0.406,0.444,0.746,0.945,0.985,1.442
			c0.141,0.278,0.24,0.553,0.325,0.817c1.506,1.568,2.92,4.324,3.496,5.623c2.011,4.532,3.224,8.693,6.582,12.531
			c1.348,1.541,2.911,2.841,4.599,3.975c0.235,0.005,0.461,0.024,0.699,0.025C263.343,241.864,264.148,241.846,264.962,241.818z
			 M252.824,223.262c-0.295-0.175-0.73-0.427-1.174-0.834c-0.441-0.404-0.936-0.914-1.367-1.527
			c-0.441-0.605-0.834-1.293-1.237-1.958c-0.394-0.672-0.779-1.329-1.169-1.92c-0.396-0.586-0.782-1.122-1.181-1.524
			c-0.396-0.399-0.75-0.726-1.033-0.912c-0.271-0.208-0.448-0.301-0.448-0.301s0.196,0.03,0.532,0.135
			c0.325,0.122,0.81,0.309,1.296,0.682c0.482,0.372,1.013,0.859,1.467,1.465c0.468,0.596,0.865,1.294,1.233,1.985
			c0.357,0.699,0.718,1.38,1.071,2.005c0.361,0.618,0.71,1.192,1.086,1.626c0.373,0.435,0.714,0.784,0.977,1
			c0.259,0.222,0.424,0.329,0.424,0.329S253.128,223.423,252.824,223.262z"/>
		<path style="fill:#19110C;" d="M334.247,241.68c-2.787-0.697-5.812-1.2-8.841-1.188c-3.03-0.019-6.057,0.429-8.807,1.191
			c-2.755,0.747-5.259,1.76-7.275,2.886c-2.011,1.126-3.655,2.18-4.71,3.045c-0.563,0.392-0.953,0.761-1.246,0.986
			c-0.285,0.234-0.437,0.358-0.437,0.358s0.128-0.149,0.367-0.428c0.248-0.271,0.574-0.711,1.063-1.198
			c0.959-0.989,2.404-2.368,4.398-3.693c1.989-1.315,4.46-2.7,7.339-3.617c2.859-0.967,6.084-1.471,9.316-1.488
			c0.519,0.006,1.033,0.047,1.549,0.079c0.215-0.858,0.408-1.783,0.553-2.773c0.202-1.438,0.22-2.983,0.009-4.633
			c-0.199-1.646-0.543-3.424-0.705-5.3c-0.369-3.739-0.291-7.718-0.267-11.658c0.069-3.948,0.145-7.908,0.422-11.617
			c0.248-3.709,0.729-7.16,1.144-10.1c0.199-1.345,0.367-2.555,0.384-3.646c-0.065,0.042-0.124,0.08-0.192,0.123
			c-1.8,1.102-4.331,2.75-7.447,4.584c-3.101,1.885-6.759,3.876-9.686,7.203c-2.988,3.225-5.622,7.304-8.089,11.349
			c-1.197,2.029-2.197,4.116-2.695,6.317c-0.533,2.199-0.654,4.478-0.675,6.699c0.011,4.442,0.354,8.739-0.175,12.409
			c-0.243,1.83-0.659,3.473-1.204,4.881c-0.56,1.406-1.256,2.513-1.854,3.391c-1.254,1.72-2.077,2.602-2.077,2.602
			s0.17-0.249,0.488-0.716c0.309-0.473,0.77-1.163,1.269-2.085c0.514-0.91,1.079-2.054,1.478-3.429
			c0.388-1.377,0.656-2.997,0.803-4.76c0.341-3.541-0.323-7.685-0.46-12.271c-0.063-2.29,0.007-4.716,0.557-7.146
			c0.515-2.449,1.615-4.773,2.874-6.88c1.293-2.104,2.651-4.078,4.049-6.035c1.405-1.943,2.868-3.827,4.491-5.481
			c0.764-0.788,1.564-1.532,2.389-2.211c0.06-0.104,0.12-0.199,0.179-0.305c0.693-1.234,0.87-2.874-0.031-4.288
			c-0.4-0.711-0.94-1.394-1.542-2.049c-0.605-0.641-1.342-1.259-2.091-1.895c-0.738-0.654-1.509-1.336-2.2-2.128
			c-0.692-0.787-1.271-1.728-1.632-2.681c-0.382-0.959-0.555-1.929-0.587-2.85c-0.052,0.031-0.107,0.05-0.158,0.083
			c-2.099,1.354-4.022,2.994-6.076,4.442c-1.479,1.043-2.785,2.266-4.049,3.535c-1.371,1.377-2.057,2.806-3.715,3.871
			c-2.078,1.334-3.952,3.273-5.682,5.025c-4.456,4.51-7.616,8.751-9.783,14.791c-0.842,2.348-1.701,4.706-2.29,7.095
			c0.64,1.246,1.154,2.671,1.682,4.097c0.72,1.914,1.401,3.982,2.092,6.046c0.65,2.078,1.297,4.158,1.839,6.129
			c0.565,1.964,0.986,3.834,1.403,5.42c0.047,0.193,0.092,0.376,0.135,0.549c0.537,0.075,1.029,0.174,1.46,0.288
			c0.415,0.078,0.825,0.167,1.228,0.267c3.162,0.766,5.873,2.132,8.111,3.366c2.236,1.256,3.985,2.476,5.218,3.308
			c0.942,0.658,1.568,1.095,1.807,1.262c0.274,0.016,0.545,0.032,0.802,0.045c1.231,0.072,2.256,0.175,2.974,0.23
			c0.717,0.061,1.128,0.096,1.128,0.096s-0.411,0.019-1.131,0.051c-0.719,0.026-1.747,0.088-2.98,0.111
			c-1.233,0.015-2.671,0.06-4.211,0.059c-1.54,0.029-3.197-0.099-4.735,0.165c-1.56,0.208-2.857,1.095-3.978,2.114
			c-1.115,1.014-2.161,2.065-3.234,2.747c-1.054,0.709-2.114,0.997-2.843,1.045c-0.368,0.019-0.654-0.011-0.845-0.039
			c-0.19-0.034-0.292-0.052-0.292-0.052s0.103,0.003,0.295,0.008c0.192,0,0.473-0.02,0.819-0.092
			c0.698-0.12,1.624-0.552,2.575-1.284c0.975-0.709,1.865-1.814,2.989-2.909c0.563-0.544,1.187-1.093,1.928-1.53
			c0.735-0.445,1.59-0.74,2.438-0.882c1.716-0.266,3.366-0.108,4.899-0.065c1.209,0.047,2.35,0.119,3.383,0.18
			c-0.264-0.157-0.915-0.545-1.877-1.117c-1.279-0.758-3.118-1.826-5.376-2.985c-2.259-1.144-4.99-2.334-8.054-3.005
			c-1.529-0.335-3.137-0.529-4.771-0.524c-1.635,0.012-3.33,0.239-5.083,0.204c-1.74-0.026-3.493-0.422-5.06-0.613
			c-1.581-0.1-3.281,0.061-4.881-0.013c-1.324-0.029-2.603-0.16-3.832-0.365c-1.743,0.069-3.483,0.159-5.208,0.323
			c-4.67,0.444-9.686,1.673-12.586,5.36c3.797,1.159,7.782,2.433,10.477,5.347c0.663,0.717,1.234,1.521,1.96,2.175
			c0.78,0.703,1.713,1.211,2.637,1.711c2.512,1.362,5.07,2.741,7.866,3.329c5.471,1.15,11.107-0.85,16.695-0.672
			c0.344,0.011,0.688,0.03,1.033,0.054c-1.545,3.063-3.206,6.059-5.066,8.925c-5.843,9.001-13.751,16.721-21.711,23.911
			c-0.433,0.391-0.871,0.772-1.306,1.16l-0.215-0.139l-0.895-0.606c-0.584-0.41-1.161-0.824-1.699-1.258
			c0.039,0.69,0.038,1.4,0.03,2.114l-0.03,1.08l-0.026,0.546l0.003,0.264l0.003,0.132c0.009,0.04-0.035,0.107,0.155,0.053
			l0.483-0.248c-7.647,6.659-15.624,12.858-23.736,18.964c-1.796,1.352-3.588,2.75-5.27,4.259c0.428-2.507,0.824-5.02,1.179-7.54
			c0.484-3.44,0.909-6.89,1.31-10.342c0.313-0.278,0.628-0.551,0.946-0.812c0.702-0.576,1.417-1.11,2.145-1.601
			c-0.878-0.014-1.768-0.07-2.671-0.17c-0.041-0.005-0.082-0.011-0.123-0.016c1.36-12.268,2.296-24.594,3.215-36.904
			c0.156-0.119,0.306-0.249,0.466-0.362c0.782-0.555,1.609-1.035,2.469-1.424l-2.765-0.492c0.207-2.774,0.415-5.548,0.63-8.319
			c1.572-20.348,3.513-40.719,4.473-61.106l0.207-0.184c0.577-0.528,1.118-1.052,1.628-1.568c-0.584-0.002-1.165-0.065-1.739-0.162
			c0.066-1.315,0.137-2.631,0.214-3.95c2.462-0.995,4.832-2.032,7.235-3.629c1.721-1.144,2.531-2.06,2.953-3.181
			c4.234-0.811,8.692-0.527,13.032-0.437c7.067,0.145,12.41,0.261,18.811-3.134c2.559-1.357,4.74-2.518,7.542-3.431
			c4.197-1.367,6.182-2.97,9.511-5.661c2.239-1.809,4.89-3.243,7.405-4.676c1.961-1.117,5.411-1.224,6.978-2.488
			c-0.056-0.256-0.224-0.689-0.325-0.933c-4.283-0.202-8.375,0.341-12.568,1.232c-4.489,0.954-7.737,4.948-12.313,6.392
			c-3.293,1.038-7.432,1.047-10.913,1.309c-4.967,0.375-9.653,2.193-14.67,2.427c4.194-2.71,7.898-6.706,10.101-10.816
			c2.734-5.1,3.572-10.74,6-15.849c0.809-1.703,1.967-3.212,3.176-4.784c2.361-3.072,4.496-5.874,6.41-9.226
			c1.457-2.552,3.561-5.209,4.528-7.946c3.121-8.83-5.701-2.882-9.383-2.962c-0.004-0.023-0.003-0.047-0.007-0.07
			c-0.19,0.109-0.36,0.215-0.555,0.325c-2.745,1.538-6.016,3.279-9.763,4.638c-3.743,1.391-7.859,2.258-11.691,3.658
			c-1.923,0.678-3.768,1.505-5.445,2.541c-1.68,1.036-3.2,2.271-4.529,3.609c-2.659,2.685-4.471,5.815-5.639,8.671
			c-1.143,2.801-1.925,5.247-2.417,6.997c-0.26,2.531-1.065,4.772-1.762,6.796c-1.671,4.503-3.179,8.21-4.179,10.822
			c-1.051,2.591-1.652,4.071-1.652,4.071s0.462-1.531,1.271-4.212c0.86-2.659,2.009-6.482,3.525-11.015
			c0.71-2.275,1.467-4.758,1.498-7.373c0.013-2.602-0.793-5.401-1.384-8.341c-0.315-1.464-0.635-2.952-0.959-4.458
			c-0.328-1.509-0.617-3.039-1.027-4.497c-0.398-1.473-0.981-2.82-1.765-4.153c-0.775-1.334-1.687-2.639-2.529-4.048
			c-0.837-1.403-1.592-2.947-1.981-4.632c-0.366-1.679-0.38-3.241-0.932-4.483c-0.527-1.262-1.554-2.306-2.712-3.188
			c-1.166-0.881-2.481-1.626-3.765-2.385c-0.822-0.477-1.628-0.92-2.439-1.372c-0.363-0.131-0.74-0.273-1.138-0.44
			c-1.294-0.546-2.778-1.313-4.171-2.399c-2.359-1.195-4.631-2.266-6.759-3.184c-2.185-0.951-4.234-1.751-5.997-2.627
			c-1.764-0.86-3.235-1.774-4.311-2.692c-1.078-0.919-1.75-1.819-2.132-2.463c-0.209-0.313-0.319-0.581-0.41-0.752
			c-0.086-0.173-0.131-0.262-0.131-0.262s0.05,0.087,0.147,0.254c0.102,0.164,0.226,0.424,0.454,0.721
			c0.418,0.614,1.138,1.456,2.253,2.277c1.096,0.844,2.586,1.645,4.379,2.361c1.789,0.721,3.885,1.386,6.121,2.282
			c1.11,0.436,2.262,0.905,3.447,1.406c-0.505-0.523-1.004-1.055-1.494-1.595c-1.32-1.482-2.617-2.988-3.722-4.486
			c-0.015-0.019-0.028-0.038-0.042-0.058c-0.017,0.016-0.031,0.033-0.047,0.048c-2.093-3.018-6.864-8.584-11.221-7.021
			c-4.378,1.57-3.307,6.938-2.242,10.379c2.305,7.447,7.696,14.081,6.273,22.263c-1.319,7.585-3.975,17.294-1.035,24.773
			c2.085,5.303,5.443,12.168,10.169,15.511c3.432,2.428,6.47,5.344,9.606,8.133c1.206,0.436,2.506,0.859,3.882,1.284
			c2.269,0.673,4.671,1.484,7.105,2.029c2.428,0.589,4.92,0.704,7.284,0.688c2.36-0.018,4.586-0.072,6.494,0.032
			c1.91,0.091,3.484,0.411,4.554,0.707c0.537,0.145,0.946,0.299,1.224,0.404c0.279,0.101,0.427,0.155,0.427,0.155
			s-0.152-0.042-0.439-0.121c-0.285-0.081-0.703-0.199-1.247-0.293c-1.079-0.231-2.649-0.377-4.533-0.393
			c-1.887-0.03-4.086,0.163-6.468,0.237c-2.372,0.092-4.977,0.016-7.487-0.556c-1.247-0.28-2.468-0.619-3.658-0.98
			c-0.045,0.087-0.097,0.186-0.155,0.298c-0.227,0.434-0.595,1.138-0.96,1.837c-0.42,0.746-0.871,1.64-1.411,2.564
			c-0.531,0.929-1.122,1.904-1.712,2.881c-0.605,0.967-1.206,1.936-1.798,2.827c-0.109,0.168-0.214,0.317-0.323,0.478
			c-1.24,2.464-2.567,4.885-3.7,7.426c-0.958,2.15-1.579,4.307-2.337,6.519c-1.005,2.934-2.967,5.285-4.353,8.052
			c-3.319,6.621-10.309,10.267-11.091,18.256c3.614-2.806,7.744-5.249,11.435-8.172c5.038-3.989,6.815-7.907,9.264-13.762
			c2.409-5.76,7.003-9.315,12.393-11.971c-0.834,7.863-1.68,15.722-2.424,23.598c-0.051,0.545-0.098,1.091-0.149,1.637
			c-0.178,0.053-0.357,0.114-0.535,0.165c-0.743,0.223-1.484,0.434-2.217,0.59c0.659,0.358,1.31,0.771,1.959,1.195
			c0.194,0.124,0.387,0.259,0.58,0.386c-0.821,8.869-1.599,17.743-2.386,26.616c-1.203,13.554-2.202,27.144-3.433,40.706
			c-0.615,0.123-1.233,0.211-1.846,0.217c0.565,0.345,1.138,0.73,1.722,1.128c-0.57,6.2-1.187,12.394-1.906,18.574
			c-0.042,0.359-0.098,0.716-0.141,1.075c-0.081-0.926-0.15-1.854-0.209-2.784c-0.226-3.588-0.318-7.184-0.588-10.769
			c-0.264-3.516-1.13-6.897-2.026-10.299c-0.864-3.282-2.274-6.238-4.048-8.963c0.127,0.01,0.237,0.019,0.37,0.029
			c-0.123-0.431-0.237-0.83-0.343-1.197c-0.094-0.399-0.188-0.51-0.251-0.765c-0.113-0.454-0.116-0.956,0.024-1.446
			c0.276-0.986,0.996-1.705,1.866-2.112c-0.491-0.836-0.654-1.838-0.476-2.837c0.189-0.995,0.645-1.91,1.39-2.517
			c-0.688-0.672-1.107-1.598-1.101-2.617c0.008-1.019,0.438-1.938,1.13-2.611c-0.735-0.624-1.223-1.514-1.329-2.527
			c-0.106-1.012,0.177-1.981,0.746-2.773c-0.833-0.507-1.473-1.289-1.755-2.268c-0.283-0.978-0.154-1.983,0.283-2.849
			c-0.898-0.368-1.648-1.046-2.078-1.969c-0.424-0.926-0.447-1.938-0.151-2.861c-0.941-0.23-1.789-0.783-2.367-1.62
			c-0.568-0.845-0.773-1.831-0.666-2.802c-0.484-0.028-0.962-0.137-1.42-0.315c-0.442-0.194-0.871-0.445-1.259-0.777
			c-0.76-0.676-1.136-1.649-1.271-2.581c-0.986,0.203-1.926-0.036-2.83-0.511c-0.878-0.515-1.448-1.379-1.751-2.275
			c-0.92,0.379-1.9,0.344-2.868,0.023c-0.952-0.359-1.665-1.104-2.096-1.947c-0.841,0.514-1.821,0.645-2.822,0.453
			c-0.994-0.222-1.798-0.866-2.323-1.655c-0.766,0.614-1.727,0.864-2.742,0.773c-1.012-0.111-1.877-0.676-2.467-1.417
			c-0.702,0.677-1.64,1.029-2.659,1.004c-1.018-0.028-1.922-0.53-2.556-1.234c-0.651,0.717-1.566,1.147-2.586,1.165
			c-1.019,0.025-1.947-0.417-2.61-1.101c-0.614,0.742-1.511,1.22-2.529,1.272c-1.018,0.057-1.959-0.346-2.638-1.017
			c-0.591,0.753-1.477,1.261-2.494,1.326c-1.018,0.066-1.959-0.333-2.63-1.01c-0.592,0.748-1.484,1.247-2.502,1.304
			c-1.018,0.059-1.959-0.334-2.645-1.001c-0.589,0.754-1.469,1.27-2.484,1.359c-1.016,0.087-1.97-0.257-2.695-0.897
			c-0.557,0.792-1.405,1.346-2.411,1.509c-1.006,0.162-1.985-0.115-2.77-0.671c-0.492,0.828-1.277,1.476-2.258,1.747
			c-0.488,0.148-0.99,0.158-1.467,0.114c-0.376-0.086-1.202-0.113-2.118-0.18c0.301,0.871,0.541,1.648,0.721,1.995
			c0.179,0.453,0.239,0.94,0.235,1.45c0.009,1.018-0.491,1.935-1.143,2.619c0.764,0.626,1.213,1.509,1.357,2.519
			c0.061,0.507,0,1.002-0.141,1.468c-0.123,0.463-0.341,0.899-0.635,1.285c0.8,0.524,1.438,1.32,1.687,2.308
			c0.226,0.993,0.107,1.98-0.396,2.835c0.886,0.4,1.622,1.104,1.989,2.054c0.409,0.932,0.332,1.967-0.001,2.855
			c0.937,0.275,1.722,0.896,2.241,1.773c0.483,0.898,0.602,1.893,0.352,2.835c0.934,0.175,1.85,0.653,2.434,1.488
			c0.61,0.815,0.825,1.808,0.685,2.771c0.984,0.031,1.892,0.453,2.595,1.19c0.695,0.745,1.007,1.719,0.988,2.674
			c0.959-0.052,1.928,0.245,2.701,0.91c0.75,0.69,1.198,1.582,1.253,2.561c0.942-0.143,1.962,0.022,2.774,0.637
			c0.842,0.573,1.337,1.473,1.502,2.418c0.944-0.268,1.934-0.133,2.827,0.358c0.881,0.512,1.467,1.346,1.722,2.267
			c0.9-0.326,1.917-0.323,2.845,0.097c0.916,0.448,1.597,1.178,1.923,2.102c0.864-0.405,1.889-0.527,2.841-0.163
			c0.969,0.313,1.693,1.046,2.114,1.905c0.833-0.519,1.82-0.661,2.816-0.44c0.988,0.251,1.784,0.882,2.288,1.697
			c0.773-0.562,1.751-0.855,2.759-0.709c1.009,0.159,1.859,0.705,2.41,1.494c0.721-0.633,1.681-0.971,2.696-0.888
			c1.015,0.09,1.899,0.581,2.539,1.311c0.676-0.694,1.586-1.145,2.602-1.204c1.016-0.062,1.97,0.251,2.763,0.843
			c0.538-0.833,1.32-1.461,2.288-1.777c0.965-0.322,1.972-0.269,2.898,0.066c0.296-0.939,0.859-1.777,1.709-2.336
			c0.845-0.568,1.856-0.735,2.772-0.488c0.112-0.936,0.633-1.824,1.531-2.317c0.088-0.047,0.182-0.067,0.272-0.105
			c1.505,2.223,2.749,4.633,3.617,7.311c0.499,1.541,0.928,3.124,1.102,4.737c0.189,1.758,0.182,3.514,0.31,5.272
			c0.249,3.432,0.368,6.863,0.465,10.302c0,0.009,0.001,0.018,0.001,0.027c-2.903-1.514-6.327-2.111-9.531-2.405
			c-2.391-0.219-4.809-0.4-7.217-0.39c-0.649-0.661-0.999-1.526-1.083-2.411c-0.478,0.082-0.958,0.07-1.424-0.028
			c-0.48-0.079-0.939-0.251-1.357-0.532c-0.841-0.545-1.415-1.356-1.685-2.301c-0.928,0.375-1.898,0.364-2.859,0.067
			c-0.934-0.371-1.708-0.947-2.216-1.827c-0.397,0.286-0.84,0.529-1.3,0.664c-0.46,0.126-0.942,0.186-1.446,0.185
			c-1.002-0.077-1.908-0.432-2.652-1.099c-0.3,0.362-0.65,0.737-1.049,1.006c-0.396,0.289-0.853,0.429-1.333,0.587
			c-0.485,0.135-0.974,0.154-1.458,0.08c-0.477-0.054-0.938-0.173-1.376-0.392c-0.177,0.458-0.442,0.848-0.755,1.217
			c-0.309,0.377-0.687,0.688-1.139,0.91c-0.9,0.445-1.868,0.572-2.828,0.296c-0.154,0.943-0.642,1.82-1.466,2.398
			c-0.818,0.582-1.804,0.767-2.751,0.595c-0.064,0.961-0.481,1.873-1.241,2.53c-0.754,0.663-1.711,0.955-2.678,0.902
			c0.047,0.968-0.25,1.924-0.91,2.68c-0.65,0.765-1.546,1.203-2.514,1.323c0.205,0.955,0.085,1.943-0.404,2.82
			c-0.481,0.878-1.255,1.512-2.168,1.859c0.421,0.872,0.531,1.864,0.229,2.822c-0.3,0.958-0.977,1.705-1.827,2.138
			c0.523,0.798,0.745,1.779,0.509,2.757c-0.233,0.977-0.877,1.757-1.717,2.194c0.55,0.77,0.774,1.756,0.515,2.728
			c-0.127,0.484-0.352,0.868-0.741,1.475c-0.447,0.664-0.99,1.473-1.627,2.419l0.005,0.012c1.048-0.489,1.947-0.908,2.691-1.255
			c0.677-0.302,1.092-0.482,1.614-0.552c1.045-0.075,2.018,0.299,2.677,0.975c0.605-0.724,1.54-1.196,2.587-1.209
			c1.047,0.018,1.981,0.481,2.602,1.209c0.667-0.691,1.623-1.108,2.669-1.072c1.046,0.036,1.97,0.521,2.603,1.254
			c0.679-0.704,1.626-1.131,2.671-1.12c1.046-0.024,1.992,0.424,2.695,1.103c0.636-0.774,1.538-1.255,2.574-1.383
			c1.03-0.181,2.037,0.195,2.857,0.685c0.254-0.434,0.579-0.818,0.964-1.126c0.193-0.154,0.4-0.289,0.623-0.401
			c0.217-0.131,0.443-0.259,0.688-0.352c0.487-0.192,0.99-0.269,1.499-0.254c0.508,0.017,0.979,0.031,1.461,0.186
			c0.264-0.963,0.847-1.75,1.616-2.44c0.035-0.027,0.071-0.05,0.106-0.077c0.392-0.296,0.828-0.502,1.287-0.637
			c0.448-0.185,0.933-0.28,1.429-0.288c-0.046-1.004,0.282-1.938,0.828-2.83c0.004-0.006,0.009-0.011,0.013-0.017
			c0.586-0.847,1.529-1.385,2.451-1.597c-0.28-0.928-0.194-1.965,0.316-2.878c0.511-0.913,1.343-1.53,2.281-1.805
			c-0.338-0.919-0.329-1.954,0.074-2.918c0.419-0.934,1.11-1.751,1.938-2.265c-0.55-0.792-0.837-1.798-0.464-2.792
			c0.162-0.401,0.345-0.668,0.611-0.908c1.485,0.034,2.975,0.119,4.469,0.209c4.075,0.246,8.028,0.834,11.228,3.374
			c0.128,2.504,0.328,5.003,0.72,7.481c0.397,2.508,0.918,4.947,1.256,7.41c-0.902,5.248-1.938,10.466-3.055,15.668l-1.058-0.117
			c-1.166-0.143-2.321-0.313-3.465-0.509c0.923,0.702,1.835,1.431,2.735,2.187l1.213,1.043c-0.275,1.25-0.544,2.501-0.827,3.75
			c-0.006,0.015-0.013,0.029-0.019,0.044c-0.341,0.844-0.508,1.589-0.524,2.299c-1.547,6.697-3.187,13.378-4.84,20.071
			c-1.593,6.45-3.162,12.905-4.737,19.359c-0.159,0.013-0.323,0.019-0.478,0.033c-0.756,0.07-1.47,0.164-2.147,0.273
			c0.53,0.436,1.002,0.941,1.399,1.498c0.199,0.277,0.376,0.575,0.54,0.869c0.008,0.012,0.015,0.026,0.023,0.039
			c-3.042,12.483-6.068,24.97-9.084,37.46c-0.611,2.53-1.222,5.06-1.833,7.589c-0.489,2.025,1.167,4.118,3.126,4.464
			c2.179,0.384,3.95-1.1,4.464-3.126c3.276-12.919,6.556-25.837,9.817-38.76c0.325-0.202,0.649-0.407,0.967-0.605
			c0.89-0.548,1.744-1.134,2.597-1.641c-0.969-0.016-1.952-0.169-2.914-0.346c1.1-4.365,2.2-8.73,3.289-13.098
			c4.32-9.195,10.871-17.597,20.45-21.317c-0.036,0.444-0.128,0.88-0.271,1.289c0.471,0.158,0.907,0.4,1.282,0.714
			c0.407,0.298,0.755,0.67,1.019,1.122c0.538,0.895,0.733,1.901,0.566,2.889c1.012,0.084,1.899,0.561,2.639,1.301
			c0.697,0.781,1.085,1.724,1.104,2.718c0.968-0.06,1.995,0.168,2.811,0.821c0.845,0.615,1.345,1.538,1.54,2.485
			c0.478-0.12,0.971-0.145,1.459-0.081c0.497,0.049,0.985,0.194,1.442,0.451c0.92,0.496,1.567,1.305,1.889,2.235
			c0.917-0.392,1.936-0.411,2.927-0.075c0.975,0.381,1.751,1.036,2.206,1.932c0.849-0.533,1.854-0.717,2.881-0.529
			c1.026,0.208,1.863,0.831,2.386,1.642c0.775-0.586,1.774-0.861,2.81-0.708c1.033,0.17,1.902,0.732,2.466,1.525
			c0.744-0.614,1.73-0.961,2.771-0.855c1.04,0.117,1.942,0.612,2.551,1.383c0.708-0.658,1.671-1.077,2.716-1.02
			c1.046,0.023,1.977,0.495,2.638,1.211c0.664-0.729,1.596-1.168,2.641-1.211c1.045-0.049,2.008,0.37,2.72,1.018
			c0.61-0.768,1.507-1.269,2.545-1.402c1.041-0.106,2.029,0.207,2.791,0.808c0.552-0.794,1.403-1.393,2.429-1.594
			c1.032-0.176,2.036,0.03,2.847,0.587c0.49-0.827,1.284-1.517,2.296-1.78c1.013-0.265,2.038-0.105,2.858,0.412
			c0.432-0.864,1.217-1.551,2.227-1.828c1.01-0.277,2.038-0.082,2.84,0.447c0.446-0.85,1.251-1.519,2.271-1.758
			c1.02-0.238,2.039,0.002,2.808,0.576c0.485-0.827,1.328-1.451,2.362-1.619c1.034-0.173,2.033,0.14,2.755,0.774
			c0.543-0.792,1.434-1.341,2.478-1.43c0.261-0.02,0.517-0.012,0.766,0.022c0.238,0.033,0.485,0.096,0.821,0.179
			c0.715,0.194,1.578,0.429,2.586,0.703c-0.578-0.875-1.073-1.625-1.483-2.246c-0.187-0.293-0.326-0.493-0.443-0.708
			c-0.118-0.222-0.222-0.457-0.297-0.708c-0.304-1.001-0.18-2.031,0.264-2.901c-0.898-0.387-1.649-1.102-2.058-2.065
			c-0.416-0.96-0.403-2-0.074-2.918c-0.935-0.282-1.776-0.893-2.304-1.795c-0.531-0.901-0.669-1.926-0.46-2.885
			c-0.968-0.16-1.887-0.646-2.551-1.45c-0.664-0.807-0.952-1.809-0.845-2.771c-0.965-0.018-1.927-0.424-2.6-1.228
			c-0.674-0.801-0.896-1.838-0.659-2.75c-0.961-0.129-1.87-0.642-2.509-1.467c-0.639-0.828-0.909-1.823-0.856-2.81
			c-0.991-0.016-1.964-0.357-2.762-1.03c-0.791-0.685-1.329-1.533-1.524-2.52c-0.945,0.188-2.006,0.185-2.93-0.305
			c-0.94-0.456-1.648-1.19-2.023-2.132c-0.891,0.458-1.917,0.578-2.918,0.276c-1.014-0.25-1.809-0.952-2.318-1.772
			c-0.81,0.581-1.807,0.806-2.842,0.657c-1.036-0.136-1.905-0.747-2.496-1.499c-0.74,0.66-1.709,0.982-2.754,0.941
			c-1.045-0.046-1.966-0.561-2.618-1.264c-0.677,0.722-1.615,1.123-2.66,1.172c-1.046,0.033-2.005-0.394-2.712-1.046
			c-0.617,0.766-1.518,1.253-2.557,1.383c-1.042,0.102-2.029-0.223-2.791-0.819c-0.555,0.794-1.405,1.389-2.43,1.6
			c-1.031,0.177-2.034,0.002-2.869-0.545c-0.474,0.85-1.249,1.545-2.24,1.876c-0.993,0.33-2.023,0.255-2.916-0.151
			c-0.351,0.913-1.026,1.701-1.967,2.155c-0.942,0.455-1.976,0.503-2.909,0.206c-0.238,0.947-0.817,1.809-1.702,2.367
			c-0.883,0.56-1.908,0.72-2.866,0.527c-0.135,0.967-0.606,1.893-1.449,2.515c-0.843,0.621-1.866,0.817-2.819,0.638
			c-0.098,0.967-0.576,1.89-1.393,2.543c-0.82,0.652-1.821,0.913-2.796,0.828c-0.034,0.975-0.409,1.947-1.133,2.698
			c-0.713,0.766-1.651,1.186-2.636,1.372c0.04,0.224,0.059,0.45,0.069,0.677c-5.538,1.809-10.522,5.011-14.745,9.036
			c-0.781,0.744-1.525,1.524-2.243,2.325c1.296-5.151,2.583-10.306,3.824-15.472c0.406-0.309,0.814-0.61,1.225-0.9
			c0.915-0.645,1.843-1.244,2.784-1.798c-1.092,0.031-2.196,0.017-3.314-0.042c-0.014-0.001-0.028-0.002-0.042-0.003
			c0.115-0.489,0.235-0.978,0.35-1.467c0.301-0.738,0.595-1.479,0.917-2.208c1.009-2.287,2.12-4.532,3.363-6.7
			c0.276-0.482,0.559-0.96,0.849-1.433c0.11-0.18,0.223-0.359,0.336-0.538c0.059-0.089,0.158-0.241,0.186-0.281
			c0.706-1.026,1.432-2.034,2.23-2.991c1.612-1.931,3.067-3.185,5.001-4.757c1.478-1.203,2.975-2.381,4.475-3.556
			c0.23,0.049,0.46,0.098,0.682,0.151c1.224,0.292,2.39,0.692,3.306,1.604c-0.406-1.169-1.263-2.236-2.098-3.234
			c2.407-1.878,4.813-3.759,7.167-5.706c4.495-3.719,8.911-7.537,13.229-11.459c4.401-3.998,8.78-8.081,12.892-12.404
			c0.052-0.041,0.106-0.076,0.157-0.125c3.34-3.243,7.908-3.755,12.339-4.016c1.384-0.081,2.759-0.154,4.128-0.184
			c0.258,0.235,0.438,0.499,0.596,0.893c0.372,0.994,0.086,1.999-0.464,2.792c0.829,0.514,1.519,1.331,1.938,2.264
			c0.403,0.964,0.412,1.999,0.074,2.918c0.938,0.274,1.77,0.892,2.281,1.805c0.51,0.913,0.596,1.95,0.316,2.878
			c0.922,0.212,1.865,0.749,2.451,1.597c0.004,0.006,0.009,0.012,0.013,0.017c0.546,0.893,0.874,1.826,0.828,2.831
			c0.495,0.008,0.981,0.103,1.429,0.288c0.459,0.135,0.895,0.342,1.287,0.637c0.035,0.027,0.071,0.05,0.106,0.077
			c0.769,0.69,1.351,1.477,1.616,2.44c0.481-0.154,0.952-0.168,1.461-0.186c0.509-0.016,1.012,0.062,1.499,0.254
			c0.245,0.094,0.471,0.221,0.688,0.352c0.223,0.113,0.43,0.247,0.623,0.401c0.385,0.308,0.71,0.692,0.964,1.126
			c0.819-0.49,1.826-0.866,2.857-0.685c1.037,0.128,1.938,0.609,2.574,1.383c0.702-0.678,1.648-1.127,2.694-1.103
			c1.046-0.01,1.992,0.417,2.672,1.12c0.633-0.734,1.557-1.218,2.603-1.254c1.046-0.037,2.002,0.38,2.669,1.071
			c0.622-0.728,1.555-1.191,2.603-1.209c1.047,0.013,1.982,0.485,2.587,1.209c0.658-0.676,1.631-1.049,2.677-0.975
			c0.522,0.07,0.936,0.25,1.614,0.552c0.744,0.347,1.643,0.766,2.691,1.255l0.005-0.012c-0.637-0.947-1.181-1.756-1.627-2.419
			c-0.389-0.606-0.614-0.991-0.741-1.475c-0.259-0.973-0.035-1.959,0.515-2.728c-0.84-0.438-1.484-1.217-1.717-2.194
			c-0.236-0.978-0.015-1.96,0.509-2.757c-0.85-0.434-1.527-1.181-1.827-2.138c-0.302-0.958-0.193-1.95,0.229-2.822
			c-0.913-0.347-1.687-0.981-2.168-1.859c-0.489-0.877-0.609-1.865-0.404-2.82c-0.968-0.12-1.864-0.558-2.514-1.323
			c-0.66-0.757-0.957-1.712-0.91-2.68c-0.967,0.054-1.924-0.238-2.678-0.901c-0.76-0.657-1.177-1.569-1.241-2.53
			c-0.947,0.171-1.933-0.013-2.751-0.596c-0.824-0.578-1.312-1.455-1.466-2.398c-0.96,0.276-1.928,0.149-2.828-0.296
			c-0.451-0.222-0.829-0.534-1.139-0.91c-0.312-0.369-0.578-0.759-0.755-1.218c-0.438,0.219-0.899,0.338-1.376,0.392
			c-0.484,0.074-0.973,0.055-1.458-0.08c-0.48-0.158-0.937-0.298-1.333-0.587c-0.399-0.269-0.748-0.645-1.049-1.006
			c-0.744,0.667-1.65,1.021-2.652,1.098c-0.505,0.001-0.987-0.059-1.447-0.185c-0.46-0.135-0.903-0.378-1.3-0.664
			c-0.508,0.88-1.282,1.456-2.216,1.827c-0.961,0.297-1.931,0.308-2.859-0.067c-0.27,0.944-0.843,1.756-1.685,2.3
			c-0.418,0.28-0.877,0.452-1.357,0.532c-0.466,0.097-0.946,0.11-1.424,0.028c-0.082,0.872-0.425,1.723-1.056,2.38
			c-2.465-0.007-4.941,0.195-7.357,0.425c-1.571,0.15-3.163,0.382-4.717,0.741c1.557-1.896,3.06-3.837,4.462-5.857
			c0.839-1.208,1.648-2.44,2.434-3.69c0.054-0.005,0.111-0.004,0.165-0.009c1.267-0.113,2.467-0.373,3.601-0.605
			c-0.977-0.188-1.901-0.589-2.748-1.074c1.717-2.866,3.293-5.819,4.629-8.866c0.294-0.671,0.565-1.35,0.846-2.025
			c1.477-0.559,2.835-1.426,4.217-2.21c2.717-1.542,5.648-2.691,8.677-3.459c0.652,3.382,2.792,6.498,5.769,8.16
			c4.226,2.358,10.205,3.19,14.95,2.293c4.387-0.83,8.703-2.82,13.252-1.956c0.935,0.178,0.8-0.182,1.302,0.878
			c0.553,1.168,0.583,2.135,2.022,2.457c1.19,0.266,3.064-0.193,4.24-0.489c2.046-0.514,3.86-1.634,5.852-2.293
			c0.958-0.317,1.944-0.314,2.881-0.568c1.05-0.285,2.115-0.955,3.097-1.423c3.612-1.722,1.358-2.691-0.771-4.85
			c-3.982-4.041-8.243-9.106-13.271-12.13C339.451,243.176,336.941,242.381,334.247,241.68z M277.234,212.729
			c0.108-0.264,0.242-0.654,0.449-1.097c0.208-0.443,0.443-0.966,0.73-1.507c0.284-0.543,0.615-1.106,0.953-1.665
			c0.354-0.549,0.714-1.094,1.077-1.587c0.359-0.496,0.728-0.935,1.035-1.316c0.306-0.382,0.598-0.673,0.788-0.886
			c0.202-0.205,0.316-0.322,0.316-0.322s-0.078,0.143-0.215,0.397c-0.136,0.235-0.39,0.675-0.591,1.023
			c-0.246,0.411-0.573,0.958-0.854,1.425c-0.341,0.553-0.662,1.074-0.996,1.617c-0.343,0.537-0.674,1.055-1.022,1.601
			c-0.3,0.459-0.647,0.99-0.91,1.391c-0.227,0.334-0.511,0.751-0.665,0.977c-0.162,0.236-0.255,0.37-0.255,0.37
			S277.134,212.997,277.234,212.729z M257.787,254.346c-0.359-0.282-0.884-0.712-1.322-1.394c-0.436-0.671-0.853-1.558-0.955-2.593
			c-0.063-0.522-0.013-1.036-0.085-1.473c-0.058-0.432-0.282-0.794-0.636-1.076c-0.679-0.589-1.675-0.929-2.562-1.235
			c-0.9-0.288-1.766-0.512-2.525-0.617c-0.757-0.109-1.402-0.193-1.856-0.206c-0.455-0.031-0.716-0.02-0.716-0.02
			s0.257-0.047,0.708-0.131c0.453-0.057,1.112-0.172,1.908-0.139c0.792,0.031,1.73,0.102,2.701,0.364
			c0.952,0.277,2.012,0.567,2.906,1.37c0.42,0.407,0.757,0.996,0.812,1.589c0.066,0.58-0.016,1.078,0.01,1.527
			c0.036,0.915,0.28,1.775,0.633,2.442c0.347,0.67,0.741,1.185,1.06,1.504c0.315,0.325,0.526,0.481,0.526,0.481
			S258.162,254.614,257.787,254.346z M194.944,266.791c2.356-0.619,4.643-1.75,6.061-3.626l0.878,0.692
			c-1.733,2.098-4.271,3.178-6.741,3.733c-2.504,0.537-4.999,0.714-7.485,1.046l-14.926,1.862l14.857-2.353
			C190.054,267.717,192.567,267.422,194.944,266.791z M197.691,260.315c-2.618-2.374-5.513-5.304-8.708-8.303
			c-0.029-0.027-0.061-0.053-0.089-0.08c-1.887,1.476-3.998,2.609-6.177,3.501c-2.394,0.991-4.868,1.722-7.342,2.392
			c-2.475,0.673-4.958,1.295-7.39,2.087c-2.418,0.751-4.805,1.965-7.409,1.892c2.603,0.006,4.929-1.264,7.34-2.091
			c2.416-0.868,4.884-1.578,7.326-2.341c2.441-0.763,4.864-1.577,7.167-2.642c2.039-0.949,3.964-2.119,5.676-3.524
			c-2.976-2.71-6.296-5.328-9.916-7.536c-1.476-0.924-2.991-1.772-4.515-2.583c-1.346,1.305-2.954,2.268-4.596,3.035
			c-1.838,0.838-3.722,1.498-5.624,2.103c-3.809,1.196-7.725,2.016-11.676,2.458c3.934-0.574,7.8-1.563,11.517-2.926
			c1.854-0.688,3.695-1.442,5.429-2.35c1.463-0.77,2.816-1.716,3.953-2.851c-2.227-1.147-4.471-2.188-6.67-3.107
			c-2.714-1.123-5.338-2.074-7.799-2.889c-3.687,3.488-8.435,5.702-13.336,6.434c4.709-0.943,9.009-3.415,12.273-6.786
			c-0.833-0.267-1.649-0.52-2.431-0.751c-3.372-0.983-6.206-1.739-8.202-2.22c-1.997-0.486-3.138-0.764-3.138-0.764
			s1.159,0.189,3.189,0.521c2.017,0.394,4.915,0.913,8.333,1.805c1.248,0.33,2.59,0.709,3.967,1.117
			c0.197-0.953,0.402-1.909,0.508-2.884c0.139-1.143,0.201-2.298,0.185-3.454c0.113,1.151,0.18,2.309,0.2,3.474
			c0.005,1.03,0.015,2.072-0.081,3.106c2.15,0.655,4.405,1.409,6.721,2.326c1.617,0.636,3.257,1.364,4.896,2.14
			c0.305-0.811,0.599-1.629,0.828-2.469c0.277-0.999,0.506-2.016,0.667-3.046c0.169-1.03,0.241-2.072,0.315-3.124
			c0.078-1.05,0.181-2.111,0.485-3.12c-0.251,1.025-0.279,2.08-0.27,3.128c0.018,1.049,0.022,2.112-0.056,3.171
			c-0.137,1.981-0.498,3.959-1.099,5.872c2.243,1.096,4.477,2.31,6.64,3.653c0.884,0.547,1.746,1.129,2.597,1.721
			c2.195-5.447,3.83-11.138,4.867-16.951c-0.736,5.95-2.098,11.835-4.032,17.546c2.704,1.952,5.226,4.091,7.457,6.286
			c0.911,0.886,1.778,1.764,2.623,2.631c3.368-6.175,5.865-12.885,7.123-19.869c-1.055,7.123-3.134,14.142-6.363,20.653
			c1.8,1.861,3.482,3.635,5.065,5.156c1.549,1.512,2.988,2.815,4.256,3.873c1.566-2.015,2.681-4.396,3.679-6.806l2.867-7.677
			l-2.439,7.839c-0.858,2.496-1.816,5.014-3.327,7.283c0.488,0.39,0.946,0.739,1.367,1.041c0.828,0.604,1.49,1.065,1.961,1.351
			c0.464,0.297,0.711,0.455,0.711,0.455s-0.256-0.144-0.736-0.413c-0.487-0.259-1.182-0.671-2.053-1.222
			C202.677,264.464,200.294,262.708,197.691,260.315z M173.449,296.512c1.001,0.479,1.96,1.043,2.88,1.655
			c0.428,0.302,0.914,0.532,1.406,0.941c0.249,0.2,0.479,0.514,0.619,0.753c0.085,0.145,0.163,0.264,0.238,0.37
			c0.3-0.112,0.604-0.233,0.902-0.338c2.535-0.915,4.969-1.536,7.044-2.072c0.599-0.153,1.162-0.286,1.702-0.41
			c-0.886-1.739-2.14-3.322-3.713-4.554c-1.669-1.326-3.678-2.281-5.819-2.65c2.155,0.265,4.258,1.039,6.109,2.247
			c1.8,1.19,3.375,2.793,4.45,4.727c0.898-0.195,1.686-0.357,2.322-0.499c1.223-0.252,1.923-0.396,1.923-0.396
			s-0.683,0.209-1.877,0.574c-0.004,0.001-0.008,0.002-0.012,0.003c0.708,3.401,0.524,6.907-0.316,10.178
			c0.587-3.322,0.27-6.739-0.697-9.873c-1.073,0.331-2.396,0.758-3.91,1.227c-1.076,0.332-2.241,0.723-3.461,1.158
			c1.17,2.507,1.572,5.256,1.568,7.929c-0.011,2.831-0.458,5.607-0.887,8.372c0.29-2.782,0.564-5.583,0.392-8.357
			c-0.16-2.663-0.767-5.321-2.053-7.587c-0.79,0.29-1.592,0.59-2.416,0.912c-1.867,0.733-3.794,1.582-5.673,2.564
			c0.03,0.051,0.058,0.103,0.092,0.15c0.091,0.15,0.178,0.303,0.26,0.457c0.165,0.309,0.313,0.627,0.443,0.951
			c0.262,0.647,0.449,1.325,0.57,2c0.236,1.357,0.298,2.691,0.304,4.027l0.132,7.997c-0.192-2.659-0.421-5.312-0.648-7.956
			c-0.092-1.323-0.242-2.652-0.548-3.904c-0.155-0.626-0.365-1.227-0.642-1.797c-0.137-0.285-0.29-0.563-0.457-0.831
			c-0.083-0.134-0.17-0.266-0.26-0.395c-0.041-0.074-0.101-0.133-0.145-0.204c-0.301,0.166-0.606,0.324-0.904,0.498
			c-1.705,0.976-3.321,2.092-4.841,3.25c0.424,0.865,0.67,1.783,0.81,2.69c0.16,1.031,0.204,2.06,0.221,3.078
			c0.014,2.032,0.009,4.058,0.057,6.085c-0.163-2.019-0.367-4.04-0.574-6.054c-0.191-1.812-0.488-3.668-1.333-5.163
			c-0.369,0.292-0.74,0.583-1.096,0.877c-1.991,1.657-3.787,3.294-5.292,4.76l0.104-0.061c0.426,0.88,0.702,1.815,0.882,2.75
			c0.177,0.937,0.241,1.884,0.197,2.817c-0.083-0.93-0.3-1.84-0.628-2.695c-0.299-0.791-0.715-1.522-1.18-2.204
			c-1.282,1.252-2.398,2.342-3.181,3.106c-0.898,0.869-1.411,1.365-1.411,1.365s0.45-0.553,1.24-1.523
			c0.811-0.949,1.932-2.342,3.391-3.916c0.473-0.509,0.984-1.051,1.513-1.605c-1.123-0.983-2.778-1.531-4.4-1.236
			c1.589-0.557,3.503-0.441,5.093,0.517c0.918-0.937,1.912-1.905,3.003-2.858c1.266-1.123,2.665-2.215,4.142-3.238
			c-0.058-0.063-0.11-0.131-0.179-0.182l-0.409-0.379c-0.281-0.245-0.573-0.478-0.876-0.7c-0.609-0.44-1.268-0.815-1.957-1.134
			c-1.38-0.636-2.909-0.996-4.457-1.013c1.545-0.1,3.12,0.1,4.626,0.577c0.754,0.237,1.484,0.558,2.185,0.942
			c0.348,0.196,0.69,0.405,1.023,0.631c0.287,0.224,0.618,0.409,0.844,0.706c0.622-0.41,1.257-0.806,1.906-1.183
			c1.88-1.069,3.833-1.994,5.762-2.766c-0.178-0.333-0.283-0.613-0.488-0.787c-0.318-0.327-0.799-0.625-1.236-0.988
			c-0.838-0.681-1.697-1.332-2.621-1.884c-1.833-1.093-3.965-1.862-6.161-1.7C169.225,294.999,171.457,295.559,173.449,296.512z
			 M256.626,345.021c0.81-0.016,1.631-0.007,2.457,0.011c0.434-1.455,1.249-2.712,2.143-3.825c0.954-1.173,1.973-2.27,3.053-3.309
			c1.078-1.039,2.216-2.011,3.406-2.912c0.594-0.451,1.201-0.884,1.82-1.298c0.613-0.408,1.28-0.824,2.033-0.879
			c-0.749,0.095-1.376,0.539-1.961,0.981c-0.592,0.448-1.169,0.913-1.732,1.395c-1.127,0.962-2.192,1.993-3.188,3.082
			c-0.996,1.087-1.931,2.238-2.774,3.432c-0.739,1.054-1.346,2.184-1.665,3.364c1.294,0.05,2.602,0.136,3.919,0.252
			c2.506,0.252,5.036,0.635,7.547,1.122c1.016-1.415,2.273-2.617,3.625-3.641c1.469-1.114,3.04-2.051,4.615-2.951
			c1.574-0.894,3.154-1.815,4.853-2.49c1.685-0.679,3.524-1.091,5.332-0.868c-1.818-0.162-3.606,0.357-5.228,1.109
			c-1.632,0.76-3.143,1.751-4.668,2.724c-1.52,0.976-3.018,1.982-4.377,3.132c-1.14,0.963-2.166,2.043-2.993,3.245
			c2.191,0.488,4.365,1.03,6.483,1.654c1.961,0.597,3.862,1.249,5.715,1.931c1.608-1.959,3.724-3.453,6.043-4.344
			c2.456-0.942,5.046-1.19,7.59-1.475c-2.525,0.428-5.083,0.909-7.375,1.982c-2.064,0.962-3.842,2.449-5.195,4.223
			c0.102,0.039,0.211,0.074,0.313,0.114c4.537,1.748,8.623,3.72,12.076,5.483c0.132,0.068,0.256,0.134,0.386,0.202l-0.127-0.135
			c0.508-0.496,1.123-0.864,1.722-1.224c0.607-0.353,1.246-0.642,1.895-0.888c1.299-0.492,2.66-0.761,4.013-0.845
			c-1.342,0.214-2.624,0.692-3.786,1.337c-0.582,0.323-1.129,0.699-1.647,1.103c-0.442,0.333-0.831,0.72-1.228,1.094
			c2.883,1.531,5.231,2.935,6.937,3.946c1.932,1.169,3.037,1.837,3.037,1.837s-1.126-0.632-3.128-1.675
			c-1.765-0.943-4.238-2.181-7.203-3.612c-0.176,1.175-0.206,2.385-0.039,3.585c0.185,1.406,0.616,2.798,1.294,4.076
			c-0.803-1.203-1.411-2.551-1.789-3.978c-0.343-1.329-0.486-2.728-0.383-4.125c-0.082-0.039-0.159-0.077-0.241-0.116
			c-3.486-1.664-7.628-3.444-12.148-5.102c-0.318-0.115-0.652-0.222-0.974-0.335l0.057,0.298c0.07,0.35,0.154,0.7,0.249,1.049
			c0.19,0.699,0.421,1.395,0.663,2.094l1.465,4.205l1.467,4.206l0.739,2.1c0.254,0.689,0.562,1.381,1.096,1.905
			c-0.559-0.497-0.916-1.18-1.213-1.858l-0.869-2.052l-1.739-4.101l-1.739-4.102c-0.289-0.687-0.575-1.383-0.824-2.102
			c-0.124-0.36-0.239-0.725-0.34-1.097l-0.059-0.239c-0.109-0.06-0.196-0.133-0.229-0.189c-0.111-0.195-0.098-0.282-0.101-0.393
			c0.005-0.057,0.015-0.118,0.038-0.185c-1.55-0.524-3.123-1.035-4.737-1.511c-2.429-0.689-4.918-1.309-7.43-1.812
			c-1.226-0.239-2.456-0.449-3.686-0.634c1.143,8.361,5.493,16.371,12.138,21.837c-6.922-5.283-11.851-13.251-13.368-21.997
			c-0.88-0.119-1.762-0.243-2.638-0.333c-2.509-0.225-4.986-0.369-7.386-0.368c-0.434,0.001-0.862,0.01-1.29,0.018
			c0.357,1.797,0.697,3.602,1.248,5.359c0.573,1.913,1.287,3.788,2.135,5.604c1.699,3.629,3.917,7.038,6.624,10.032
			c-2.804-2.899-5.211-6.201-7.1-9.795c-0.946-1.796-1.767-3.662-2.452-5.581c-0.626-1.822-1.214-3.679-1.522-5.591
			c-3.904,0.132-7.544,0.563-10.684,1.223c-2.156,0.459-4.078,0.972-5.727,1.484c0.903,5.927,3.797,11.603,8.184,15.838
			c-4.525-4.026-7.754-9.54-9.057-15.559c-0.868,0.287-1.654,0.571-2.327,0.841c-1.067,0.369-1.865,0.754-2.426,0.982
			c-0.557,0.237-0.854,0.364-0.854,0.364s0.286-0.149,0.822-0.429c0.541-0.27,1.313-0.719,2.352-1.168
			c2.055-0.943,5.077-2.167,8.871-3.071c0.52-0.121,1.056-0.238,1.602-0.352c-0.013-0.122-0.01-0.24,0.017-0.367l0.155-0.532
			c0.115-0.35,0.242-0.695,0.384-1.033c0.287-0.674,0.632-1.318,1.021-1.929c0.779-1.221,1.727-2.311,2.774-3.277
			c2.101-1.935,4.541-3.37,6.956-4.794c-2.345,1.534-4.668,3.159-6.566,5.186c-0.944,1.011-1.78,2.119-2.426,3.318
			c-0.323,0.599-0.598,1.22-0.815,1.856c-0.107,0.319-0.199,0.641-0.279,0.965l-0.081,0.38
			C249.335,345.504,252.873,345.075,256.626,345.021z M231.865,202.22c-0.077,1.217-0.151,2.959-0.304,5.043
			c-0.154,2.084-0.305,4.519-0.518,7.122c-0.204,2.605-0.454,5.38-0.702,8.155c-0.266,2.774-0.529,5.547-0.808,8.145
			c-0.267,2.598-0.567,5.019-0.799,7.096c-0.232,2.077-0.48,3.803-0.628,5.013c-0.168,1.209-0.263,1.899-0.263,1.899
			s0.033-0.697,0.091-1.915c0.077-1.217,0.15-2.959,0.304-5.043c0.154-2.084,0.304-4.519,0.519-7.122
			c0.204-2.605,0.455-5.379,0.703-8.154c0.266-2.774,0.531-5.547,0.809-8.145c0.269-2.598,0.568-5.019,0.799-7.096
			c0.233-2.077,0.48-3.803,0.628-5.013c0.167-1.209,0.262-1.9,0.262-1.9S231.924,201.001,231.865,202.22z M265.787,169.077
			c1.263-0.1,2.542-0.081,3.807-0.06c2.529,0.096,5.024,0.018,7.361-0.304c2.333-0.3,4.487-0.793,6.288-1.36
			c1.803-0.565,3.272-1.147,4.279-1.602c1.013-0.443,1.574-0.739,1.574-0.739s-0.545,0.322-1.53,0.831
			c-0.987,0.502-2.419,1.194-4.216,1.831c-1.796,0.634-3.944,1.26-6.307,1.638c-2.355,0.403-4.935,0.497-7.462,0.425
			c-1.263-0.027-2.518-0.037-3.738,0.056c-1.22,0.099-2.415,0.296-3.57,0.526c-2.305,0.473-4.461,1.018-6.344,1.339
			c-1.88,0.345-3.488,0.378-4.597,0.325c-0.556-0.031-0.989-0.085-1.282-0.137c-0.294-0.043-0.45-0.065-0.45-0.065
			s0.158,0.009,0.454,0.025c0.295,0.024,0.729,0.037,1.281,0.017c1.103-0.014,2.666-0.205,4.507-0.612
			c1.847-0.389,3.957-1.045,6.292-1.557C263.299,169.395,264.524,169.182,265.787,169.077z M250.92,130.607
			c1.002-0.262,2.45-0.62,4.228-0.809c1.766-0.211,3.895-0.214,6.081-0.093c1.09,0.027,2.204-0.008,3.265-0.303
			c1.066-0.295,2.091-0.829,3.097-1.42c2.02-1.204,4.078-2.405,6.046-3.425c1.964-1.036,3.844-1.91,5.46-2.644
			c1.615-0.736,2.994-1.274,3.953-1.66c0.965-0.371,1.517-0.584,1.517-0.584s-0.532,0.257-1.463,0.706
			c-0.933,0.445-2.247,1.118-3.823,1.92c-1.577,0.801-3.386,1.793-5.313,2.871c-1.928,1.084-3.945,2.274-5.964,3.519
			c-1.026,0.603-2.112,1.18-3.294,1.503c-1.188,0.324-2.393,0.342-3.509,0.286c-2.232-0.153-4.245-0.281-6.01-0.152
			c-1.753,0.104-3.217,0.276-4.231,0.464c-1.018,0.166-1.596,0.299-1.596,0.299S249.921,130.89,250.92,130.607z M215.051,105.33
			c-0.249-0.216-0.382-0.331-0.382-0.331s0.144,0.102,0.413,0.293c0.267,0.195,0.648,0.497,1.105,0.918
			c0.879,0.861,2.078,2.245,2.874,4.263c0.384,1.005,0.701,2.147,0.809,3.389c0.115,1.239,0.047,2.535,0.001,3.842
			c-0.109,2.597,0.208,5.366,1.058,7.992c0.417,1.331,0.887,2.575,1.902,3.361c0.994,0.822,2.278,1.312,3.447,1.992
			c2.367,1.368,4.03,3.366,5.074,5.221c1.052,1.875,1.435,3.646,1.601,4.862c0.062,0.615,0.104,1.098,0.099,1.429
			c0.006,0.33,0.009,0.506,0.009,0.506s-0.011-0.176-0.032-0.505c-0.012-0.329-0.071-0.81-0.182-1.413
			c-0.224-1.201-0.749-2.899-1.841-4.675c-1.083-1.769-2.812-3.579-5.09-4.762c-1.132-0.596-2.459-1.042-3.646-1.955
			c-0.59-0.449-1.112-1.066-1.455-1.734c-0.351-0.67-0.58-1.354-0.803-2.035c-0.866-2.739-1.18-5.652-0.984-8.32
			c0.076-1.326,0.195-2.58,0.143-3.757c-0.044-1.174-0.286-2.273-0.614-3.251c-0.68-1.955-1.688-3.414-2.504-4.319
			C215.645,105.884,215.298,105.548,215.051,105.33z M227.147,182.771c-2.364,1.145-4.705,2.726-6.796,4.588
			c-2.109,1.847-3.908,4.036-5.292,6.275c-1.382,2.245-2.477,4.48-3.535,6.332c-1.036,1.866-2.106,3.304-2.912,4.25
			c-0.415,0.464-0.747,0.822-0.992,1.047c-0.239,0.231-0.366,0.355-0.366,0.355s0.121-0.13,0.347-0.374
			c0.232-0.238,0.544-0.613,0.928-1.096c0.769-0.971,1.711-2.469,2.692-4.348c1.003-1.868,1.998-4.145,3.365-6.453
			c1.366-2.309,3.178-4.568,5.291-6.511c2.116-1.938,4.533-3.546,6.97-4.686c2.433-1.174,4.881-1.772,6.907-2.369
			c2.035-0.591,3.703-1.17,4.797-1.748c1.107-0.55,1.683-0.973,1.683-0.973s-0.141,0.108-0.405,0.31
			c-0.265,0.202-0.665,0.486-1.201,0.804c-1.07,0.641-2.708,1.383-4.735,2.049C231.871,180.901,229.503,181.611,227.147,182.771z
			 M215.588,305.038c-0.138-0.597-0.278-1.193-0.379-1.759c-0.11-0.564-0.167-1.102-0.24-1.557
			c-0.071-0.455-0.079-0.848-0.108-1.116c-0.011-0.273-0.018-0.429-0.018-0.429s0.067,0.141,0.184,0.388
			c0.099,0.251,0.275,0.602,0.424,1.038c0.148,0.437,0.348,0.939,0.513,1.49c0.174,0.548,0.327,1.141,0.483,1.734
			c0.138,0.597,0.279,1.193,0.38,1.759c0.112,0.564,0.167,1.102,0.239,1.557c0.072,0.455,0.079,0.848,0.109,1.117
			c0.01,0.273,0.017,0.43,0.017,0.43s-0.067-0.141-0.185-0.388c-0.099-0.251-0.276-0.602-0.424-1.038
			c-0.148-0.437-0.35-0.939-0.513-1.49C215.896,306.224,215.744,305.631,215.588,305.038z M199.398,391.842
			c-0.149,0.704-0.328,1.72-0.604,2.922c-0.277,1.202-0.573,2.611-0.939,4.108c-0.358,1.499-0.771,3.09-1.181,4.682
			c-0.429,1.586-0.854,3.174-1.284,4.655c-0.419,1.483-0.86,2.854-1.212,4.036c-0.353,1.182-0.7,2.153-0.918,2.839
			c-0.237,0.681-0.372,1.07-0.372,1.07s0.075-0.405,0.205-1.115c0.149-0.704,0.327-1.72,0.604-2.922
			c0.277-1.202,0.572-2.612,0.939-4.108c0.357-1.5,0.771-3.09,1.182-4.682c0.429-1.587,0.855-3.174,1.285-4.655
			c0.421-1.482,0.86-2.854,1.212-4.036c0.354-1.182,0.7-2.153,0.918-2.839c0.236-0.681,0.372-1.071,0.372-1.071
			S199.529,391.133,199.398,391.842z M210.403,364.536c0.455-0.425,0.908-0.852,1.354-1.23c0.439-0.386,0.884-0.709,1.247-1.004
			c0.364-0.295,0.705-0.502,0.925-0.665c0.235-0.149,0.368-0.234,0.368-0.234s-0.091,0.13-0.249,0.359
			c-0.172,0.214-0.391,0.547-0.7,0.9c-0.309,0.351-0.65,0.784-1.052,1.207c-0.394,0.432-0.839,0.868-1.281,1.306
			c-0.455,0.425-0.909,0.851-1.355,1.229c-0.44,0.384-0.884,0.708-1.247,1.004c-0.364,0.295-0.705,0.502-0.926,0.665
			c-0.234,0.15-0.368,0.235-0.368,0.235s0.091-0.13,0.249-0.358c0.171-0.215,0.392-0.547,0.7-0.899
			c0.309-0.352,0.651-0.783,1.052-1.208C209.517,365.411,209.961,364.974,210.403,364.536z M263.517,292.785
			c-0.556,0.541-1.324,1.34-2.292,2.252c-0.968,0.911-2.077,1.997-3.303,3.121c-1.245,1.128-2.549,2.31-3.861,3.498
			c-1.336,1.162-2.665,2.318-3.933,3.42c-1.257,1.048-2.473,2.062-3.492,2.912c-1.021,0.853-1.907,1.524-2.511,2.012
			c-0.616,0.474-0.968,0.745-0.968,0.745s0.311-0.318,0.855-0.874c0.556-0.542,1.328-1.342,2.295-2.255
			c0.964-0.911,2.114-1.997,3.302-3.12c1.243-1.127,2.546-2.308,3.856-3.495c1.335-1.161,2.661-2.315,3.928-3.417
			c1.26-1.084,2.471-2.058,3.492-2.912c1.021-0.854,1.909-1.526,2.514-2.014c0.618-0.476,0.971-0.746,0.971-0.746
			S264.06,292.229,263.517,292.785z M312.034,291.668c2.242,1.412,4.441,2.867,6.449,4.33c1.105,0.811,2.156,1.616,3.142,2.393
			c0.326-0.422,0.824-0.659,1.24-0.784c0.62-0.168,1.174-0.218,1.75-0.323c1.139-0.167,2.294-0.443,3.46-0.389
			c-1.161,0.065-2.233,0.543-3.346,0.865c-0.543,0.182-1.133,0.336-1.605,0.549c-0.368,0.151-0.625,0.409-0.771,0.664
			c0.698,0.56,1.372,1.107,1.99,1.623c1.684,1.382,3.005,2.631,3.942,3.487c0.924,0.87,1.452,1.367,1.452,1.367
			s-0.575-0.442-1.58-1.215c-0.995-0.784-2.46-1.851-4.208-3.133c-0.308-0.232-0.641-0.471-0.972-0.71
			c-0.208,0.325-0.413,0.669-0.549,1.06c-0.163,0.432-0.28,0.894-0.381,1.363l-0.547,2.85l0.144-2.905
			c0.027-0.488,0.068-0.982,0.163-1.481c0.093-0.465,0.227-0.948,0.473-1.388c-1.352-0.955-2.84-1.959-4.403-3.021
			c-1.268-0.841-2.591-1.705-3.942-2.567c-0.467,0.649-0.805,1.42-1.004,2.249c-0.234,0.935-0.347,1.921-0.462,2.904
			c-0.217,1.956-0.322,3.961,0.183,5.892c-0.616-1.897-0.666-3.937-0.593-5.922c0.041-0.994,0.071-1.993,0.231-3.004
			c0.141-0.878,0.406-1.782,0.903-2.588c-0.812-0.513-1.63-1.024-2.456-1.526c-1.998-1.218-4.006-2.37-5.963-3.469
			c-1.309,2.008-1.974,4.468-2.038,6.937c-0.086,2.573,0.321,5.149,0.737,7.701c-0.516-2.534-1.047-5.086-1.086-7.704
			c-0.014-1.306,0.083-2.622,0.355-3.918c0.25-1.189,0.667-2.362,1.294-3.432c-0.208-0.116-0.427-0.243-0.633-0.357
			c-2.382-1.28-4.595-2.505-6.547-3.448c-0.986-0.489-1.885-0.941-2.684-1.338c-0.855,1.692-0.882,3.769-0.753,5.747
			c0.137,2.113,0.5,4.218,1.082,6.269c-0.72-2.007-1.228-4.098-1.509-6.227c-0.139-1.063-0.237-2.14-0.194-3.236
			c0.034-0.982,0.217-1.984,0.603-2.933c-0.455-0.223-0.884-0.431-1.25-0.6c-1.142-0.555-1.794-0.872-1.794-0.872
			s0.687,0.233,1.89,0.642c0.686,0.251,1.561,0.564,2.548,0.942c0.963-0.889,1.961-1.713,2.907-2.665
			c0.477-0.494,1.122-0.9,1.753-1.138l1.877-0.711c1.255-0.457,2.537-0.868,3.854-1.121c1.316-0.252,2.672-0.311,3.989-0.106
			c-1.325-0.159-2.664-0.015-3.946,0.305c-1.286,0.316-2.527,0.786-3.747,1.305c-1.202,0.565-2.532,0.928-3.336,1.903
			c-0.778,0.873-1.654,1.708-2.5,2.559c0.481,0.193,0.983,0.399,1.508,0.627c1.684,0.713,3.596,1.569,5.604,2.55l-0.043-0.061
			c0.129-0.228,0.365-0.32,0.539-0.519c0.187-0.179,0.371-0.378,0.562-0.583c0.374-0.411,0.82-0.844,1.31-1.163
			c0.981-0.653,2.042-1.042,3.084-1.442c1.05-0.389,2.117-0.728,3.196-1.011c1.061-0.236,2.199-0.689,3.288-0.311
			c-1.102-0.313-2.178,0.223-3.221,0.531c-1.048,0.362-2.076,0.773-3.081,1.231c-0.999,0.467-2.012,0.936-2.841,1.586
			c-0.42,0.324-0.751,0.697-1.094,1.134c-0.172,0.215-0.349,0.44-0.547,0.661c-0.112,0.108-0.217,0.237-0.338,0.349
			c0.116,0.058,0.229,0.111,0.345,0.17c2.345,1.189,4.783,2.566,7.191,4.004c3.629-2.33,7.889-3.535,12.098-3.522
			C319.15,287.852,315.244,289.331,312.034,291.668z M302.828,219.727c0.094-1.517,0.63-2.693,1.089-3.422
			c0.229-0.369,0.444-0.636,0.596-0.809c0.153-0.174,0.234-0.266,0.234-0.266s-0.075,0.098-0.215,0.281
			c-0.14,0.182-0.333,0.463-0.529,0.844c-0.412,0.746-0.823,1.933-0.841,3.383c-0.025,1.456,0.494,3.109,1.639,4.497
			c1.084,1.412,2.673,2.78,3.425,4.767c0.754,1.943,0.739,4.075,0.336,5.923c-0.4,1.87-1.208,3.452-1.939,4.747
			c-0.741,1.297-1.49,2.285-1.989,2.99c-0.519,0.692-0.815,1.086-0.815,1.086s0.245-0.427,0.675-1.178
			c0.438-0.743,1.038-1.821,1.702-3.128c0.656-1.307,1.304-2.9,1.634-4.664c0.313-1.757,0.322-3.729-0.36-5.486
			c-0.622-1.778-2.106-3.12-3.204-4.66c-0.554-0.765-0.992-1.617-1.21-2.47C302.829,221.312,302.792,220.48,302.828,219.727z
			 M349.103,259.991c0.072-0.107,0.231-0.345,0.322-0.482c0.145-0.185,0.291-0.418,0.471-0.642c0.219-0.285,0.372-0.484,0.549-0.714
			c0.178-0.231,0.333-0.434,0.551-0.717c0.17-0.234,0.35-0.444,0.479-0.64c0.098-0.134,0.264-0.36,0.34-0.464
			c0.086-0.113,0.134-0.177,0.134-0.177s-0.016,0.08-0.043,0.219c-0.037,0.135-0.073,0.338-0.16,0.564
			c-0.084,0.226-0.179,0.496-0.315,0.768c-0.133,0.273-0.304,0.549-0.484,0.819c-0.193,0.26-0.394,0.516-0.611,0.73
			c-0.213,0.217-0.443,0.389-0.638,0.534c-0.195,0.146-0.39,0.229-0.511,0.301c-0.132,0.06-0.206,0.094-0.206,0.094
			S349.026,260.113,349.103,259.991z M340.339,259.851c0.171,0.765,0.294,1.481,0.553,2.093c0.254,0.605,0.679,1.078,1.176,1.387
			c0.991,0.638,2.075,0.675,2.755,0.528c0.347-0.073,0.609-0.184,0.779-0.272c0.168-0.095,0.258-0.146,0.258-0.146
			s-0.085,0.059-0.243,0.171c-0.162,0.106-0.414,0.244-0.761,0.369c-0.68,0.226-1.837,0.35-3.004-0.285
			c-0.576-0.303-1.128-0.826-1.474-1.51c-0.343-0.676-0.521-1.435-0.717-2.167c-0.2-0.727-0.442-1.455-0.937-1.94
			c-0.476-0.493-1.22-0.719-1.973-0.75c-1.534-0.098-3.043,0.547-4.341,1.291c-1.3,0.762-2.466,1.625-3.522,2.289
			c-1.05,0.677-2.025,1.09-2.718,1.31c-0.701,0.207-1.112,0.252-1.112,0.252s0.403-0.105,1.053-0.406
			c0.66-0.281,1.523-0.826,2.509-1.549c0.996-0.712,2.065-1.686,3.405-2.534c1.316-0.839,2.978-1.585,4.776-1.48
			c0.874,0.052,1.829,0.332,2.483,1.031C339.939,258.222,340.167,259.098,340.339,259.851z"/>
		<path style="fill:#19110C;" d="M284.315,351.199l-0.05-0.034l0.044,0.058l0.003-0.003
			C284.315,351.209,284.315,351.207,284.315,351.199z"/>
	</g>
</g>
</svg>
